{"glyphs":{"0":{"ha":825,"x_min":63,"x_max":758,"o":"m 321 -14 q 183 28 242 -14 q 94 142 125 69 q 63 308 63 215 q 98 511 63 417 q 195 677 133 606 q 335 789 257 749 q 500 829 414 829 q 637 788 579 829 q 726 673 694 746 q 758 506 758 600 q 722 303 758 397 q 625 138 686 208 q 485 26 564 67 q 321 -14 407 -14 m 344 100 q 453 130 401 100 q 546 214 506 160 q 610 339 586 268 q 633 492 633 410 q 592 653 633 592 q 476 715 550 715 q 365 685 418 715 q 272 600 313 654 q 209 475 232 546 q 186 322 186 404 q 228 161 186 222 q 344 100 269 100 z "},"1":{"ha":603,"x_min":4,"x_max":508,"o":"m 28 111 l 215 111 l 331 653 q 286 617 315 636 q 222 582 257 599 q 152 555 186 565 q 92 544 118 544 l 117 661 q 185 678 146 661 q 261 719 224 696 q 326 764 299 743 q 360 793 354 785 l 485 793 l 340 111 l 508 111 l 485 0 l 4 0 l 28 111 z "},"2":{"ha":714,"x_min":-29,"x_max":678,"o":"m -29 0 q 2 105 -17 56 q 53 198 21 154 q 137 283 86 242 q 263 363 188 324 q 360 411 311 388 q 451 460 410 435 q 516 516 492 485 q 540 589 540 547 q 526 642 540 617 q 483 683 513 667 q 410 699 454 699 q 337 688 371 699 q 274 658 303 676 q 224 621 246 640 q 185 586 201 601 l 125 675 q 169 709 139 688 q 243 753 200 731 q 340 791 286 775 q 456 807 394 807 q 577 782 528 807 q 652 715 626 757 q 678 621 678 674 q 650 511 678 558 q 580 430 622 464 q 492 371 538 396 q 410 329 446 346 q 338 292 378 314 q 260 244 299 271 q 191 183 222 217 q 144 111 160 150 l 586 111 l 563 0 l -29 0 z "},"3":{"ha":721,"x_min":-53,"x_max":678,"o":"m 211 -204 q 43 -165 111 -204 q -53 -53 -25 -125 l 44 29 q 108 -60 64 -26 q 233 -93 153 -93 q 358 -68 306 -93 q 439 5 410 -43 q 468 121 468 53 q 422 231 468 190 q 286 272 376 272 l 251 272 l 274 375 l 311 375 q 436 402 383 375 q 517 475 489 429 q 546 575 546 521 q 507 661 546 632 q 404 690 468 690 q 273 658 333 690 q 168 567 213 625 l 110 644 q 195 726 143 692 q 311 781 247 761 q 440 800 375 800 q 615 744 551 800 q 678 597 678 689 q 649 477 678 535 q 571 379 621 419 q 458 328 521 339 q 560 263 524 315 q 597 136 597 211 q 547 -40 597 38 q 409 -160 496 -117 q 211 -204 322 -204 z "},"4":{"ha":749,"x_min":-39,"x_max":660,"o":"m 381 58 l -39 58 l -15 167 l 576 793 l 660 793 l 526 169 l 643 169 l 619 58 l 503 58 l 453 -176 l 331 -176 l 381 58 m 417 169 l 510 604 l 111 169 l 417 169 z "},"5":{"ha":733,"x_min":-47,"x_max":710,"o":"m 217 -207 q 47 -157 117 -207 q -47 -24 -24 -107 l 43 43 q 119 -60 67 -21 q 240 -99 171 -99 q 338 -79 292 -99 q 421 -24 385 -60 q 478 58 457 11 q 499 161 499 106 q 456 283 499 236 q 342 329 413 329 q 232 303 286 329 q 138 228 178 276 l 28 228 q 50 283 32 238 q 94 392 68 328 q 147 525 119 456 q 198 656 174 594 q 238 755 222 717 q 254 793 254 793 l 710 793 l 686 681 l 319 681 l 199 367 q 280 417 233 399 q 379 436 326 436 q 510 404 454 436 q 596 315 565 372 q 626 183 626 258 q 593 27 626 99 q 501 -97 560 -44 q 369 -178 443 -149 q 217 -207 296 -207 z "},"6":{"ha":821,"x_min":65,"x_max":803,"o":"m 331 -14 q 485 18 411 -14 q 619 106 560 50 q 712 233 678 161 q 746 386 746 306 q 713 525 746 464 q 622 622 681 586 q 485 658 564 658 q 381 639 432 658 q 287 584 329 619 q 214 500 244 549 q 290 708 242 622 q 400 840 338 794 q 532 886 463 886 q 649 848 601 886 q 713 744 697 810 l 803 818 q 712 947 776 900 q 557 993 647 993 q 357 938 447 993 q 201 785 267 882 q 101 564 136 689 q 65 300 65 439 q 135 70 65 154 q 331 -14 206 -14 m 354 92 q 264 117 303 92 q 203 188 225 143 q 181 285 181 232 q 203 389 181 339 q 265 477 226 439 q 353 538 304 515 q 453 560 401 560 q 543 534 504 560 q 604 465 582 508 q 626 368 626 422 q 603 263 626 313 q 541 175 581 214 q 453 114 501 136 q 354 92 404 92 z "},"7":{"ha":717,"x_min":-35,"x_max":785,"o":"m 567 697 l 92 697 l 115 810 l 785 810 l 104 -176 l -35 -176 l 567 697 z "},"8":{"ha":800,"x_min":33,"x_max":772,"o":"m 306 -11 q 163 22 224 -11 q 67 110 101 54 q 33 236 33 167 q 69 370 33 313 q 159 468 106 428 q 264 528 213 508 q 191 594 221 550 q 161 694 161 639 q 194 817 161 764 q 282 909 228 871 q 399 967 336 947 q 519 986 461 986 q 641 961 583 986 q 735 888 699 936 q 772 771 772 840 q 744 665 772 713 q 672 583 717 618 q 579 528 628 549 q 670 449 633 503 q 707 324 707 396 q 673 188 707 250 q 582 82 639 126 q 453 13 525 38 q 306 -11 382 -11 m 332 99 q 419 115 375 99 q 500 160 463 131 q 560 230 538 189 q 583 319 583 271 q 558 404 583 369 q 494 458 533 439 q 410 476 454 476 q 323 460 367 476 q 242 415 279 444 q 183 345 206 386 q 161 256 161 304 q 185 172 161 207 q 249 117 210 136 q 332 99 289 99 m 432 571 q 503 583 465 571 q 572 618 540 594 q 624 675 604 642 q 644 751 644 708 q 624 818 644 790 q 571 861 604 846 q 496 876 538 876 q 396 855 444 876 q 316 793 347 833 q 285 699 285 753 q 306 629 285 658 q 362 585 328 600 q 432 571 396 571 z "},"9":{"ha":797,"x_min":-6,"x_max":732,"o":"m 240 -214 q 440 -158 350 -214 q 596 -6 531 -103 q 697 215 661 90 q 732 479 732 340 q 661 709 732 625 q 467 793 590 793 q 312 761 386 793 q 178 674 238 729 q 85 546 119 618 q 51 393 51 474 q 84 255 51 317 q 175 157 117 193 q 311 121 233 121 q 416 140 365 121 q 510 196 467 160 q 582 279 553 232 q 508 71 556 157 q 398 -61 460 -15 q 265 -107 336 -107 q 149 -68 197 -107 q 85 35 100 -29 l -6 -39 q 85 -167 21 -121 q 240 -214 150 -214 m 343 219 q 253 245 293 219 q 192 315 214 271 q 169 411 169 358 q 193 516 169 467 q 256 604 217 565 q 344 665 296 643 q 443 688 393 688 q 533 662 494 688 q 594 592 572 636 q 617 494 617 549 q 594 390 617 440 q 531 302 571 340 q 443 242 492 264 q 343 219 394 219 z "},"A":{"ha":906,"x_min":-65,"x_max":803,"o":"m 525 986 l 632 986 l 803 0 l 669 0 l 622 289 l 236 289 l 68 0 l -65 0 l 525 986 m 617 386 l 549 842 l 281 386 l 617 386 z "},"Á":{"ha":906,"x_min":-65,"x_max":803,"o":"m 525 986 l 632 986 l 803 0 l 669 0 l 622 289 l 236 289 l 68 0 l -65 0 l 525 986 m 617 386 l 549 842 l 281 386 l 617 386 m 638 1107 l 563 1135 l 668 1275 l 789 1275 l 638 1107 z "},"Ă":{"ha":906,"x_min":-65,"x_max":803,"o":"m 525 986 l 632 986 l 803 0 l 669 0 l 622 289 l 236 289 l 68 0 l -65 0 l 525 986 m 617 386 l 549 842 l 281 386 l 617 386 m 622 1181 q 678 1208 650 1181 q 718 1275 706 1235 l 788 1275 q 752 1197 779 1232 q 688 1141 725 1161 q 610 1121 651 1121 q 524 1154 556 1121 q 492 1239 492 1188 q 493 1257 492 1249 q 496 1275 494 1265 l 567 1275 q 565 1264 565 1269 q 564 1251 564 1258 q 580 1201 564 1222 q 622 1181 596 1181 z "},"Ắ":{"ha":906,"x_min":-65,"x_max":819,"o":"m 525 986 l 632 986 l 803 0 l 669 0 l 622 289 l 236 289 l 68 0 l -65 0 l 525 986 m 617 386 l 549 842 l 281 386 l 617 386 z "},"Ặ":{"ha":906,"x_min":-65,"x_max":803,"o":"m 525 986 l 632 986 l 803 0 l 669 0 l 622 289 l 236 289 l 68 0 l -65 0 l 525 986 m 617 386 l 549 842 l 281 386 l 617 386 m 268 -253 l 300 -106 l 410 -106 l 379 -253 l 268 -253 m 622 1181 q 678 1208 650 1181 q 718 1275 706 1235 l 788 1275 q 752 1197 779 1232 q 688 1141 725 1161 q 610 1121 651 1121 q 524 1154 556 1121 q 492 1239 492 1188 q 493 1257 492 1249 q 496 1275 494 1265 l 567 1275 q 565 1264 565 1269 q 564 1251 564 1258 q 580 1201 564 1222 q 622 1181 596 1181 z "},"Ằ":{"ha":906,"x_min":-65,"x_max":806,"o":"m 525 986 l 632 986 l 803 0 l 669 0 l 622 289 l 236 289 l 68 0 l -65 0 l 525 986 m 617 386 l 549 842 l 281 386 l 617 386 z "},"Ẳ":{"ha":906,"x_min":-65,"x_max":803,"o":"m 525 986 l 632 986 l 803 0 l 669 0 l 622 289 l 236 289 l 68 0 l -65 0 l 525 986 m 617 386 l 549 842 l 281 386 l 617 386 z "},"Ẵ":{"ha":906,"x_min":-65,"x_max":889,"o":"m 525 986 l 632 986 l 803 0 l 669 0 l 622 289 l 236 289 l 68 0 l -65 0 l 525 986 m 617 386 l 549 842 l 281 386 l 617 386 z "},"Â":{"ha":906,"x_min":-65,"x_max":803,"o":"m 525 986 l 632 986 l 803 0 l 669 0 l 622 289 l 236 289 l 68 0 l -65 0 l 525 986 m 617 386 l 549 842 l 281 386 l 617 386 m 439 1150 l 600 1275 l 689 1275 l 796 1150 l 722 1117 l 629 1204 l 499 1117 l 439 1150 z "},"Ấ":{"ha":906,"x_min":-65,"x_max":992,"o":"m 525 986 l 632 986 l 803 0 l 669 0 l 622 289 l 236 289 l 68 0 l -65 0 l 525 986 m 617 386 l 549 842 l 281 386 l 617 386 z "},"Ậ":{"ha":906,"x_min":-65,"x_max":803,"o":"m 525 986 l 632 986 l 803 0 l 669 0 l 622 289 l 236 289 l 68 0 l -65 0 l 525 986 m 617 386 l 549 842 l 281 386 l 617 386 m 268 -253 l 300 -106 l 410 -106 l 379 -253 l 268 -253 m 439 1150 l 600 1275 l 689 1275 l 796 1150 l 722 1117 l 629 1204 l 499 1117 l 439 1150 z "},"Ầ":{"ha":906,"x_min":-65,"x_max":803,"o":"m 525 986 l 632 986 l 803 0 l 669 0 l 622 289 l 236 289 l 68 0 l -65 0 l 525 986 m 617 386 l 549 842 l 281 386 l 617 386 z "},"Ẩ":{"ha":906,"x_min":-65,"x_max":894,"o":"m 525 986 l 632 986 l 803 0 l 669 0 l 622 289 l 236 289 l 68 0 l -65 0 l 525 986 m 617 386 l 549 842 l 281 386 l 617 386 z "},"Ẫ":{"ha":906,"x_min":-65,"x_max":885,"o":"m 525 986 l 632 986 l 803 0 l 669 0 l 622 289 l 236 289 l 68 0 l -65 0 l 525 986 m 617 386 l 549 842 l 281 386 l 617 386 z "},"Ȁ":{"ha":906,"x_min":-65,"x_max":803,"o":"m 525 986 l 632 986 l 803 0 l 669 0 l 622 289 l 236 289 l 68 0 l -65 0 l 525 986 m 617 386 l 549 842 l 281 386 l 617 386 m 588 1276 l 690 1276 l 732 1136 l 663 1108 l 588 1276 m 404 1276 l 508 1276 l 549 1136 l 479 1108 l 404 1276 z "},"Ä":{"ha":906,"x_min":-65,"x_max":803,"o":"m 525 986 l 632 986 l 803 0 l 669 0 l 622 289 l 236 289 l 68 0 l -65 0 l 525 986 m 617 386 l 549 842 l 281 386 l 617 386 m 453 1128 l 483 1269 l 586 1269 l 556 1128 l 453 1128 m 671 1128 l 701 1269 l 803 1269 l 774 1128 l 671 1128 z "},"Ạ":{"ha":906,"x_min":-65,"x_max":803,"o":"m 525 986 l 632 986 l 803 0 l 669 0 l 622 289 l 236 289 l 68 0 l -65 0 l 525 986 m 617 386 l 549 842 l 281 386 l 617 386 m 268 -253 l 300 -106 l 410 -106 l 379 -253 l 268 -253 z "},"À":{"ha":906,"x_min":-65,"x_max":803,"o":"m 525 986 l 632 986 l 803 0 l 669 0 l 622 289 l 236 289 l 68 0 l -65 0 l 525 986 m 617 386 l 549 842 l 281 386 l 617 386 m 456 1275 l 575 1275 l 622 1135 l 538 1107 l 456 1275 z "},"Ả":{"ha":906,"x_min":-65,"x_max":803,"o":"m 525 986 l 632 986 l 803 0 l 669 0 l 622 289 l 236 289 l 68 0 l -65 0 l 525 986 m 617 386 l 549 842 l 281 386 l 617 386 m 551 1228 l 524 1274 q 593 1310 558 1297 q 664 1324 628 1324 q 726 1295 714 1324 q 726 1232 739 1267 q 686 1174 717 1204 q 601 1110 656 1143 l 582 1150 q 630 1188 615 1172 q 650 1221 644 1204 q 651 1247 657 1236 q 628 1258 644 1258 q 594 1252 610 1258 q 551 1228 579 1246 z "},"Ȃ":{"ha":906,"x_min":-65,"x_max":803,"o":"m 525 986 l 632 986 l 803 0 l 669 0 l 622 289 l 236 289 l 68 0 l -65 0 l 525 986 m 617 386 l 549 842 l 281 386 l 617 386 m 461 1121 q 497 1200 471 1165 q 560 1255 524 1235 q 638 1275 597 1275 q 723 1240 690 1275 q 756 1154 756 1204 q 755 1138 756 1146 q 751 1121 754 1129 l 683 1121 q 685 1139 685 1131 q 686 1156 686 1147 q 629 1215 686 1215 q 563 1188 586 1215 q 531 1121 540 1161 l 461 1121 z "},"Ā":{"ha":906,"x_min":-65,"x_max":831,"o":"m 525 986 l 632 986 l 803 0 l 669 0 l 622 289 l 236 289 l 68 0 l -65 0 l 525 986 m 617 386 l 549 842 l 281 386 l 617 386 m 426 1167 l 443 1247 l 831 1247 l 813 1167 l 426 1167 z "},"Ą":{"ha":906,"x_min":-65,"x_max":803,"o":"m 525 986 l 632 986 l 803 0 l 669 0 l 622 289 l 236 289 l 68 0 l -65 0 l 525 986 m 617 386 l 549 842 l 281 386 l 617 386 m 613 -171 q 648 -74 613 -121 q 757 25 683 -26 l 792 25 l 803 0 q 719 -83 746 -50 q 693 -143 693 -115 q 710 -173 693 -164 q 756 -185 726 -182 l 710 -262 q 633 -228 654 -256 q 613 -171 613 -201 z "},"Å":{"ha":906,"x_min":-65,"x_max":803,"o":"m 525 986 l 632 986 l 803 0 l 669 0 l 622 289 l 236 289 l 68 0 l -65 0 l 525 986 m 617 386 l 549 842 l 281 386 l 617 386 m 513 1161 q 551 1244 513 1213 q 644 1275 590 1275 q 711 1254 688 1275 q 735 1197 735 1233 q 697 1115 735 1147 q 603 1083 660 1083 q 537 1105 561 1083 q 513 1161 513 1126 m 635 1232 q 590 1215 610 1232 q 569 1169 569 1197 q 581 1139 569 1151 q 613 1126 593 1126 q 658 1144 636 1126 q 679 1189 679 1163 q 667 1220 679 1208 q 635 1232 654 1232 z "},"Ǻ":{"ha":906,"x_min":-65,"x_max":810,"o":"m 658 1139 l 583 1165 l 689 1299 l 810 1299 l 658 1139 m 525 986 l 632 986 l 803 0 l 669 0 l 622 289 l 236 289 l 68 0 l -65 0 l 525 986 m 617 386 l 549 842 l 281 386 l 617 386 m 485 1057 q 524 1140 485 1108 q 617 1171 563 1171 q 683 1150 660 1171 q 707 1093 707 1129 q 669 1011 707 1043 q 575 979 632 979 q 509 1001 533 979 q 485 1057 485 1022 m 607 1128 q 562 1110 582 1128 q 542 1065 542 1093 q 553 1035 542 1047 q 585 1022 565 1022 q 630 1040 608 1022 q 651 1085 651 1058 q 639 1116 651 1104 q 607 1128 626 1128 z "},"Ã":{"ha":906,"x_min":-65,"x_max":868,"o":"m 525 986 l 632 986 l 803 0 l 669 0 l 622 289 l 236 289 l 68 0 l -65 0 l 525 986 m 617 386 l 549 842 l 281 386 l 617 386 m 696 1132 q 632 1147 657 1132 q 587 1176 607 1161 q 538 1190 567 1190 q 491 1175 508 1190 q 467 1143 474 1160 q 460 1124 460 1126 l 388 1124 q 401 1155 390 1132 q 432 1203 411 1178 q 483 1248 453 1229 q 551 1267 513 1267 q 599 1258 579 1267 q 634 1237 618 1249 q 667 1216 650 1225 q 708 1207 685 1207 q 761 1223 742 1207 q 789 1256 781 1239 q 797 1275 797 1272 l 868 1275 q 856 1244 867 1267 q 823 1196 844 1222 q 770 1151 801 1169 q 696 1132 739 1132 z "},"Æ":{"ha":1283,"x_min":-111,"x_max":1342,"o":"m 694 986 l 1342 986 l 1318 875 l 828 875 l 761 558 l 1179 558 l 1156 447 l 738 447 l 665 111 l 1167 111 l 1143 0 l 518 0 l 581 289 l 254 289 l 25 0 l -111 0 l 694 986 m 594 400 l 689 840 l 333 400 l 594 400 z "},"Ǽ":{"ha":1283,"x_min":-111,"x_max":1342,"o":"m 694 986 l 1342 986 l 1318 875 l 828 875 l 761 558 l 1179 558 l 1156 447 l 738 447 l 665 111 l 1167 111 l 1143 0 l 518 0 l 581 289 l 254 289 l 25 0 l -111 0 l 694 986 m 594 400 l 689 840 l 333 400 l 594 400 m 899 1104 l 824 1132 l 929 1272 l 1050 1272 l 899 1104 z "},"B":{"ha":899,"x_min":28,"x_max":874,"o":"m 238 986 l 707 986 q 799 957 763 986 q 855 882 836 928 q 874 785 874 836 q 850 672 874 726 q 783 574 826 617 q 683 506 740 531 q 778 431 744 485 q 811 307 811 378 q 783 182 811 239 q 707 85 756 125 q 599 22 658 44 q 474 0 539 0 l 28 0 l 238 986 m 496 108 q 567 125 532 108 q 628 170 601 142 q 672 235 656 199 q 688 311 688 272 q 674 379 688 349 q 637 428 661 410 q 578 447 613 447 l 247 447 l 176 108 l 496 108 m 563 549 q 630 565 597 549 q 688 608 663 581 q 728 672 714 636 q 743 749 743 708 q 716 841 743 804 q 640 878 689 878 l 339 878 l 269 549 l 563 549 z "},"C":{"ha":907,"x_min":63,"x_max":931,"o":"m 419 -8 q 264 26 331 -8 q 152 119 197 61 q 85 251 107 178 q 63 401 63 325 q 88 569 63 485 q 160 729 113 653 q 276 865 208 806 q 428 958 343 924 q 614 992 514 992 q 828 930 750 992 q 931 776 906 868 l 826 717 q 773 817 808 782 q 692 866 738 853 q 597 879 647 879 q 417 837 493 879 q 290 726 340 794 q 214 576 239 657 q 189 417 189 494 q 218 260 189 332 q 304 147 247 189 q 442 104 361 104 q 545 123 492 104 q 649 180 599 142 q 738 278 699 218 l 829 221 q 711 92 781 143 q 566 16 642 40 q 419 -8 490 -8 z "},"Ć":{"ha":907,"x_min":63,"x_max":931,"o":"m 419 -8 q 264 26 331 -8 q 152 119 197 61 q 85 251 107 178 q 63 401 63 325 q 88 569 63 485 q 160 729 113 653 q 276 865 208 806 q 428 958 343 924 q 614 992 514 992 q 828 930 750 992 q 931 776 906 868 l 826 717 q 773 817 808 782 q 692 866 738 853 q 597 879 647 879 q 417 837 493 879 q 290 726 340 794 q 214 576 239 657 q 189 417 189 494 q 218 260 189 332 q 304 147 247 189 q 442 104 361 104 q 545 123 492 104 q 649 180 599 142 q 738 278 699 218 l 829 221 q 711 92 781 143 q 566 16 642 40 q 419 -8 490 -8 m 642 1107 l 567 1135 l 672 1275 l 793 1275 l 642 1107 z "},"Č":{"ha":907,"x_min":63,"x_max":931,"o":"m 419 -8 q 264 26 331 -8 q 152 119 197 61 q 85 251 107 178 q 63 401 63 325 q 88 569 63 485 q 160 729 113 653 q 276 865 208 806 q 428 958 343 924 q 614 992 514 992 q 828 930 750 992 q 931 776 906 868 l 826 717 q 773 817 808 782 q 692 866 738 853 q 597 879 647 879 q 417 837 493 879 q 290 726 340 794 q 214 576 239 657 q 189 417 189 494 q 218 260 189 332 q 304 147 247 189 q 442 104 361 104 q 545 123 492 104 q 649 180 599 142 q 738 278 699 218 l 829 221 q 711 92 781 143 q 566 16 642 40 q 419 -8 490 -8 m 453 1242 l 526 1275 l 619 1188 l 750 1275 l 810 1242 l 649 1117 l 560 1117 l 453 1242 z "},"Ç":{"ha":907,"x_min":63,"x_max":931,"o":"m 419 -8 q 264 26 331 -8 q 152 119 197 61 q 85 251 107 178 q 63 401 63 325 q 88 569 63 485 q 160 729 113 653 q 276 865 208 806 q 428 958 343 924 q 614 992 514 992 q 828 930 750 992 q 931 776 906 868 l 826 717 q 773 817 808 782 q 692 866 738 853 q 597 879 647 879 q 417 837 493 879 q 290 726 340 794 q 214 576 239 657 q 189 417 189 494 q 218 260 189 332 q 304 147 247 189 q 442 104 361 104 q 545 123 492 104 q 649 180 599 142 q 738 278 699 218 l 829 221 q 711 92 781 143 q 566 16 642 40 q 419 -8 490 -8 m 303 -258 q 236 -249 271 -258 q 171 -219 201 -239 l 219 -151 q 258 -174 239 -165 q 301 -182 276 -182 q 370 -160 344 -182 q 396 -96 396 -137 q 382 -45 396 -68 q 342 0 368 -22 l 390 32 q 445 -29 424 4 q 467 -106 467 -62 q 447 -185 467 -151 q 390 -239 426 -219 q 303 -258 353 -258 z "},"Ḉ":{"ha":907,"x_min":63,"x_max":931,"o":"m 419 -8 q 264 26 331 -8 q 152 119 197 61 q 85 251 107 178 q 63 401 63 325 q 88 569 63 485 q 160 729 113 653 q 276 865 208 806 q 428 958 343 924 q 614 992 514 992 q 828 930 750 992 q 931 776 906 868 l 826 717 q 773 817 808 782 q 692 866 738 853 q 597 879 647 879 q 417 837 493 879 q 290 726 340 794 q 214 576 239 657 q 189 417 189 494 q 218 260 189 332 q 304 147 247 189 q 442 104 361 104 q 545 123 492 104 q 649 180 599 142 q 738 278 699 218 l 829 221 q 711 92 781 143 q 566 16 642 40 q 419 -8 490 -8 m 303 -258 q 236 -249 271 -258 q 171 -219 201 -239 l 219 -151 q 258 -174 239 -165 q 301 -182 276 -182 q 370 -160 344 -182 q 396 -96 396 -137 q 382 -45 396 -68 q 342 0 368 -22 l 390 32 q 445 -29 424 4 q 467 -106 467 -62 q 447 -185 467 -151 q 390 -239 426 -219 q 303 -258 353 -258 m 642 1107 l 567 1135 l 672 1275 l 793 1275 l 642 1107 z "},"Ĉ":{"ha":907,"x_min":63,"x_max":931,"o":"m 419 -8 q 264 26 331 -8 q 152 119 197 61 q 85 251 107 178 q 63 401 63 325 q 88 569 63 485 q 160 729 113 653 q 276 865 208 806 q 428 958 343 924 q 614 992 514 992 q 828 930 750 992 q 931 776 906 868 l 826 717 q 773 817 808 782 q 692 866 738 853 q 597 879 647 879 q 417 837 493 879 q 290 726 340 794 q 214 576 239 657 q 189 417 189 494 q 218 260 189 332 q 304 147 247 189 q 442 104 361 104 q 545 123 492 104 q 649 180 599 142 q 738 278 699 218 l 829 221 q 711 92 781 143 q 566 16 642 40 q 419 -8 490 -8 m 443 1150 l 604 1275 l 693 1275 l 800 1150 l 726 1117 l 633 1204 l 503 1117 l 443 1150 z "},"Ċ":{"ha":907,"x_min":63,"x_max":931,"o":"m 419 -8 q 264 26 331 -8 q 152 119 197 61 q 85 251 107 178 q 63 401 63 325 q 88 569 63 485 q 160 729 113 653 q 276 865 208 806 q 428 958 343 924 q 614 992 514 992 q 828 930 750 992 q 931 776 906 868 l 826 717 q 773 817 808 782 q 692 866 738 853 q 597 879 647 879 q 417 837 493 879 q 290 726 340 794 q 214 576 239 657 q 189 417 189 494 q 218 260 189 332 q 304 147 247 189 q 442 104 361 104 q 545 123 492 104 q 649 180 599 142 q 738 278 699 218 l 829 221 q 711 92 781 143 q 566 16 642 40 q 419 -8 490 -8 m 561 1128 l 593 1275 l 703 1275 l 672 1128 l 561 1128 z "},"D":{"ha":961,"x_min":28,"x_max":928,"o":"m 238 986 l 564 986 q 769 935 689 986 q 889 799 850 885 q 928 607 928 714 q 885 365 928 476 q 765 172 842 254 q 583 45 688 90 q 354 0 478 0 l 28 0 l 238 986 m 378 111 q 553 150 475 111 q 685 256 631 189 q 769 408 740 322 q 799 588 799 493 q 769 737 799 672 q 683 838 740 801 q 540 875 626 875 l 339 875 l 176 111 l 378 111 z "},"Ð":{"ha":971,"x_min":38,"x_max":938,"o":"m 79 543 l 488 543 l 468 449 l 58 449 l 79 543 m 247 986 l 574 986 q 779 935 699 986 q 899 799 860 885 q 938 607 938 714 q 894 365 938 476 q 774 172 851 254 q 592 45 697 90 q 364 0 488 0 l 38 0 l 247 986 m 388 111 q 563 150 485 111 q 695 256 640 189 q 779 408 750 322 q 808 588 808 493 q 779 737 808 672 q 693 838 750 801 q 550 875 636 875 l 349 875 l 186 111 l 388 111 z "},"Ď":{"ha":961,"x_min":28,"x_max":928,"o":"m 238 986 l 564 986 q 769 935 689 986 q 889 799 850 885 q 928 607 928 714 q 885 365 928 476 q 765 172 842 254 q 583 45 688 90 q 354 0 478 0 l 28 0 l 238 986 m 378 111 q 553 150 475 111 q 685 256 631 189 q 769 408 740 322 q 799 588 799 493 q 769 737 799 672 q 683 838 740 801 q 540 875 626 875 l 339 875 l 176 111 l 378 111 m 410 1239 l 483 1272 l 576 1185 l 707 1272 l 767 1239 l 606 1114 l 517 1114 l 410 1239 z "},"Đ":{"ha":971,"x_min":38,"x_max":938,"o":"m 79 543 l 488 543 l 468 449 l 58 449 l 79 543 m 247 986 l 574 986 q 779 935 699 986 q 899 799 860 885 q 938 607 938 714 q 894 365 938 476 q 774 172 851 254 q 592 45 697 90 q 364 0 488 0 l 38 0 l 247 986 m 388 111 q 563 150 485 111 q 695 256 640 189 q 779 408 750 322 q 808 588 808 493 q 779 737 808 672 q 693 838 750 801 q 550 875 636 875 l 349 875 l 186 111 l 388 111 z "},"Ḍ":{"ha":961,"x_min":28,"x_max":928,"o":"m 238 986 l 564 986 q 769 935 689 986 q 889 799 850 885 q 928 607 928 714 q 885 365 928 476 q 765 172 842 254 q 583 45 688 90 q 354 0 478 0 l 28 0 l 238 986 m 378 111 q 553 150 475 111 q 685 256 631 189 q 769 408 740 322 q 799 588 799 493 q 769 737 799 672 q 683 838 740 801 q 540 875 626 875 l 339 875 l 176 111 l 378 111 m 226 -253 l 258 -106 l 368 -106 l 338 -253 l 226 -253 z "},"Ḏ":{"ha":961,"x_min":28,"x_max":928,"o":"m 238 986 l 564 986 q 769 935 689 986 q 889 799 850 885 q 928 607 928 714 q 885 365 928 476 q 765 172 842 254 q 583 45 688 90 q 354 0 478 0 l 28 0 l 238 986 m 378 111 q 553 150 475 111 q 685 256 631 189 q 769 408 740 322 q 799 588 799 493 q 769 737 799 672 q 683 838 740 801 q 540 875 626 875 l 339 875 l 176 111 l 378 111 m 104 -199 l 124 -118 l 492 -118 l 472 -199 l 104 -199 z "},"E":{"ha":806,"x_min":28,"x_max":863,"o":"m 238 986 l 863 986 l 839 875 l 339 875 l 271 556 l 706 556 l 683 451 l 249 451 l 176 111 l 689 111 l 665 0 l 28 0 l 238 986 z "},"É":{"ha":806,"x_min":28,"x_max":863,"o":"m 238 986 l 863 986 l 839 875 l 339 875 l 271 556 l 706 556 l 683 451 l 249 451 l 176 111 l 689 111 l 665 0 l 28 0 l 238 986 m 590 1107 l 515 1135 l 621 1275 l 742 1275 l 590 1107 z "},"Ĕ":{"ha":806,"x_min":28,"x_max":863,"o":"m 238 986 l 863 986 l 839 875 l 339 875 l 271 556 l 706 556 l 683 451 l 249 451 l 176 111 l 689 111 l 665 0 l 28 0 l 238 986 m 575 1181 q 631 1208 603 1181 q 671 1275 658 1235 l 740 1275 q 705 1197 732 1232 q 641 1141 678 1161 q 563 1121 604 1121 q 476 1154 508 1121 q 444 1239 444 1188 q 446 1257 444 1249 q 449 1275 447 1265 l 519 1275 q 517 1264 518 1269 q 517 1251 517 1258 q 533 1201 517 1222 q 575 1181 549 1181 z "},"Ě":{"ha":806,"x_min":28,"x_max":863,"o":"m 238 986 l 863 986 l 839 875 l 339 875 l 271 556 l 706 556 l 683 451 l 249 451 l 176 111 l 689 111 l 665 0 l 28 0 l 238 986 m 401 1242 l 475 1275 l 568 1188 l 699 1275 l 758 1242 l 597 1117 l 508 1117 l 401 1242 z "},"Ḝ":{"ha":806,"x_min":28,"x_max":863,"o":"m 238 986 l 863 986 l 839 875 l 339 875 l 271 556 l 706 556 l 683 451 l 249 451 l 176 111 l 689 111 l 665 0 l 28 0 l 238 986 m 251 -258 q 185 -249 219 -258 q 119 -219 150 -239 l 168 -151 q 206 -174 188 -165 q 250 -182 225 -182 q 319 -160 293 -182 q 344 -96 344 -137 q 331 -45 344 -68 q 290 0 317 -22 l 339 32 q 394 -29 372 4 q 415 -106 415 -62 q 395 -185 415 -151 q 338 -239 375 -219 q 251 -258 301 -258 m 575 1181 q 631 1208 603 1181 q 671 1275 658 1235 l 740 1275 q 705 1197 732 1232 q 641 1141 678 1161 q 563 1121 604 1121 q 476 1154 508 1121 q 444 1239 444 1188 q 446 1257 444 1249 q 449 1275 447 1265 l 519 1275 q 517 1264 518 1269 q 517 1251 517 1258 q 533 1201 517 1222 q 575 1181 549 1181 z "},"Ê":{"ha":806,"x_min":28,"x_max":863,"o":"m 238 986 l 863 986 l 839 875 l 339 875 l 271 556 l 706 556 l 683 451 l 249 451 l 176 111 l 689 111 l 665 0 l 28 0 l 238 986 m 392 1150 l 553 1275 l 642 1275 l 749 1150 l 675 1117 l 582 1204 l 451 1117 l 392 1150 z "},"Ế":{"ha":806,"x_min":28,"x_max":944,"o":"m 238 986 l 863 986 l 839 875 l 339 875 l 271 556 l 706 556 l 683 451 l 249 451 l 176 111 l 689 111 l 665 0 l 28 0 l 238 986 z "},"Ệ":{"ha":806,"x_min":28,"x_max":863,"o":"m 238 986 l 863 986 l 839 875 l 339 875 l 271 556 l 706 556 l 683 451 l 249 451 l 176 111 l 689 111 l 665 0 l 28 0 l 238 986 m 218 -253 l 250 -106 l 360 -106 l 329 -253 l 218 -253 m 392 1150 l 553 1275 l 642 1275 l 749 1150 l 675 1117 l 582 1204 l 451 1117 l 392 1150 z "},"Ề":{"ha":806,"x_min":28,"x_max":863,"o":"m 238 986 l 863 986 l 839 875 l 339 875 l 271 556 l 706 556 l 683 451 l 249 451 l 176 111 l 689 111 l 665 0 l 28 0 l 238 986 z "},"Ể":{"ha":806,"x_min":28,"x_max":863,"o":"m 238 986 l 863 986 l 839 875 l 339 875 l 271 556 l 706 556 l 683 451 l 249 451 l 176 111 l 689 111 l 665 0 l 28 0 l 238 986 z "},"Ễ":{"ha":806,"x_min":28,"x_max":863,"o":"m 238 986 l 863 986 l 839 875 l 339 875 l 271 556 l 706 556 l 683 451 l 249 451 l 176 111 l 689 111 l 665 0 l 28 0 l 238 986 z "},"Ȅ":{"ha":806,"x_min":28,"x_max":863,"o":"m 238 986 l 863 986 l 839 875 l 339 875 l 271 556 l 706 556 l 683 451 l 249 451 l 176 111 l 689 111 l 665 0 l 28 0 l 238 986 m 540 1276 l 643 1276 l 685 1136 l 615 1108 l 540 1276 m 357 1276 l 461 1276 l 501 1136 l 432 1108 l 357 1276 z "},"Ë":{"ha":806,"x_min":28,"x_max":863,"o":"m 238 986 l 863 986 l 839 875 l 339 875 l 271 556 l 706 556 l 683 451 l 249 451 l 176 111 l 689 111 l 665 0 l 28 0 l 238 986 m 406 1128 l 436 1269 l 539 1269 l 508 1128 l 406 1128 m 624 1128 l 654 1269 l 756 1269 l 726 1128 l 624 1128 z "},"Ė":{"ha":806,"x_min":28,"x_max":863,"o":"m 238 986 l 863 986 l 839 875 l 339 875 l 271 556 l 706 556 l 683 451 l 249 451 l 176 111 l 689 111 l 665 0 l 28 0 l 238 986 m 510 1128 l 542 1275 l 651 1275 l 621 1128 l 510 1128 z "},"Ẹ":{"ha":806,"x_min":28,"x_max":863,"o":"m 238 986 l 863 986 l 839 875 l 339 875 l 271 556 l 706 556 l 683 451 l 249 451 l 176 111 l 689 111 l 665 0 l 28 0 l 238 986 m 218 -253 l 250 -106 l 360 -106 l 329 -253 l 218 -253 z "},"È":{"ha":806,"x_min":28,"x_max":863,"o":"m 238 986 l 863 986 l 839 875 l 339 875 l 271 556 l 706 556 l 683 451 l 249 451 l 176 111 l 689 111 l 665 0 l 28 0 l 238 986 m 408 1275 l 528 1275 l 575 1135 l 490 1107 l 408 1275 z "},"Ẻ":{"ha":806,"x_min":28,"x_max":863,"o":"m 238 986 l 863 986 l 839 875 l 339 875 l 271 556 l 706 556 l 683 451 l 249 451 l 176 111 l 689 111 l 665 0 l 28 0 l 238 986 m 504 1228 l 476 1274 q 546 1310 511 1297 q 617 1324 581 1324 q 679 1295 667 1324 q 679 1232 692 1267 q 639 1174 669 1204 q 554 1110 608 1143 l 535 1150 q 583 1188 568 1172 q 603 1221 597 1204 q 603 1247 610 1236 q 581 1258 597 1258 q 547 1252 563 1258 q 504 1228 532 1246 z "},"Ȇ":{"ha":806,"x_min":28,"x_max":863,"o":"m 238 986 l 863 986 l 839 875 l 339 875 l 271 556 l 706 556 l 683 451 l 249 451 l 176 111 l 689 111 l 665 0 l 28 0 l 238 986 m 414 1121 q 450 1200 424 1165 q 513 1255 476 1235 q 590 1275 550 1275 q 676 1240 643 1275 q 708 1154 708 1204 q 708 1138 708 1146 q 704 1121 707 1129 l 636 1121 q 638 1139 638 1131 q 639 1156 639 1147 q 582 1215 639 1215 q 516 1188 539 1215 q 483 1121 493 1161 l 414 1121 z "},"Ē":{"ha":806,"x_min":28,"x_max":863,"o":"m 238 986 l 863 986 l 839 875 l 339 875 l 271 556 l 706 556 l 683 451 l 249 451 l 176 111 l 689 111 l 665 0 l 28 0 l 238 986 m 379 1167 l 396 1247 l 783 1247 l 765 1167 l 379 1167 z "},"Ḗ":{"ha":806,"x_min":28,"x_max":863,"o":"m 238 986 l 863 986 l 839 875 l 339 875 l 271 556 l 706 556 l 683 451 l 249 451 l 176 111 l 689 111 l 665 0 l 28 0 l 238 986 m 379 1167 l 396 1247 l 783 1247 l 765 1167 l 379 1167 m 646 1368 l 571 1396 l 676 1536 l 797 1536 l 646 1368 z "},"Ḕ":{"ha":806,"x_min":28,"x_max":863,"o":"m 238 986 l 863 986 l 839 875 l 339 875 l 271 556 l 706 556 l 683 451 l 249 451 l 176 111 l 689 111 l 665 0 l 28 0 l 238 986 m 379 1167 l 396 1247 l 783 1247 l 765 1167 l 379 1167 m 464 1536 l 583 1536 l 631 1396 l 546 1368 l 464 1536 z "},"Ę":{"ha":806,"x_min":28,"x_max":863,"o":"m 238 986 l 863 986 l 839 875 l 339 875 l 271 556 l 706 556 l 683 451 l 249 451 l 176 111 l 689 111 l 665 0 l 28 0 l 238 986 m 475 -171 q 510 -74 475 -121 q 619 25 546 -26 l 654 25 l 665 0 q 582 -83 608 -50 q 556 -143 556 -115 q 572 -173 556 -164 q 618 -185 589 -182 l 572 -262 q 496 -228 517 -256 q 475 -171 475 -201 z "},"Ẽ":{"ha":806,"x_min":28,"x_max":863,"o":"m 238 986 l 863 986 l 839 875 l 339 875 l 271 556 l 706 556 l 683 451 l 249 451 l 176 111 l 689 111 l 665 0 l 28 0 l 238 986 m 649 1132 q 585 1147 610 1132 q 540 1176 560 1161 q 490 1190 519 1190 q 444 1175 461 1190 q 419 1143 426 1160 q 413 1124 413 1126 l 340 1124 q 353 1155 343 1132 q 385 1203 364 1178 q 435 1248 406 1229 q 504 1267 465 1267 q 551 1258 532 1267 q 587 1237 571 1249 q 620 1216 603 1225 q 661 1207 638 1207 q 714 1223 694 1207 q 742 1256 733 1239 q 750 1275 750 1272 l 821 1275 q 808 1244 819 1267 q 776 1196 797 1222 q 723 1151 754 1169 q 649 1132 692 1132 z "},"F":{"ha":785,"x_min":28,"x_max":857,"o":"m 238 986 l 857 986 l 833 875 l 339 875 l 269 546 l 685 546 l 663 442 l 247 442 l 153 0 l 28 0 l 238 986 z "},"G":{"ha":953,"x_min":63,"x_max":932,"o":"m 406 -7 q 263 27 326 -7 q 154 119 199 61 q 86 251 110 176 q 63 406 63 325 q 108 623 63 518 q 233 812 154 728 q 410 944 311 896 q 618 993 510 993 q 830 933 754 993 q 932 778 906 874 l 822 711 q 739 839 800 797 q 592 881 678 881 q 437 840 510 881 q 308 733 364 800 q 221 582 253 665 q 189 413 189 499 q 219 258 189 328 q 306 147 250 189 q 439 106 363 106 q 599 149 518 106 q 763 281 679 192 l 736 151 q 574 32 656 71 q 406 -7 492 -7 m 774 397 l 572 397 l 593 492 l 899 492 l 794 0 l 689 0 l 774 397 z "},"Ğ":{"ha":953,"x_min":63,"x_max":932,"o":"m 406 -7 q 263 27 326 -7 q 154 119 199 61 q 86 251 110 176 q 63 406 63 325 q 108 623 63 518 q 233 812 154 728 q 410 944 311 896 q 618 993 510 993 q 830 933 754 993 q 932 778 906 874 l 822 711 q 739 839 800 797 q 592 881 678 881 q 437 840 510 881 q 308 733 364 800 q 221 582 253 665 q 189 413 189 499 q 219 258 189 328 q 306 147 250 189 q 439 106 363 106 q 599 149 518 106 q 763 281 679 192 l 736 151 q 574 32 656 71 q 406 -7 492 -7 m 774 397 l 572 397 l 593 492 l 899 492 l 794 0 l 689 0 l 774 397 m 661 1178 q 717 1205 689 1178 q 757 1272 744 1232 l 826 1272 q 791 1194 818 1229 q 727 1138 764 1158 q 649 1118 690 1118 q 563 1151 594 1118 q 531 1236 531 1185 q 532 1254 531 1246 q 535 1272 533 1263 l 606 1272 q 603 1261 604 1267 q 603 1249 603 1256 q 619 1199 603 1219 q 661 1178 635 1178 z "},"Ǧ":{"ha":953,"x_min":63,"x_max":932,"o":"m 406 -7 q 263 27 326 -7 q 154 119 199 61 q 86 251 110 176 q 63 406 63 325 q 108 623 63 518 q 233 812 154 728 q 410 944 311 896 q 618 993 510 993 q 830 933 754 993 q 932 778 906 874 l 822 711 q 739 839 800 797 q 592 881 678 881 q 437 840 510 881 q 308 733 364 800 q 221 582 253 665 q 189 413 189 499 q 219 258 189 328 q 306 147 250 189 q 439 106 363 106 q 599 149 518 106 q 763 281 679 192 l 736 151 q 574 32 656 71 q 406 -7 492 -7 m 774 397 l 572 397 l 593 492 l 899 492 l 794 0 l 689 0 l 774 397 m 488 1239 l 561 1272 l 654 1185 l 785 1272 l 844 1239 l 683 1114 l 594 1114 l 488 1239 z "},"Ĝ":{"ha":953,"x_min":63,"x_max":932,"o":"m 406 -7 q 263 27 326 -7 q 154 119 199 61 q 86 251 110 176 q 63 406 63 325 q 108 623 63 518 q 233 812 154 728 q 410 944 311 896 q 618 993 510 993 q 830 933 754 993 q 932 778 906 874 l 822 711 q 739 839 800 797 q 592 881 678 881 q 437 840 510 881 q 308 733 364 800 q 221 582 253 665 q 189 413 189 499 q 219 258 189 328 q 306 147 250 189 q 439 106 363 106 q 599 149 518 106 q 763 281 679 192 l 736 151 q 574 32 656 71 q 406 -7 492 -7 m 774 397 l 572 397 l 593 492 l 899 492 l 794 0 l 689 0 l 774 397 m 478 1147 l 639 1272 l 728 1272 l 835 1147 l 761 1114 l 668 1201 l 538 1114 l 478 1147 z "},"Ģ":{"ha":953,"x_min":63,"x_max":932,"o":"m 406 -7 q 263 27 326 -7 q 154 119 199 61 q 86 251 110 176 q 63 406 63 325 q 108 623 63 518 q 233 812 154 728 q 410 944 311 896 q 618 993 510 993 q 830 933 754 993 q 932 778 906 874 l 822 711 q 739 839 800 797 q 592 881 678 881 q 437 840 510 881 q 308 733 364 800 q 221 582 253 665 q 189 413 189 499 q 219 258 189 328 q 306 147 250 189 q 439 106 363 106 q 599 149 518 106 q 763 281 679 192 l 736 151 q 574 32 656 71 q 406 -7 492 -7 m 774 397 l 572 397 l 593 492 l 899 492 l 794 0 l 689 0 l 774 397 m 331 -296 l 382 -183 l 347 -183 l 372 -67 l 479 -67 l 454 -183 l 390 -296 l 331 -296 z "},"Ġ":{"ha":953,"x_min":63,"x_max":932,"o":"m 406 -7 q 263 27 326 -7 q 154 119 199 61 q 86 251 110 176 q 63 406 63 325 q 108 623 63 518 q 233 812 154 728 q 410 944 311 896 q 618 993 510 993 q 830 933 754 993 q 932 778 906 874 l 822 711 q 739 839 800 797 q 592 881 678 881 q 437 840 510 881 q 308 733 364 800 q 221 582 253 665 q 189 413 189 499 q 219 258 189 328 q 306 147 250 189 q 439 106 363 106 q 599 149 518 106 q 763 281 679 192 l 736 151 q 574 32 656 71 q 406 -7 492 -7 m 774 397 l 572 397 l 593 492 l 899 492 l 794 0 l 689 0 l 774 397 m 596 1125 l 628 1272 l 738 1272 l 707 1125 l 596 1125 z "},"Ḡ":{"ha":953,"x_min":63,"x_max":932,"o":"m 406 -7 q 263 27 326 -7 q 154 119 199 61 q 86 251 110 176 q 63 406 63 325 q 108 623 63 518 q 233 812 154 728 q 410 944 311 896 q 618 993 510 993 q 830 933 754 993 q 932 778 906 874 l 822 711 q 739 839 800 797 q 592 881 678 881 q 437 840 510 881 q 308 733 364 800 q 221 582 253 665 q 189 413 189 499 q 219 258 189 328 q 306 147 250 189 q 439 106 363 106 q 599 149 518 106 q 763 281 679 192 l 736 151 q 574 32 656 71 q 406 -7 492 -7 m 774 397 l 572 397 l 593 492 l 899 492 l 794 0 l 689 0 l 774 397 m 465 1164 l 482 1244 l 869 1244 l 851 1164 l 465 1164 z "},"H":{"ha":990,"x_min":28,"x_max":994,"o":"m 238 986 l 363 986 l 272 560 l 779 560 l 869 986 l 994 986 l 785 0 l 660 0 l 756 449 l 249 449 l 153 0 l 28 0 l 238 986 z "},"Ħ":{"ha":1004,"x_min":36,"x_max":1035,"o":"m 146 826 l 1035 826 l 1021 761 l 132 761 l 146 826 m 246 986 l 371 986 l 281 560 l 788 560 l 878 986 l 1003 986 l 793 0 l 668 0 l 764 449 l 257 449 l 161 0 l 36 0 l 246 986 z "},"Ḫ":{"ha":990,"x_min":28,"x_max":994,"o":"m 238 986 l 363 986 l 272 560 l 779 560 l 869 986 l 994 986 l 785 0 l 660 0 l 756 449 l 249 449 l 153 0 l 28 0 l 238 986 m 364 -231 q 281 -186 308 -231 q 269 -76 253 -142 l 336 -76 q 340 -142 326 -114 q 379 -171 353 -171 q 430 -144 404 -171 q 469 -76 456 -117 l 535 -76 q 497 -155 524 -119 q 436 -210 471 -190 q 364 -231 401 -231 z "},"Ĥ":{"ha":990,"x_min":28,"x_max":994,"o":"m 238 986 l 363 986 l 272 560 l 779 560 l 869 986 l 994 986 l 785 0 l 660 0 l 756 449 l 249 449 l 153 0 l 28 0 l 238 986 m 485 1150 l 646 1275 l 735 1275 l 842 1150 l 768 1117 l 675 1204 l 544 1117 l 485 1150 z "},"Ḥ":{"ha":990,"x_min":28,"x_max":994,"o":"m 238 986 l 363 986 l 272 560 l 779 560 l 869 986 l 994 986 l 785 0 l 660 0 l 756 449 l 249 449 l 153 0 l 28 0 l 238 986 m 311 -253 l 343 -106 l 453 -106 l 422 -253 l 311 -253 z "},"I":{"ha":358,"x_min":28,"x_max":363,"o":"m 238 985 l 363 985 l 153 0 l 28 0 l 238 985 z "},"Í":{"ha":358,"x_min":28,"x_max":507,"o":"m 238 985 l 363 985 l 153 0 l 28 0 l 238 985 m 356 1107 l 281 1135 l 386 1275 l 507 1275 l 356 1107 z "},"Ĭ":{"ha":358,"x_min":28,"x_max":506,"o":"m 238 985 l 363 985 l 153 0 l 28 0 l 238 985 m 340 1181 q 396 1208 368 1181 q 436 1275 424 1235 l 506 1275 q 470 1197 497 1232 q 406 1141 443 1161 q 328 1121 369 1121 q 242 1154 274 1121 q 210 1239 210 1188 q 211 1257 210 1249 q 214 1275 213 1265 l 285 1275 q 283 1264 283 1269 q 282 1251 282 1258 q 298 1201 282 1222 q 340 1181 314 1181 z "},"Î":{"ha":358,"x_min":28,"x_max":514,"o":"m 238 985 l 363 985 l 153 0 l 28 0 l 238 985 m 157 1150 l 318 1275 l 407 1275 l 514 1150 l 440 1117 l 347 1204 l 217 1117 l 157 1150 z "},"Ȉ":{"ha":358,"x_min":28,"x_max":450,"o":"m 238 985 l 363 985 l 153 0 l 28 0 l 238 985 m 306 1276 l 408 1276 l 450 1136 l 381 1108 l 306 1276 m 122 1276 l 226 1276 l 267 1136 l 197 1108 l 122 1276 z "},"Ï":{"ha":358,"x_min":28,"x_max":521,"o":"m 238 985 l 363 985 l 153 0 l 28 0 l 238 985 m 171 1128 l 201 1269 l 304 1269 l 274 1128 l 171 1128 m 389 1128 l 419 1269 l 521 1269 l 492 1128 l 389 1128 z "},"Ḯ":{"ha":358,"x_min":28,"x_max":568,"o":"m 238 985 l 363 985 l 153 0 l 28 0 l 238 985 m 171 1128 l 201 1269 l 304 1269 l 274 1128 l 171 1128 m 389 1128 l 419 1269 l 521 1269 l 492 1128 l 389 1128 m 417 1390 l 342 1418 l 447 1558 l 568 1558 l 417 1390 z "},"İ":{"ha":358,"x_min":28,"x_max":417,"o":"m 238 985 l 363 985 l 153 0 l 28 0 l 238 985 m 275 1128 l 307 1275 l 417 1275 l 386 1128 l 275 1128 z "},"Ị":{"ha":358,"x_min":-18,"x_max":363,"o":"m 238 985 l 363 985 l 153 0 l 28 0 l 238 985 m -18 -253 l 14 -106 l 124 -106 l 93 -253 l -18 -253 z "},"Ì":{"ha":358,"x_min":28,"x_max":363,"o":"m 238 985 l 363 985 l 153 0 l 28 0 l 238 985 m 174 1275 l 293 1275 l 340 1135 l 256 1107 l 174 1275 z "},"Ỉ":{"ha":358,"x_min":28,"x_max":457,"o":"m 238 985 l 363 985 l 153 0 l 28 0 l 238 985 m 269 1228 l 242 1274 q 311 1310 276 1297 q 382 1324 346 1324 q 444 1295 432 1324 q 444 1232 457 1267 q 404 1174 435 1204 q 319 1110 374 1143 l 300 1150 q 348 1188 333 1172 q 368 1221 363 1204 q 369 1247 375 1236 q 346 1258 363 1258 q 313 1252 328 1258 q 269 1228 297 1246 z "},"Ȋ":{"ha":358,"x_min":28,"x_max":474,"o":"m 238 985 l 363 985 l 153 0 l 28 0 l 238 985 m 179 1121 q 215 1200 189 1165 q 278 1255 242 1235 q 356 1275 315 1275 q 441 1240 408 1275 q 474 1154 474 1204 q 473 1138 474 1146 q 469 1121 472 1129 l 401 1121 q 403 1139 403 1131 q 404 1156 404 1147 q 347 1215 404 1215 q 281 1188 304 1215 q 249 1121 258 1161 l 179 1121 z "},"Ī":{"ha":358,"x_min":28,"x_max":549,"o":"m 238 985 l 363 985 l 153 0 l 28 0 l 238 985 m 144 1167 l 161 1247 l 549 1247 l 531 1167 l 144 1167 z "},"Į":{"ha":358,"x_min":-37,"x_max":363,"o":"m 238 985 l 363 985 l 153 0 l 28 0 l 238 985 m -37 -171 q -2 -74 -37 -121 q 107 25 33 -26 l 142 25 l 153 0 q 69 -83 96 -50 q 43 -143 43 -115 q 60 -173 43 -164 q 106 -185 76 -182 l 60 -262 q -17 -228 4 -256 q -37 -171 -37 -201 z "},"Ĩ":{"ha":358,"x_min":28,"x_max":586,"o":"m 238 985 l 363 985 l 153 0 l 28 0 l 238 985 m 414 1132 q 350 1147 375 1132 q 305 1176 325 1161 q 256 1190 285 1190 q 209 1175 226 1190 q 185 1143 192 1160 q 178 1124 178 1126 l 106 1124 q 119 1155 108 1132 q 150 1203 129 1178 q 201 1248 171 1229 q 269 1267 231 1267 q 317 1258 297 1267 q 352 1237 336 1249 q 385 1216 368 1225 q 426 1207 403 1207 q 479 1223 460 1207 q 507 1256 499 1239 q 515 1275 515 1272 l 586 1275 q 574 1244 585 1267 q 541 1196 563 1222 q 488 1151 519 1169 q 414 1132 457 1132 z "},"J":{"ha":656,"x_min":-54,"x_max":671,"o":"m 136 -15 q 29 0 76 -15 q -54 46 -18 15 l -1 147 q 62 113 19 129 q 160 97 104 97 q 269 122 225 97 q 344 197 314 147 q 397 318 375 246 q 439 485 418 390 l 546 985 l 671 985 l 564 485 q 510 281 540 372 q 433 122 479 189 q 315 20 388 56 q 136 -15 243 -15 z "},"Ĵ":{"ha":656,"x_min":-54,"x_max":824,"o":"m 136 -15 q 29 0 76 -15 q -54 46 -18 15 l -1 147 q 62 113 19 129 q 160 97 104 97 q 269 122 225 97 q 344 197 314 147 q 397 318 375 246 q 439 485 418 390 l 546 985 l 671 985 l 564 485 q 510 281 540 372 q 433 122 479 189 q 315 20 388 56 q 136 -15 243 -15 m 467 1147 l 628 1272 l 717 1272 l 824 1147 l 750 1114 l 657 1201 l 526 1114 l 467 1147 z "},"K":{"ha":868,"x_min":28,"x_max":972,"o":"m 238 985 l 363 985 l 246 440 l 836 986 l 972 986 l 506 551 l 783 0 l 646 0 l 413 479 l 217 301 l 153 0 l 28 0 l 238 985 z "},"Ķ":{"ha":868,"x_min":28,"x_max":972,"o":"m 238 985 l 363 985 l 246 440 l 836 986 l 972 986 l 506 551 l 783 0 l 646 0 l 413 479 l 217 301 l 153 0 l 28 0 l 238 985 m 278 -296 l 329 -183 l 294 -183 l 319 -67 l 426 -67 l 401 -183 l 338 -296 l 278 -296 z "},"L":{"ha":776,"x_min":28,"x_max":694,"o":"m 238 986 l 363 986 l 176 111 l 694 111 l 671 0 l 28 0 l 238 986 z "},"Ĺ":{"ha":776,"x_min":28,"x_max":694,"o":"m 238 986 l 363 986 l 176 111 l 694 111 l 671 0 l 28 0 l 238 986 m 344 1107 l 269 1135 l 375 1275 l 496 1275 l 344 1107 z "},"Ľ":{"ha":776,"x_min":28,"x_max":857,"o":"m 238 986 l 363 986 l 176 111 l 694 111 l 671 0 l 28 0 l 238 986 m 631 874 l 736 1014 l 857 1014 l 706 846 l 631 874 z "},"Ļ":{"ha":776,"x_min":28,"x_max":694,"o":"m 238 986 l 363 986 l 176 111 l 694 111 l 671 0 l 28 0 l 238 986 m 242 -296 l 293 -183 l 258 -183 l 283 -67 l 390 -67 l 365 -183 l 301 -296 l 242 -296 z "},"Ŀ":{"ha":776,"x_min":28,"x_max":694,"o":"m 238 986 l 363 986 l 176 111 l 694 111 l 671 0 l 28 0 l 238 986 m 454 476 l 490 649 l 593 649 l 557 476 l 454 476 z "},"Ḷ":{"ha":776,"x_min":28,"x_max":694,"o":"m 238 986 l 363 986 l 176 111 l 694 111 l 671 0 l 28 0 l 238 986 m 242 -253 l 274 -106 l 383 -106 l 353 -253 l 242 -253 z "},"Ḻ":{"ha":776,"x_min":28,"x_max":694,"o":"m 238 986 l 363 986 l 176 111 l 694 111 l 671 0 l 28 0 l 238 986 m 119 -199 l 139 -118 l 507 -118 l 488 -199 l 119 -199 z "},"Ł":{"ha":785,"x_min":13,"x_max":694,"o":"m 13 393 l 500 726 l 519 658 l 33 324 l 13 393 m 238 986 l 363 986 l 176 111 l 694 111 l 671 0 l 28 0 l 238 986 z "},"M":{"ha":1164,"x_min":28,"x_max":1168,"o":"m 238 986 l 369 986 l 567 346 l 1038 986 l 1168 986 l 958 0 l 833 0 l 996 763 l 567 178 l 496 178 l 315 763 l 153 0 l 28 0 l 238 986 z "},"Ṃ":{"ha":1164,"x_min":28,"x_max":1168,"o":"m 238 986 l 369 986 l 567 346 l 1038 986 l 1168 986 l 958 0 l 833 0 l 996 763 l 567 178 l 496 178 l 315 763 l 153 0 l 28 0 l 238 986 m 397 -253 l 429 -106 l 539 -106 l 508 -253 l 397 -253 z "},"N":{"ha":1026,"x_min":28,"x_max":1031,"o":"m 238 986 l 335 986 l 743 218 l 906 985 l 1031 985 l 821 0 l 717 0 l 313 753 l 153 0 l 28 0 l 238 986 z "},"Ń":{"ha":1026,"x_min":28,"x_max":1031,"o":"m 238 986 l 335 986 l 743 218 l 906 985 l 1031 985 l 821 0 l 717 0 l 313 753 l 153 0 l 28 0 l 238 986 m 711 1104 l 636 1132 l 742 1272 l 863 1272 l 711 1104 z "},"Ň":{"ha":1026,"x_min":28,"x_max":1031,"o":"m 238 986 l 335 986 l 743 218 l 906 985 l 1031 985 l 821 0 l 717 0 l 313 753 l 153 0 l 28 0 l 238 986 m 522 1239 l 596 1272 l 689 1185 l 819 1272 l 879 1239 l 718 1114 l 629 1114 l 522 1239 z "},"Ņ":{"ha":1026,"x_min":28,"x_max":1031,"o":"m 238 986 l 335 986 l 743 218 l 906 985 l 1031 985 l 821 0 l 717 0 l 313 753 l 153 0 l 28 0 l 238 986 m 331 -296 l 382 -183 l 347 -183 l 372 -67 l 479 -67 l 454 -183 l 390 -296 l 331 -296 z "},"Ṅ":{"ha":1026,"x_min":28,"x_max":1031,"o":"m 238 986 l 335 986 l 743 218 l 906 985 l 1031 985 l 821 0 l 717 0 l 313 753 l 153 0 l 28 0 l 238 986 m 631 1125 l 663 1272 l 772 1272 l 742 1125 l 631 1125 z "},"Ṇ":{"ha":1026,"x_min":28,"x_max":1031,"o":"m 238 986 l 335 986 l 743 218 l 906 985 l 1031 985 l 821 0 l 717 0 l 313 753 l 153 0 l 28 0 l 238 986 m 331 -253 l 363 -106 l 472 -106 l 442 -253 l 331 -253 z "},"Ŋ":{"ha":1017,"x_min":28,"x_max":1019,"o":"m 538 -258 q 455 -244 493 -258 q 392 -200 417 -231 l 465 -118 q 501 -143 479 -136 q 546 -150 524 -150 q 603 -135 575 -150 q 652 -92 631 -119 q 681 -32 674 -65 l 692 21 l 313 750 l 153 0 l 28 0 l 238 986 l 333 986 l 732 224 l 894 985 l 1019 985 l 804 -28 q 748 -148 790 -96 q 650 -229 706 -200 q 538 -258 594 -258 z "},"Ṉ":{"ha":1026,"x_min":28,"x_max":1031,"o":"m 238 986 l 335 986 l 743 218 l 906 985 l 1031 985 l 821 0 l 717 0 l 313 753 l 153 0 l 28 0 l 238 986 m 208 -199 l 228 -118 l 596 -118 l 576 -199 l 208 -199 z "},"Ñ":{"ha":1026,"x_min":28,"x_max":1031,"o":"m 238 986 l 335 986 l 743 218 l 906 985 l 1031 985 l 821 0 l 717 0 l 313 753 l 153 0 l 28 0 l 238 986 m 769 1129 q 706 1144 731 1129 q 660 1173 681 1158 q 611 1188 640 1188 q 565 1172 582 1188 q 540 1140 547 1157 q 533 1121 533 1124 l 461 1121 q 474 1152 464 1129 q 506 1201 485 1175 q 556 1245 526 1226 q 625 1264 586 1264 q 672 1255 653 1264 q 708 1234 692 1246 q 741 1213 724 1222 q 782 1204 758 1204 q 835 1220 815 1204 q 863 1253 854 1236 q 871 1272 871 1269 l 942 1272 q 929 1242 940 1264 q 897 1193 918 1219 q 844 1148 875 1167 q 769 1129 813 1129 z "},"O":{"ha":1001,"x_min":61,"x_max":971,"o":"m 410 -7 q 261 26 326 -7 q 151 117 196 60 q 84 247 107 174 q 61 400 61 321 q 92 577 61 490 q 176 739 122 664 q 301 871 229 814 q 455 960 372 928 q 625 993 538 993 q 773 959 708 993 q 882 867 838 925 q 949 735 926 808 q 971 583 971 663 q 941 408 971 494 q 858 247 911 322 q 733 115 804 172 q 579 26 661 58 q 410 -7 497 -7 m 435 106 q 594 147 521 106 q 724 258 668 189 q 812 409 781 326 q 843 574 843 492 q 815 725 843 656 q 732 837 786 794 q 599 879 678 879 q 439 838 514 879 q 308 728 364 797 q 221 577 253 660 q 189 411 189 494 q 217 260 189 329 q 301 148 246 190 q 435 106 356 106 z "},"Ó":{"ha":1001,"x_min":61,"x_max":971,"o":"m 410 -7 q 261 26 326 -7 q 151 117 196 60 q 84 247 107 174 q 61 400 61 321 q 92 577 61 490 q 176 739 122 664 q 301 871 229 814 q 455 960 372 928 q 625 993 538 993 q 773 959 708 993 q 882 867 838 925 q 949 735 926 808 q 971 583 971 663 q 941 408 971 494 q 858 247 911 322 q 733 115 804 172 q 579 26 661 58 q 410 -7 497 -7 m 435 106 q 594 147 521 106 q 724 258 668 189 q 812 409 781 326 q 843 574 843 492 q 815 725 843 656 q 732 837 786 794 q 599 879 678 879 q 439 838 514 879 q 308 728 364 797 q 221 577 253 660 q 189 411 189 494 q 217 260 189 329 q 301 148 246 190 q 435 106 356 106 m 682 1104 l 607 1132 l 713 1272 l 833 1272 l 682 1104 z "},"Ŏ":{"ha":1001,"x_min":61,"x_max":971,"o":"m 410 -7 q 261 26 326 -7 q 151 117 196 60 q 84 247 107 174 q 61 400 61 321 q 92 577 61 490 q 176 739 122 664 q 301 871 229 814 q 455 960 372 928 q 625 993 538 993 q 773 959 708 993 q 882 867 838 925 q 949 735 926 808 q 971 583 971 663 q 941 408 971 494 q 858 247 911 322 q 733 115 804 172 q 579 26 661 58 q 410 -7 497 -7 m 435 106 q 594 147 521 106 q 724 258 668 189 q 812 409 781 326 q 843 574 843 492 q 815 725 843 656 q 732 837 786 794 q 599 879 678 879 q 439 838 514 879 q 308 728 364 797 q 221 577 253 660 q 189 411 189 494 q 217 260 189 329 q 301 148 246 190 q 435 106 356 106 m 667 1178 q 722 1205 694 1178 q 763 1272 750 1232 l 832 1272 q 797 1194 824 1229 q 733 1138 769 1158 q 654 1118 696 1118 q 568 1151 600 1118 q 536 1236 536 1185 q 538 1254 536 1246 q 540 1272 539 1263 l 611 1272 q 609 1261 610 1267 q 608 1249 608 1256 q 624 1199 608 1219 q 667 1178 640 1178 z "},"Ô":{"ha":1001,"x_min":61,"x_max":971,"o":"m 410 -7 q 261 26 326 -7 q 151 117 196 60 q 84 247 107 174 q 61 400 61 321 q 92 577 61 490 q 176 739 122 664 q 301 871 229 814 q 455 960 372 928 q 625 993 538 993 q 773 959 708 993 q 882 867 838 925 q 949 735 926 808 q 971 583 971 663 q 941 408 971 494 q 858 247 911 322 q 733 115 804 172 q 579 26 661 58 q 410 -7 497 -7 m 435 106 q 594 147 521 106 q 724 258 668 189 q 812 409 781 326 q 843 574 843 492 q 815 725 843 656 q 732 837 786 794 q 599 879 678 879 q 439 838 514 879 q 308 728 364 797 q 221 577 253 660 q 189 411 189 494 q 217 260 189 329 q 301 148 246 190 q 435 106 356 106 m 483 1147 l 644 1272 l 733 1272 l 840 1147 l 767 1114 l 674 1201 l 543 1114 l 483 1147 z "},"Ố":{"ha":1001,"x_min":61,"x_max":1036,"o":"m 410 -7 q 261 26 326 -7 q 151 117 196 60 q 84 247 107 174 q 61 400 61 321 q 92 577 61 490 q 176 739 122 664 q 301 871 229 814 q 455 960 372 928 q 625 993 538 993 q 773 959 708 993 q 882 867 838 925 q 949 735 926 808 q 971 583 971 663 q 941 408 971 494 q 858 247 911 322 q 733 115 804 172 q 579 26 661 58 q 410 -7 497 -7 m 435 106 q 594 147 521 106 q 724 258 668 189 q 812 409 781 326 q 843 574 843 492 q 815 725 843 656 q 732 837 786 794 q 599 879 678 879 q 439 838 514 879 q 308 728 364 797 q 221 577 253 660 q 189 411 189 494 q 217 260 189 329 q 301 148 246 190 q 435 106 356 106 z "},"Ộ":{"ha":1001,"x_min":61,"x_max":971,"o":"m 410 -7 q 261 26 326 -7 q 151 117 196 60 q 84 247 107 174 q 61 400 61 321 q 92 577 61 490 q 176 739 122 664 q 301 871 229 814 q 455 960 372 928 q 625 993 538 993 q 773 959 708 993 q 882 867 838 925 q 949 735 926 808 q 971 583 971 663 q 941 408 971 494 q 858 247 911 322 q 733 115 804 172 q 579 26 661 58 q 410 -7 497 -7 m 435 106 q 594 147 521 106 q 724 258 668 189 q 812 409 781 326 q 843 574 843 492 q 815 725 843 656 q 732 837 786 794 q 599 879 678 879 q 439 838 514 879 q 308 728 364 797 q 221 577 253 660 q 189 411 189 494 q 217 260 189 329 q 301 148 246 190 q 435 106 356 106 m 328 -253 l 360 -106 l 469 -106 l 439 -253 l 328 -253 m 483 1147 l 644 1272 l 733 1272 l 840 1147 l 767 1114 l 674 1201 l 543 1114 l 483 1147 z "},"Ồ":{"ha":1001,"x_min":61,"x_max":971,"o":"m 410 -7 q 261 26 326 -7 q 151 117 196 60 q 84 247 107 174 q 61 400 61 321 q 92 577 61 490 q 176 739 122 664 q 301 871 229 814 q 455 960 372 928 q 625 993 538 993 q 773 959 708 993 q 882 867 838 925 q 949 735 926 808 q 971 583 971 663 q 941 408 971 494 q 858 247 911 322 q 733 115 804 172 q 579 26 661 58 q 410 -7 497 -7 m 435 106 q 594 147 521 106 q 724 258 668 189 q 812 409 781 326 q 843 574 843 492 q 815 725 843 656 q 732 837 786 794 q 599 879 678 879 q 439 838 514 879 q 308 728 364 797 q 221 577 253 660 q 189 411 189 494 q 217 260 189 329 q 301 148 246 190 q 435 106 356 106 z "},"Ổ":{"ha":1001,"x_min":61,"x_max":971,"o":"m 410 -7 q 261 26 326 -7 q 151 117 196 60 q 84 247 107 174 q 61 400 61 321 q 92 577 61 490 q 176 739 122 664 q 301 871 229 814 q 455 960 372 928 q 625 993 538 993 q 773 959 708 993 q 882 867 838 925 q 949 735 926 808 q 971 583 971 663 q 941 408 971 494 q 858 247 911 322 q 733 115 804 172 q 579 26 661 58 q 410 -7 497 -7 m 435 106 q 594 147 521 106 q 724 258 668 189 q 812 409 781 326 q 843 574 843 492 q 815 725 843 656 q 732 837 786 794 q 599 879 678 879 q 439 838 514 879 q 308 728 364 797 q 221 577 253 660 q 189 411 189 494 q 217 260 189 329 q 301 148 246 190 q 435 106 356 106 z "},"Ỗ":{"ha":1001,"x_min":61,"x_max":971,"o":"m 410 -7 q 261 26 326 -7 q 151 117 196 60 q 84 247 107 174 q 61 400 61 321 q 92 577 61 490 q 176 739 122 664 q 301 871 229 814 q 455 960 372 928 q 625 993 538 993 q 773 959 708 993 q 882 867 838 925 q 949 735 926 808 q 971 583 971 663 q 941 408 971 494 q 858 247 911 322 q 733 115 804 172 q 579 26 661 58 q 410 -7 497 -7 m 435 106 q 594 147 521 106 q 724 258 668 189 q 812 409 781 326 q 843 574 843 492 q 815 725 843 656 q 732 837 786 794 q 599 879 678 879 q 439 838 514 879 q 308 728 364 797 q 221 577 253 660 q 189 411 189 494 q 217 260 189 329 q 301 148 246 190 q 435 106 356 106 z "},"Ȍ":{"ha":1001,"x_min":61,"x_max":971,"o":"m 410 -7 q 261 26 326 -7 q 151 117 196 60 q 84 247 107 174 q 61 400 61 321 q 92 577 61 490 q 176 739 122 664 q 301 871 229 814 q 455 960 372 928 q 625 993 538 993 q 773 959 708 993 q 882 867 838 925 q 949 735 926 808 q 971 583 971 663 q 941 408 971 494 q 858 247 911 322 q 733 115 804 172 q 579 26 661 58 q 410 -7 497 -7 m 435 106 q 594 147 521 106 q 724 258 668 189 q 812 409 781 326 q 843 574 843 492 q 815 725 843 656 q 732 837 786 794 q 599 879 678 879 q 439 838 514 879 q 308 728 364 797 q 221 577 253 660 q 189 411 189 494 q 217 260 189 329 q 301 148 246 190 q 435 106 356 106 m 632 1274 l 735 1274 l 776 1133 l 707 1106 l 632 1274 m 449 1274 l 553 1274 l 593 1133 l 524 1106 l 449 1274 z "},"Ö":{"ha":1001,"x_min":61,"x_max":971,"o":"m 410 -7 q 261 26 326 -7 q 151 117 196 60 q 84 247 107 174 q 61 400 61 321 q 92 577 61 490 q 176 739 122 664 q 301 871 229 814 q 455 960 372 928 q 625 993 538 993 q 773 959 708 993 q 882 867 838 925 q 949 735 926 808 q 971 583 971 663 q 941 408 971 494 q 858 247 911 322 q 733 115 804 172 q 579 26 661 58 q 410 -7 497 -7 m 435 106 q 594 147 521 106 q 724 258 668 189 q 812 409 781 326 q 843 574 843 492 q 815 725 843 656 q 732 837 786 794 q 599 879 678 879 q 439 838 514 879 q 308 728 364 797 q 221 577 253 660 q 189 411 189 494 q 217 260 189 329 q 301 148 246 190 q 435 106 356 106 m 497 1125 l 528 1267 l 631 1267 l 600 1125 l 497 1125 m 715 1125 l 746 1267 l 847 1267 l 818 1125 l 715 1125 z "},"Ȫ":{"ha":1001,"x_min":61,"x_max":971,"o":"m 410 -7 q 261 26 326 -7 q 151 117 196 60 q 84 247 107 174 q 61 400 61 321 q 92 577 61 490 q 176 739 122 664 q 301 871 229 814 q 455 960 372 928 q 625 993 538 993 q 773 959 708 993 q 882 867 838 925 q 949 735 926 808 q 971 583 971 663 q 941 408 971 494 q 858 247 911 322 q 733 115 804 172 q 579 26 661 58 q 410 -7 497 -7 m 435 106 q 594 147 521 106 q 724 258 668 189 q 812 409 781 326 q 843 574 843 492 q 815 725 843 656 q 732 837 786 794 q 599 879 678 879 q 439 838 514 879 q 308 728 364 797 q 221 577 253 660 q 189 411 189 494 q 217 260 189 329 q 301 148 246 190 q 435 106 356 106 m 497 1125 l 528 1267 l 631 1267 l 600 1125 l 497 1125 m 715 1125 l 746 1267 l 847 1267 l 818 1125 l 715 1125 m 532 1447 l 549 1528 l 936 1528 l 918 1447 l 532 1447 z "},"Ọ":{"ha":1001,"x_min":61,"x_max":971,"o":"m 410 -7 q 261 26 326 -7 q 151 117 196 60 q 84 247 107 174 q 61 400 61 321 q 92 577 61 490 q 176 739 122 664 q 301 871 229 814 q 455 960 372 928 q 625 993 538 993 q 773 959 708 993 q 882 867 838 925 q 949 735 926 808 q 971 583 971 663 q 941 408 971 494 q 858 247 911 322 q 733 115 804 172 q 579 26 661 58 q 410 -7 497 -7 m 435 106 q 594 147 521 106 q 724 258 668 189 q 812 409 781 326 q 843 574 843 492 q 815 725 843 656 q 732 837 786 794 q 599 879 678 879 q 439 838 514 879 q 308 728 364 797 q 221 577 253 660 q 189 411 189 494 q 217 260 189 329 q 301 148 246 190 q 435 106 356 106 m 328 -253 l 360 -106 l 469 -106 l 439 -253 l 328 -253 z "},"Ò":{"ha":1001,"x_min":61,"x_max":971,"o":"m 410 -7 q 261 26 326 -7 q 151 117 196 60 q 84 247 107 174 q 61 400 61 321 q 92 577 61 490 q 176 739 122 664 q 301 871 229 814 q 455 960 372 928 q 625 993 538 993 q 773 959 708 993 q 882 867 838 925 q 949 735 926 808 q 971 583 971 663 q 941 408 971 494 q 858 247 911 322 q 733 115 804 172 q 579 26 661 58 q 410 -7 497 -7 m 435 106 q 594 147 521 106 q 724 258 668 189 q 812 409 781 326 q 843 574 843 492 q 815 725 843 656 q 732 837 786 794 q 599 879 678 879 q 439 838 514 879 q 308 728 364 797 q 221 577 253 660 q 189 411 189 494 q 217 260 189 329 q 301 148 246 190 q 435 106 356 106 m 500 1272 l 619 1272 l 667 1132 l 582 1104 l 500 1272 z "},"Ỏ":{"ha":1001,"x_min":61,"x_max":971,"o":"m 410 -7 q 261 26 326 -7 q 151 117 196 60 q 84 247 107 174 q 61 400 61 321 q 92 577 61 490 q 176 739 122 664 q 301 871 229 814 q 455 960 372 928 q 625 993 538 993 q 773 959 708 993 q 882 867 838 925 q 949 735 926 808 q 971 583 971 663 q 941 408 971 494 q 858 247 911 322 q 733 115 804 172 q 579 26 661 58 q 410 -7 497 -7 m 435 106 q 594 147 521 106 q 724 258 668 189 q 812 409 781 326 q 843 574 843 492 q 815 725 843 656 q 732 837 786 794 q 599 879 678 879 q 439 838 514 879 q 308 728 364 797 q 221 577 253 660 q 189 411 189 494 q 217 260 189 329 q 301 148 246 190 q 435 106 356 106 m 596 1225 l 568 1271 q 638 1308 603 1294 q 708 1321 672 1321 q 771 1292 758 1321 q 771 1229 783 1264 q 731 1171 761 1201 q 646 1107 700 1140 l 626 1147 q 674 1185 660 1169 q 694 1218 689 1201 q 695 1244 701 1233 q 672 1256 689 1256 q 639 1249 654 1256 q 596 1225 624 1243 z "},"Ơ":{"ha":1001,"x_min":61,"x_max":971,"o":"m 410 -7 q 261 26 326 -7 q 151 117 196 60 q 84 247 107 174 q 61 400 61 321 q 92 577 61 490 q 176 739 122 664 q 301 871 229 814 q 455 960 372 928 q 625 993 538 993 q 773 959 708 993 q 882 867 838 925 q 949 735 926 808 q 971 583 971 663 q 941 408 971 494 q 858 247 911 322 q 733 115 804 172 q 579 26 661 58 q 410 -7 497 -7 m 435 106 q 594 147 521 106 q 724 258 668 189 q 812 409 781 326 q 843 574 843 492 q 815 725 843 656 q 732 837 786 794 q 599 879 678 879 q 439 838 514 879 q 308 728 364 797 q 221 577 253 660 q 189 411 189 494 q 217 260 189 329 q 301 148 246 190 q 435 106 356 106 m 674 896 l 693 985 q 769 992 742 985 q 811 1017 796 1000 q 836 1055 828 1035 q 850 1101 844 1075 l 950 1101 q 934 1051 943 1076 q 911 1003 925 1026 q 875 960 897 981 q 822 924 853 939 q 753 903 790 910 q 674 896 715 896 z "},"Ớ":{"ha":1001,"x_min":61,"x_max":971,"o":"m 410 -7 q 261 26 326 -7 q 151 117 196 60 q 84 247 107 174 q 61 400 61 321 q 92 577 61 490 q 176 739 122 664 q 301 871 229 814 q 455 960 372 928 q 625 993 538 993 q 773 959 708 993 q 882 867 838 925 q 949 735 926 808 q 971 583 971 663 q 941 408 971 494 q 858 247 911 322 q 733 115 804 172 q 579 26 661 58 q 410 -7 497 -7 m 435 106 q 594 147 521 106 q 724 258 668 189 q 812 409 781 326 q 843 574 843 492 q 815 725 843 656 q 732 837 786 794 q 599 879 678 879 q 439 838 514 879 q 308 728 364 797 q 221 577 253 660 q 189 411 189 494 q 217 260 189 329 q 301 148 246 190 q 435 106 356 106 m 674 896 l 693 985 q 769 992 742 985 q 811 1017 796 1000 q 836 1055 828 1035 q 850 1101 844 1075 l 950 1101 q 934 1051 943 1076 q 911 1003 925 1026 q 875 960 897 981 q 822 924 853 939 q 753 903 790 910 q 674 896 715 896 m 682 1104 l 607 1132 l 713 1272 l 833 1272 l 682 1104 z "},"Ợ":{"ha":1001,"x_min":61,"x_max":971,"o":"m 410 -7 q 261 26 326 -7 q 151 117 196 60 q 84 247 107 174 q 61 400 61 321 q 92 577 61 490 q 176 739 122 664 q 301 871 229 814 q 455 960 372 928 q 625 993 538 993 q 773 959 708 993 q 882 867 838 925 q 949 735 926 808 q 971 583 971 663 q 941 408 971 494 q 858 247 911 322 q 733 115 804 172 q 579 26 661 58 q 410 -7 497 -7 m 435 106 q 594 147 521 106 q 724 258 668 189 q 812 409 781 326 q 843 574 843 492 q 815 725 843 656 q 732 837 786 794 q 599 879 678 879 q 439 838 514 879 q 308 728 364 797 q 221 577 253 660 q 189 411 189 494 q 217 260 189 329 q 301 148 246 190 q 435 106 356 106 m 674 896 l 693 985 q 769 992 742 985 q 811 1017 796 1000 q 836 1055 828 1035 q 850 1101 844 1075 l 950 1101 q 934 1051 943 1076 q 911 1003 925 1026 q 875 960 897 981 q 822 924 853 939 q 753 903 790 910 q 674 896 715 896 m 328 -253 l 360 -106 l 469 -106 l 439 -253 l 328 -253 z "},"Ờ":{"ha":1001,"x_min":61,"x_max":971,"o":"m 410 -7 q 261 26 326 -7 q 151 117 196 60 q 84 247 107 174 q 61 400 61 321 q 92 577 61 490 q 176 739 122 664 q 301 871 229 814 q 455 960 372 928 q 625 993 538 993 q 773 959 708 993 q 882 867 838 925 q 949 735 926 808 q 971 583 971 663 q 941 408 971 494 q 858 247 911 322 q 733 115 804 172 q 579 26 661 58 q 410 -7 497 -7 m 435 106 q 594 147 521 106 q 724 258 668 189 q 812 409 781 326 q 843 574 843 492 q 815 725 843 656 q 732 837 786 794 q 599 879 678 879 q 439 838 514 879 q 308 728 364 797 q 221 577 253 660 q 189 411 189 494 q 217 260 189 329 q 301 148 246 190 q 435 106 356 106 m 674 896 l 693 985 q 769 992 742 985 q 811 1017 796 1000 q 836 1055 828 1035 q 850 1101 844 1075 l 950 1101 q 934 1051 943 1076 q 911 1003 925 1026 q 875 960 897 981 q 822 924 853 939 q 753 903 790 910 q 674 896 715 896 m 500 1272 l 619 1272 l 667 1132 l 582 1104 l 500 1272 z "},"Ở":{"ha":1001,"x_min":61,"x_max":971,"o":"m 410 -7 q 261 26 326 -7 q 151 117 196 60 q 84 247 107 174 q 61 400 61 321 q 92 577 61 490 q 176 739 122 664 q 301 871 229 814 q 455 960 372 928 q 625 993 538 993 q 773 959 708 993 q 882 867 838 925 q 949 735 926 808 q 971 583 971 663 q 941 408 971 494 q 858 247 911 322 q 733 115 804 172 q 579 26 661 58 q 410 -7 497 -7 m 435 106 q 594 147 521 106 q 724 258 668 189 q 812 409 781 326 q 843 574 843 492 q 815 725 843 656 q 732 837 786 794 q 599 879 678 879 q 439 838 514 879 q 308 728 364 797 q 221 577 253 660 q 189 411 189 494 q 217 260 189 329 q 301 148 246 190 q 435 106 356 106 m 674 896 l 693 985 q 769 992 742 985 q 811 1017 796 1000 q 836 1055 828 1035 q 850 1101 844 1075 l 950 1101 q 934 1051 943 1076 q 911 1003 925 1026 q 875 960 897 981 q 822 924 853 939 q 753 903 790 910 q 674 896 715 896 m 596 1225 l 568 1271 q 638 1308 603 1294 q 708 1321 672 1321 q 771 1292 758 1321 q 771 1229 783 1264 q 731 1171 761 1201 q 646 1107 700 1140 l 626 1147 q 674 1185 660 1169 q 694 1218 689 1201 q 695 1244 701 1233 q 672 1256 689 1256 q 639 1249 654 1256 q 596 1225 624 1243 z "},"Ỡ":{"ha":1001,"x_min":61,"x_max":971,"o":"m 410 -7 q 261 26 326 -7 q 151 117 196 60 q 84 247 107 174 q 61 400 61 321 q 92 577 61 490 q 176 739 122 664 q 301 871 229 814 q 455 960 372 928 q 625 993 538 993 q 773 959 708 993 q 882 867 838 925 q 949 735 926 808 q 971 583 971 663 q 941 408 971 494 q 858 247 911 322 q 733 115 804 172 q 579 26 661 58 q 410 -7 497 -7 m 435 106 q 594 147 521 106 q 724 258 668 189 q 812 409 781 326 q 843 574 843 492 q 815 725 843 656 q 732 837 786 794 q 599 879 678 879 q 439 838 514 879 q 308 728 364 797 q 221 577 253 660 q 189 411 189 494 q 217 260 189 329 q 301 148 246 190 q 435 106 356 106 m 674 896 l 693 985 q 769 992 742 985 q 811 1017 796 1000 q 836 1055 828 1035 q 850 1101 844 1075 l 950 1101 q 934 1051 943 1076 q 911 1003 925 1026 q 875 960 897 981 q 822 924 853 939 q 753 903 790 910 q 674 896 715 896 m 740 1129 q 676 1144 701 1129 q 631 1173 651 1158 q 582 1188 611 1188 q 535 1172 553 1188 q 511 1140 518 1157 q 504 1121 504 1124 l 432 1121 q 445 1152 435 1129 q 476 1201 456 1175 q 527 1245 497 1226 q 596 1264 557 1264 q 643 1255 624 1264 q 678 1234 663 1246 q 712 1213 694 1222 q 753 1204 729 1204 q 806 1220 786 1204 q 833 1253 825 1236 q 842 1272 842 1269 l 913 1272 q 900 1242 911 1264 q 867 1193 889 1219 q 815 1148 846 1167 q 740 1129 783 1129 z "},"Ő":{"ha":1001,"x_min":61,"x_max":971,"o":"m 410 -7 q 261 26 326 -7 q 151 117 196 60 q 84 247 107 174 q 61 400 61 321 q 92 577 61 490 q 176 739 122 664 q 301 871 229 814 q 455 960 372 928 q 625 993 538 993 q 773 959 708 993 q 882 867 838 925 q 949 735 926 808 q 971 583 971 663 q 941 408 971 494 q 858 247 911 322 q 733 115 804 172 q 579 26 661 58 q 410 -7 497 -7 m 435 106 q 594 147 521 106 q 724 258 668 189 q 812 409 781 326 q 843 574 843 492 q 815 725 843 656 q 732 837 786 794 q 599 879 678 879 q 439 838 514 879 q 308 728 364 797 q 221 577 253 660 q 189 411 189 494 q 217 260 189 329 q 301 148 246 190 q 435 106 356 106 m 576 1104 l 519 1132 l 619 1272 l 724 1272 l 576 1104 m 760 1104 l 703 1132 l 803 1272 l 907 1272 l 760 1104 z "},"Ȏ":{"ha":1001,"x_min":61,"x_max":971,"o":"m 410 -7 q 261 26 326 -7 q 151 117 196 60 q 84 247 107 174 q 61 400 61 321 q 92 577 61 490 q 176 739 122 664 q 301 871 229 814 q 455 960 372 928 q 625 993 538 993 q 773 959 708 993 q 882 867 838 925 q 949 735 926 808 q 971 583 971 663 q 941 408 971 494 q 858 247 911 322 q 733 115 804 172 q 579 26 661 58 q 410 -7 497 -7 m 435 106 q 594 147 521 106 q 724 258 668 189 q 812 409 781 326 q 843 574 843 492 q 815 725 843 656 q 732 837 786 794 q 599 879 678 879 q 439 838 514 879 q 308 728 364 797 q 221 577 253 660 q 189 411 189 494 q 217 260 189 329 q 301 148 246 190 q 435 106 356 106 m 506 1118 q 542 1197 515 1163 q 605 1252 568 1232 q 682 1272 642 1272 q 767 1237 735 1272 q 800 1151 800 1201 q 799 1135 800 1143 q 796 1118 799 1126 l 728 1118 q 730 1136 729 1128 q 731 1153 731 1144 q 674 1213 731 1213 q 608 1185 631 1213 q 575 1118 585 1158 l 506 1118 z "},"Ō":{"ha":1001,"x_min":61,"x_max":971,"o":"m 410 -7 q 261 26 326 -7 q 151 117 196 60 q 84 247 107 174 q 61 400 61 321 q 92 577 61 490 q 176 739 122 664 q 301 871 229 814 q 455 960 372 928 q 625 993 538 993 q 773 959 708 993 q 882 867 838 925 q 949 735 926 808 q 971 583 971 663 q 941 408 971 494 q 858 247 911 322 q 733 115 804 172 q 579 26 661 58 q 410 -7 497 -7 m 435 106 q 594 147 521 106 q 724 258 668 189 q 812 409 781 326 q 843 574 843 492 q 815 725 843 656 q 732 837 786 794 q 599 879 678 879 q 439 838 514 879 q 308 728 364 797 q 221 577 253 660 q 189 411 189 494 q 217 260 189 329 q 301 148 246 190 q 435 106 356 106 m 471 1164 l 488 1244 l 875 1244 l 857 1164 l 471 1164 z "},"Ṓ":{"ha":1001,"x_min":61,"x_max":971,"o":"m 410 -7 q 261 26 326 -7 q 151 117 196 60 q 84 247 107 174 q 61 400 61 321 q 92 577 61 490 q 176 739 122 664 q 301 871 229 814 q 455 960 372 928 q 625 993 538 993 q 773 959 708 993 q 882 867 838 925 q 949 735 926 808 q 971 583 971 663 q 941 408 971 494 q 858 247 911 322 q 733 115 804 172 q 579 26 661 58 q 410 -7 497 -7 m 435 106 q 594 147 521 106 q 724 258 668 189 q 812 409 781 326 q 843 574 843 492 q 815 725 843 656 q 732 837 786 794 q 599 879 678 879 q 439 838 514 879 q 308 728 364 797 q 221 577 253 660 q 189 411 189 494 q 217 260 189 329 q 301 148 246 190 q 435 106 356 106 m 471 1164 l 488 1244 l 875 1244 l 857 1164 l 471 1164 m 738 1365 l 663 1393 l 768 1533 l 889 1533 l 738 1365 z "},"Ṑ":{"ha":1001,"x_min":61,"x_max":971,"o":"m 410 -7 q 261 26 326 -7 q 151 117 196 60 q 84 247 107 174 q 61 400 61 321 q 92 577 61 490 q 176 739 122 664 q 301 871 229 814 q 455 960 372 928 q 625 993 538 993 q 773 959 708 993 q 882 867 838 925 q 949 735 926 808 q 971 583 971 663 q 941 408 971 494 q 858 247 911 322 q 733 115 804 172 q 579 26 661 58 q 410 -7 497 -7 m 435 106 q 594 147 521 106 q 724 258 668 189 q 812 409 781 326 q 843 574 843 492 q 815 725 843 656 q 732 837 786 794 q 599 879 678 879 q 439 838 514 879 q 308 728 364 797 q 221 577 253 660 q 189 411 189 494 q 217 260 189 329 q 301 148 246 190 q 435 106 356 106 m 471 1164 l 488 1244 l 875 1244 l 857 1164 l 471 1164 m 556 1533 l 675 1533 l 722 1393 l 638 1365 l 556 1533 z "},"Ǫ":{"ha":1001,"x_min":61,"x_max":971,"o":"m 410 -7 q 261 26 326 -7 q 151 117 196 60 q 84 247 107 174 q 61 400 61 321 q 92 577 61 490 q 176 739 122 664 q 301 871 229 814 q 455 960 372 928 q 625 993 538 993 q 773 959 708 993 q 882 867 838 925 q 949 735 926 808 q 971 583 971 663 q 941 408 971 494 q 858 247 911 322 q 733 115 804 172 q 579 26 661 58 q 410 -7 497 -7 m 435 106 q 594 147 521 106 q 724 258 668 189 q 812 409 781 326 q 843 574 843 492 q 815 725 843 656 q 732 837 786 794 q 599 879 678 879 q 439 838 514 879 q 308 728 364 797 q 221 577 253 660 q 189 411 189 494 q 217 260 189 329 q 301 148 246 190 q 435 106 356 106 m 276 -171 q 312 -74 276 -121 q 421 25 347 -26 l 456 25 l 467 0 q 383 -83 410 -50 q 357 -143 357 -115 q 374 -173 357 -164 q 419 -185 390 -182 l 374 -262 q 297 -228 318 -256 q 276 -171 276 -201 z "},"Ø":{"ha":1001,"x_min":31,"x_max":1011,"o":"m 410 -7 q 261 26 326 -7 q 151 117 196 60 q 84 247 107 174 q 61 400 61 321 q 92 577 61 490 q 176 739 122 664 q 301 871 229 814 q 455 960 372 928 q 625 993 538 993 q 773 959 708 993 q 882 867 838 925 q 949 735 926 808 q 971 583 971 663 q 941 408 971 494 q 858 247 911 322 q 733 115 804 172 q 579 26 661 58 q 410 -7 497 -7 m 435 106 q 594 147 521 106 q 724 258 668 189 q 812 409 781 326 q 843 574 843 492 q 815 725 843 656 q 732 837 786 794 q 599 879 678 879 q 439 838 514 879 q 308 728 364 797 q 221 577 253 660 q 189 411 189 494 q 217 260 189 329 q 301 148 246 190 q 435 106 356 106 m 1011 986 l 167 0 l 31 0 l 875 986 l 1011 986 z "},"Ǿ":{"ha":1001,"x_min":40,"x_max":1021,"o":"m 410 -7 q 261 26 326 -7 q 151 117 196 60 q 84 247 107 174 q 61 400 61 321 q 92 577 61 490 q 176 739 122 664 q 301 871 229 814 q 455 960 372 928 q 625 993 538 993 q 773 959 708 993 q 882 867 838 925 q 949 735 926 808 q 971 583 971 663 q 941 408 971 494 q 858 247 911 322 q 733 115 804 172 q 579 26 661 58 q 410 -7 497 -7 m 435 106 q 594 147 521 106 q 724 258 668 189 q 812 409 781 326 q 843 574 843 492 q 815 725 843 656 q 732 837 786 794 q 599 879 678 879 q 439 838 514 879 q 308 728 364 797 q 221 577 253 660 q 189 411 189 494 q 217 260 189 329 q 301 148 246 190 q 435 106 356 106 m 1021 986 l 176 0 l 40 0 l 885 986 l 1021 986 m 682 1104 l 607 1132 l 713 1272 l 833 1272 l 682 1104 z "},"Õ":{"ha":1001,"x_min":61,"x_max":971,"o":"m 410 -7 q 261 26 326 -7 q 151 117 196 60 q 84 247 107 174 q 61 400 61 321 q 92 577 61 490 q 176 739 122 664 q 301 871 229 814 q 455 960 372 928 q 625 993 538 993 q 773 959 708 993 q 882 867 838 925 q 949 735 926 808 q 971 583 971 663 q 941 408 971 494 q 858 247 911 322 q 733 115 804 172 q 579 26 661 58 q 410 -7 497 -7 m 435 106 q 594 147 521 106 q 724 258 668 189 q 812 409 781 326 q 843 574 843 492 q 815 725 843 656 q 732 837 786 794 q 599 879 678 879 q 439 838 514 879 q 308 728 364 797 q 221 577 253 660 q 189 411 189 494 q 217 260 189 329 q 301 148 246 190 q 435 106 356 106 m 740 1129 q 676 1144 701 1129 q 631 1173 651 1158 q 582 1188 611 1188 q 535 1172 553 1188 q 511 1140 518 1157 q 504 1121 504 1124 l 432 1121 q 445 1152 435 1129 q 476 1201 456 1175 q 527 1245 497 1226 q 596 1264 557 1264 q 643 1255 624 1264 q 678 1234 663 1246 q 712 1213 694 1222 q 753 1204 729 1204 q 806 1220 786 1204 q 833 1253 825 1236 q 842 1272 842 1269 l 913 1272 q 900 1242 911 1264 q 867 1193 889 1219 q 815 1148 846 1167 q 740 1129 783 1129 z "},"Ṍ":{"ha":1001,"x_min":61,"x_max":971,"o":"m 410 -7 q 261 26 326 -7 q 151 117 196 60 q 84 247 107 174 q 61 400 61 321 q 92 577 61 490 q 176 739 122 664 q 301 871 229 814 q 455 960 372 928 q 625 993 538 993 q 773 959 708 993 q 882 867 838 925 q 949 735 926 808 q 971 583 971 663 q 941 408 971 494 q 858 247 911 322 q 733 115 804 172 q 579 26 661 58 q 410 -7 497 -7 m 435 106 q 594 147 521 106 q 724 258 668 189 q 812 409 781 326 q 843 574 843 492 q 815 725 843 656 q 732 837 786 794 q 599 879 678 879 q 439 838 514 879 q 308 728 364 797 q 221 577 253 660 q 189 411 189 494 q 217 260 189 329 q 301 148 246 190 q 435 106 356 106 m 740 1129 q 676 1144 701 1129 q 631 1173 651 1158 q 582 1188 611 1188 q 535 1172 553 1188 q 511 1140 518 1157 q 504 1121 504 1124 l 432 1121 q 445 1152 435 1129 q 476 1201 456 1175 q 527 1245 497 1226 q 596 1264 557 1264 q 643 1255 624 1264 q 678 1234 663 1246 q 712 1213 694 1222 q 753 1204 729 1204 q 806 1220 786 1204 q 833 1253 825 1236 q 842 1272 842 1269 l 913 1272 q 900 1242 911 1264 q 867 1193 889 1219 q 815 1148 846 1167 q 740 1129 783 1129 m 744 1393 l 669 1421 l 775 1561 l 896 1561 l 744 1393 z "},"Ṏ":{"ha":1001,"x_min":61,"x_max":971,"o":"m 410 -7 q 261 26 326 -7 q 151 117 196 60 q 84 247 107 174 q 61 400 61 321 q 92 577 61 490 q 176 739 122 664 q 301 871 229 814 q 455 960 372 928 q 625 993 538 993 q 773 959 708 993 q 882 867 838 925 q 949 735 926 808 q 971 583 971 663 q 941 408 971 494 q 858 247 911 322 q 733 115 804 172 q 579 26 661 58 q 410 -7 497 -7 m 435 106 q 594 147 521 106 q 724 258 668 189 q 812 409 781 326 q 843 574 843 492 q 815 725 843 656 q 732 837 786 794 q 599 879 678 879 q 439 838 514 879 q 308 728 364 797 q 221 577 253 660 q 189 411 189 494 q 217 260 189 329 q 301 148 246 190 q 435 106 356 106 m 740 1129 q 676 1144 701 1129 q 631 1173 651 1158 q 582 1188 611 1188 q 535 1172 553 1188 q 511 1140 518 1157 q 504 1121 504 1124 l 432 1121 q 445 1152 435 1129 q 476 1201 456 1175 q 527 1245 497 1226 q 596 1264 557 1264 q 643 1255 624 1264 q 678 1234 663 1246 q 712 1213 694 1222 q 753 1204 729 1204 q 806 1220 786 1204 q 833 1253 825 1236 q 842 1272 842 1269 l 913 1272 q 900 1242 911 1264 q 867 1193 889 1219 q 815 1148 846 1167 q 740 1129 783 1129 m 560 1414 l 590 1556 l 693 1556 l 663 1414 l 560 1414 m 778 1414 l 808 1556 l 910 1556 l 881 1414 l 778 1414 z "},"Ȭ":{"ha":1001,"x_min":61,"x_max":971,"o":"m 410 -7 q 261 26 326 -7 q 151 117 196 60 q 84 247 107 174 q 61 400 61 321 q 92 577 61 490 q 176 739 122 664 q 301 871 229 814 q 455 960 372 928 q 625 993 538 993 q 773 959 708 993 q 882 867 838 925 q 949 735 926 808 q 971 583 971 663 q 941 408 971 494 q 858 247 911 322 q 733 115 804 172 q 579 26 661 58 q 410 -7 497 -7 m 435 106 q 594 147 521 106 q 724 258 668 189 q 812 409 781 326 q 843 574 843 492 q 815 725 843 656 q 732 837 786 794 q 599 879 678 879 q 439 838 514 879 q 308 728 364 797 q 221 577 253 660 q 189 411 189 494 q 217 260 189 329 q 301 148 246 190 q 435 106 356 106 m 740 1129 q 676 1144 701 1129 q 631 1173 651 1158 q 582 1188 611 1188 q 535 1172 553 1188 q 511 1140 518 1157 q 504 1121 504 1124 l 432 1121 q 445 1152 435 1129 q 476 1201 456 1175 q 527 1245 497 1226 q 596 1264 557 1264 q 643 1255 624 1264 q 678 1234 663 1246 q 712 1213 694 1222 q 753 1204 729 1204 q 806 1220 786 1204 q 833 1253 825 1236 q 842 1272 842 1269 l 913 1272 q 900 1242 911 1264 q 867 1193 889 1219 q 815 1148 846 1167 q 740 1129 783 1129 m 533 1453 l 550 1533 l 938 1533 l 919 1453 l 533 1453 z "},"Œ":{"ha":1496,"x_min":61,"x_max":1554,"o":"m 410 -7 q 261 26 326 -7 q 151 117 196 60 q 84 247 107 174 q 61 400 61 321 q 92 577 61 490 q 176 739 122 664 q 300 871 229 814 q 453 960 371 928 q 624 993 536 993 q 751 963 696 993 q 842 882 806 933 q 893 768 878 831 l 939 986 l 1554 986 l 1531 875 l 1040 875 l 974 558 l 1392 558 l 1368 447 l 950 447 l 878 111 l 1379 111 l 1356 0 l 729 0 l 776 218 q 674 103 733 154 q 548 23 615 53 q 410 -7 481 -7 m 433 106 q 563 133 501 106 q 676 207 625 160 q 764 315 726 254 q 822 442 801 375 q 842 575 842 508 q 813 726 842 657 q 731 838 785 796 q 599 881 676 881 q 469 853 531 881 q 356 779 407 826 q 268 672 306 732 q 210 545 231 613 q 189 411 189 478 q 217 260 189 329 q 300 148 246 190 q 433 106 354 106 z "},"P":{"ha":835,"x_min":28,"x_max":854,"o":"m 238 986 l 629 986 q 751 949 700 986 q 828 851 801 911 q 854 725 854 792 q 826 592 854 658 q 750 472 799 526 q 638 386 701 418 q 501 354 574 354 l 228 354 l 153 0 l 28 0 l 238 986 m 518 465 q 598 486 560 465 q 665 542 636 507 q 710 622 693 578 q 726 714 726 667 q 710 797 726 761 q 664 854 693 833 q 597 875 635 875 l 339 875 l 251 465 l 518 465 z "},"Þ":{"ha":807,"x_min":28,"x_max":790,"o":"m 238 986 l 363 986 l 322 796 l 564 796 q 686 758 636 796 q 763 661 736 721 q 790 535 790 601 q 763 401 790 467 q 686 281 735 335 q 574 196 638 228 q 438 164 510 164 l 188 164 l 153 0 l 28 0 l 238 986 m 456 275 q 536 297 499 275 q 602 354 574 318 q 647 434 631 390 q 663 522 663 478 q 647 605 663 568 q 602 663 631 642 q 535 685 574 685 l 299 685 l 211 275 l 456 275 z "},"Q":{"ha":1000,"x_min":61,"x_max":971,"o":"m 410 -7 q 261 26 326 -7 q 151 117 196 60 q 84 247 107 174 q 61 400 61 321 q 92 577 61 490 q 176 739 122 664 q 301 871 229 814 q 455 960 372 928 q 625 993 538 993 q 773 959 708 993 q 882 867 838 925 q 949 735 926 808 q 971 583 971 663 q 941 408 971 494 q 858 247 911 322 q 733 115 804 172 q 579 26 661 58 q 410 -7 497 -7 m 725 0 l 526 322 l 647 322 l 847 0 l 725 0 m 435 106 q 594 147 521 106 q 724 258 668 189 q 812 409 781 326 q 843 574 843 492 q 815 726 843 656 q 732 838 786 796 q 599 881 678 881 q 439 839 514 881 q 308 729 364 797 q 221 578 253 661 q 189 411 189 494 q 217 260 189 329 q 301 148 246 190 q 435 106 356 106 z "},"R":{"ha":879,"x_min":28,"x_max":865,"o":"m 28 0 l 238 986 l 640 986 q 762 949 711 986 q 839 851 813 911 q 865 725 865 792 q 845 611 865 667 q 789 508 825 556 q 705 426 753 460 q 601 378 657 392 l 747 0 l 606 0 l 469 354 l 228 354 l 153 0 l 28 0 m 531 465 q 609 486 572 465 q 675 542 646 507 q 720 622 704 578 q 736 711 736 665 q 720 794 736 757 q 676 853 704 831 q 610 875 647 875 l 339 875 l 251 465 l 531 465 z "},"Ŕ":{"ha":879,"x_min":28,"x_max":865,"o":"m 28 0 l 238 986 l 640 986 q 762 949 711 986 q 839 851 813 911 q 865 725 865 792 q 845 611 865 667 q 789 508 825 556 q 705 426 753 460 q 601 378 657 392 l 747 0 l 606 0 l 469 354 l 228 354 l 153 0 l 28 0 m 531 465 q 609 486 572 465 q 675 542 646 507 q 720 622 704 578 q 736 711 736 665 q 720 794 736 757 q 676 853 704 831 q 610 875 647 875 l 339 875 l 251 465 l 531 465 m 601 1107 l 526 1135 l 632 1275 l 753 1275 l 601 1107 z "},"Ř":{"ha":879,"x_min":28,"x_max":865,"o":"m 28 0 l 238 986 l 640 986 q 762 949 711 986 q 839 851 813 911 q 865 725 865 792 q 845 611 865 667 q 789 508 825 556 q 705 426 753 460 q 601 378 657 392 l 747 0 l 606 0 l 469 354 l 228 354 l 153 0 l 28 0 m 531 465 q 609 486 572 465 q 675 542 646 507 q 720 622 704 578 q 736 711 736 665 q 720 794 736 757 q 676 853 704 831 q 610 875 647 875 l 339 875 l 251 465 l 531 465 m 413 1242 l 486 1275 l 579 1188 l 710 1275 l 769 1242 l 608 1117 l 519 1117 l 413 1242 z "},"Ŗ":{"ha":879,"x_min":28,"x_max":865,"o":"m 28 0 l 238 986 l 640 986 q 762 949 711 986 q 839 851 813 911 q 865 725 865 792 q 845 611 865 667 q 789 508 825 556 q 705 426 753 460 q 601 378 657 392 l 747 0 l 606 0 l 469 354 l 228 354 l 153 0 l 28 0 m 531 465 q 609 486 572 465 q 675 542 646 507 q 720 622 704 578 q 736 711 736 665 q 720 794 736 757 q 676 853 704 831 q 610 875 647 875 l 339 875 l 251 465 l 531 465 m 242 -296 l 293 -183 l 258 -183 l 283 -67 l 390 -67 l 365 -183 l 301 -296 l 242 -296 z "},"Ȑ":{"ha":879,"x_min":28,"x_max":865,"o":"m 28 0 l 238 986 l 640 986 q 762 949 711 986 q 839 851 813 911 q 865 725 865 792 q 845 611 865 667 q 789 508 825 556 q 705 426 753 460 q 601 378 657 392 l 747 0 l 606 0 l 469 354 l 228 354 l 153 0 l 28 0 m 531 465 q 609 486 572 465 q 675 542 646 507 q 720 622 704 578 q 736 711 736 665 q 720 794 736 757 q 676 853 704 831 q 610 875 647 875 l 339 875 l 251 465 l 531 465 m 551 1276 l 654 1276 l 696 1136 l 626 1108 l 551 1276 m 368 1276 l 472 1276 l 513 1136 l 443 1108 l 368 1276 z "},"Ṛ":{"ha":879,"x_min":28,"x_max":865,"o":"m 28 0 l 238 986 l 640 986 q 762 949 711 986 q 839 851 813 911 q 865 725 865 792 q 845 611 865 667 q 789 508 825 556 q 705 426 753 460 q 601 378 657 392 l 747 0 l 606 0 l 469 354 l 228 354 l 153 0 l 28 0 m 531 465 q 609 486 572 465 q 675 542 646 507 q 720 622 704 578 q 736 711 736 665 q 720 794 736 757 q 676 853 704 831 q 610 875 647 875 l 339 875 l 251 465 l 531 465 m 242 -253 l 274 -106 l 383 -106 l 353 -253 l 242 -253 z "},"Ȓ":{"ha":879,"x_min":28,"x_max":865,"o":"m 28 0 l 238 986 l 640 986 q 762 949 711 986 q 839 851 813 911 q 865 725 865 792 q 845 611 865 667 q 789 508 825 556 q 705 426 753 460 q 601 378 657 392 l 747 0 l 606 0 l 469 354 l 228 354 l 153 0 l 28 0 m 531 465 q 609 486 572 465 q 675 542 646 507 q 720 622 704 578 q 736 711 736 665 q 720 794 736 757 q 676 853 704 831 q 610 875 647 875 l 339 875 l 251 465 l 531 465 m 425 1121 q 461 1200 435 1165 q 524 1255 488 1235 q 601 1275 561 1275 q 687 1240 654 1275 q 719 1154 719 1204 q 719 1138 719 1146 q 715 1121 718 1129 l 647 1121 q 649 1139 649 1131 q 650 1156 650 1147 q 593 1215 650 1215 q 527 1188 550 1215 q 494 1121 504 1161 l 425 1121 z "},"Ṟ":{"ha":879,"x_min":28,"x_max":865,"o":"m 28 0 l 238 986 l 640 986 q 762 949 711 986 q 839 851 813 911 q 865 725 865 792 q 845 611 865 667 q 789 508 825 556 q 705 426 753 460 q 601 378 657 392 l 747 0 l 606 0 l 469 354 l 228 354 l 153 0 l 28 0 m 531 465 q 609 486 572 465 q 675 542 646 507 q 720 622 704 578 q 736 711 736 665 q 720 794 736 757 q 676 853 704 831 q 610 875 647 875 l 339 875 l 251 465 l 531 465 m 119 -199 l 139 -118 l 507 -118 l 488 -199 l 119 -199 z "},"S":{"ha":817,"x_min":-17,"x_max":825,"o":"m 336 -10 q 139 26 229 -10 q -17 129 49 61 l 65 235 q 108 188 81 211 q 175 146 136 165 q 261 115 214 126 q 363 103 308 103 q 492 124 438 103 q 575 184 546 144 q 604 279 604 224 q 576 353 604 325 q 497 402 549 382 q 372 442 444 422 q 242 489 296 463 q 161 554 189 515 q 133 651 133 593 q 165 795 133 732 q 253 903 197 858 q 383 970 310 947 q 540 993 457 993 q 656 979 603 993 q 751 940 708 965 q 825 881 793 915 l 746 779 q 713 817 735 799 q 660 849 690 835 q 592 873 629 864 q 514 882 556 882 q 376 857 431 882 q 297 790 322 832 q 271 692 271 747 q 294 626 271 651 q 365 583 318 600 q 481 547 411 565 q 619 500 561 528 q 710 429 678 472 q 743 318 743 386 q 711 173 743 235 q 623 71 679 111 q 493 10 567 31 q 336 -10 419 -10 z "},"Ś":{"ha":817,"x_min":-17,"x_max":825,"o":"m 336 -10 q 139 26 229 -10 q -17 129 49 61 l 65 235 q 108 188 81 211 q 175 146 136 165 q 261 115 214 126 q 363 103 308 103 q 492 124 438 103 q 575 184 546 144 q 604 279 604 224 q 576 353 604 325 q 497 402 549 382 q 372 442 444 422 q 242 489 296 463 q 161 554 189 515 q 133 651 133 593 q 165 795 133 732 q 253 903 197 858 q 383 970 310 947 q 540 993 457 993 q 656 979 603 993 q 751 940 708 965 q 825 881 793 915 l 746 779 q 713 817 735 799 q 660 849 690 835 q 592 873 629 864 q 514 882 556 882 q 376 857 431 882 q 297 790 322 832 q 271 692 271 747 q 294 626 271 651 q 365 583 318 600 q 481 547 411 565 q 619 500 561 528 q 710 429 678 472 q 743 318 743 386 q 711 173 743 235 q 623 71 679 111 q 493 10 567 31 q 336 -10 419 -10 m 601 1122 l 526 1150 l 632 1290 l 753 1290 l 601 1122 z "},"Ṥ":{"ha":817,"x_min":-17,"x_max":825,"o":"m 336 -10 q 139 26 229 -10 q -17 129 49 61 l 65 235 q 108 188 81 211 q 175 146 136 165 q 261 115 214 126 q 363 103 308 103 q 492 124 438 103 q 575 184 546 144 q 604 279 604 224 q 576 353 604 325 q 497 402 549 382 q 372 442 444 422 q 242 489 296 463 q 161 554 189 515 q 133 651 133 593 q 165 795 133 732 q 253 903 197 858 q 383 970 310 947 q 540 993 457 993 q 656 979 603 993 q 751 940 708 965 q 825 881 793 915 l 746 779 q 713 817 735 799 q 660 849 690 835 q 592 873 629 864 q 514 882 556 882 q 376 857 431 882 q 297 790 322 832 q 271 692 271 747 q 294 626 271 651 q 365 583 318 600 q 481 547 411 565 q 619 500 561 528 q 710 429 678 472 q 743 318 743 386 q 711 173 743 235 q 623 71 679 111 q 493 10 567 31 q 336 -10 419 -10 m 601 1122 l 526 1150 l 632 1290 l 753 1290 l 601 1122 m 615 1432 l 647 1579 l 757 1579 l 726 1432 l 615 1432 z "},"Š":{"ha":817,"x_min":-17,"x_max":825,"o":"m 336 -10 q 139 26 229 -10 q -17 129 49 61 l 65 235 q 108 188 81 211 q 175 146 136 165 q 261 115 214 126 q 363 103 308 103 q 492 124 438 103 q 575 184 546 144 q 604 279 604 224 q 576 353 604 325 q 497 402 549 382 q 372 442 444 422 q 242 489 296 463 q 161 554 189 515 q 133 651 133 593 q 165 795 133 732 q 253 903 197 858 q 383 970 310 947 q 540 993 457 993 q 656 979 603 993 q 751 940 708 965 q 825 881 793 915 l 746 779 q 713 817 735 799 q 660 849 690 835 q 592 873 629 864 q 514 882 556 882 q 376 857 431 882 q 297 790 322 832 q 271 692 271 747 q 294 626 271 651 q 365 583 318 600 q 481 547 411 565 q 619 500 561 528 q 710 429 678 472 q 743 318 743 386 q 711 173 743 235 q 623 71 679 111 q 493 10 567 31 q 336 -10 419 -10 m 413 1257 l 486 1290 l 579 1203 l 710 1290 l 769 1257 l 608 1132 l 519 1132 l 413 1257 z "},"Ş":{"ha":817,"x_min":-17,"x_max":825,"o":"m 336 -10 q 139 26 229 -10 q -17 129 49 61 l 65 235 q 108 188 81 211 q 175 146 136 165 q 261 115 214 126 q 363 103 308 103 q 492 124 438 103 q 575 184 546 144 q 604 279 604 224 q 576 353 604 325 q 497 402 549 382 q 372 442 444 422 q 242 489 296 463 q 161 554 189 515 q 133 651 133 593 q 165 795 133 732 q 253 903 197 858 q 383 970 310 947 q 540 993 457 993 q 656 979 603 993 q 751 940 708 965 q 825 881 793 915 l 746 779 q 713 817 735 799 q 660 849 690 835 q 592 873 629 864 q 514 882 556 882 q 376 857 431 882 q 297 790 322 832 q 271 692 271 747 q 294 626 271 651 q 365 583 318 600 q 481 547 411 565 q 619 500 561 528 q 710 429 678 472 q 743 318 743 386 q 711 173 743 235 q 623 71 679 111 q 493 10 567 31 q 336 -10 419 -10 m 257 -258 q 190 -249 225 -258 q 125 -219 156 -239 l 174 -151 q 212 -174 193 -165 q 256 -182 231 -182 q 324 -160 299 -182 q 350 -96 350 -137 q 336 -45 350 -68 q 296 0 322 -22 l 344 32 q 399 -29 378 4 q 421 -106 421 -62 q 401 -185 421 -151 q 344 -239 381 -219 q 257 -258 307 -258 z "},"Ŝ":{"ha":817,"x_min":-17,"x_max":825,"o":"m 336 -10 q 139 26 229 -10 q -17 129 49 61 l 65 235 q 108 188 81 211 q 175 146 136 165 q 261 115 214 126 q 363 103 308 103 q 492 124 438 103 q 575 184 546 144 q 604 279 604 224 q 576 353 604 325 q 497 402 549 382 q 372 442 444 422 q 242 489 296 463 q 161 554 189 515 q 133 651 133 593 q 165 795 133 732 q 253 903 197 858 q 383 970 310 947 q 540 993 457 993 q 656 979 603 993 q 751 940 708 965 q 825 881 793 915 l 746 779 q 713 817 735 799 q 660 849 690 835 q 592 873 629 864 q 514 882 556 882 q 376 857 431 882 q 297 790 322 832 q 271 692 271 747 q 294 626 271 651 q 365 583 318 600 q 481 547 411 565 q 619 500 561 528 q 710 429 678 472 q 743 318 743 386 q 711 173 743 235 q 623 71 679 111 q 493 10 567 31 q 336 -10 419 -10 m 403 1165 l 564 1290 l 653 1290 l 760 1165 l 686 1132 l 593 1219 l 463 1132 l 403 1165 z "},"Ș":{"ha":817,"x_min":-17,"x_max":825,"o":"m 336 -10 q 139 26 229 -10 q -17 129 49 61 l 65 235 q 108 188 81 211 q 175 146 136 165 q 261 115 214 126 q 363 103 308 103 q 492 124 438 103 q 575 184 546 144 q 604 279 604 224 q 576 353 604 325 q 497 402 549 382 q 372 442 444 422 q 242 489 296 463 q 161 554 189 515 q 133 651 133 593 q 165 795 133 732 q 253 903 197 858 q 383 970 310 947 q 540 993 457 993 q 656 979 603 993 q 751 940 708 965 q 825 881 793 915 l 746 779 q 713 817 735 799 q 660 849 690 835 q 592 873 629 864 q 514 882 556 882 q 376 857 431 882 q 297 790 322 832 q 271 692 271 747 q 294 626 271 651 q 365 583 318 600 q 481 547 411 565 q 619 500 561 528 q 710 429 678 472 q 743 318 743 386 q 711 173 743 235 q 623 71 679 111 q 493 10 567 31 q 336 -10 419 -10 m 224 -296 l 275 -183 l 240 -183 l 265 -67 l 372 -67 l 347 -183 l 283 -296 l 224 -296 z "},"Ṣ":{"ha":817,"x_min":-17,"x_max":825,"o":"m 336 -10 q 139 26 229 -10 q -17 129 49 61 l 65 235 q 108 188 81 211 q 175 146 136 165 q 261 115 214 126 q 363 103 308 103 q 492 124 438 103 q 575 184 546 144 q 604 279 604 224 q 576 353 604 325 q 497 402 549 382 q 372 442 444 422 q 242 489 296 463 q 161 554 189 515 q 133 651 133 593 q 165 795 133 732 q 253 903 197 858 q 383 970 310 947 q 540 993 457 993 q 656 979 603 993 q 751 940 708 965 q 825 881 793 915 l 746 779 q 713 817 735 799 q 660 849 690 835 q 592 873 629 864 q 514 882 556 882 q 376 857 431 882 q 297 790 322 832 q 271 692 271 747 q 294 626 271 651 q 365 583 318 600 q 481 547 411 565 q 619 500 561 528 q 710 429 678 472 q 743 318 743 386 q 711 173 743 235 q 623 71 679 111 q 493 10 567 31 q 336 -10 419 -10 m 224 -253 l 256 -106 l 365 -106 l 335 -253 l 224 -253 z "},"ẞ":{"ha":876,"x_min":22,"x_max":838,"o":"m 468 -14 q 315 16 383 -14 q 206 106 246 46 l 271 192 q 370 108 317 133 q 485 83 424 83 q 578 99 538 83 q 643 143 619 114 q 667 214 667 172 q 647 263 667 246 q 591 291 626 279 q 508 318 556 303 q 410 360 450 338 q 349 413 369 382 q 329 488 329 443 q 366 623 329 571 q 464 705 403 675 q 600 749 525 735 q 751 772 675 764 l 721 738 q 676 849 728 813 q 550 886 625 886 q 420 854 476 886 q 329 770 364 822 q 281 657 294 718 l 136 0 l 22 0 l 171 676 q 251 840 192 769 q 397 951 311 911 q 576 992 482 992 q 722 959 663 992 q 809 868 781 926 q 832 731 838 810 l 829 693 q 679 669 749 679 q 558 642 610 658 q 477 597 506 626 q 449 518 449 568 q 483 456 449 476 q 578 417 517 436 q 689 375 642 396 q 763 324 736 354 q 789 242 789 293 q 747 106 789 164 q 633 17 706 49 q 468 -14 561 -14 z "},"Ə":{"ha":981,"x_min":38,"x_max":950,"o":"m 392 -7 q 247 24 313 -7 q 135 109 182 54 q 63 236 88 164 q 38 392 38 308 q 49 491 38 451 q 67 544 60 531 l 811 544 q 813 569 813 557 q 814 594 814 582 q 783 742 814 678 q 699 842 753 806 q 574 878 646 878 q 455 854 514 878 q 349 789 396 831 q 274 693 301 747 l 165 747 q 288 876 215 821 q 443 962 360 931 q 608 993 526 993 q 749 963 686 993 q 856 877 811 932 q 926 749 901 822 q 950 592 950 676 q 919 405 950 494 q 835 240 889 315 q 711 110 782 165 q 559 24 640 54 q 392 -7 478 -7 m 418 106 q 538 131 479 106 q 646 200 596 156 q 733 305 696 244 q 790 436 771 365 l 167 436 q 161 401 163 418 q 160 365 160 383 q 177 264 160 311 q 227 181 194 217 q 308 126 260 146 q 418 106 356 106 z "},"T":{"ha":814,"x_min":119,"x_max":910,"o":"m 440 875 l 119 875 l 143 986 l 910 986 l 886 875 l 565 875 l 379 0 l 254 0 l 440 875 z "},"Ŧ":{"ha":857,"x_min":103,"x_max":931,"o":"m 117 551 l 793 551 l 779 486 l 103 486 l 117 551 m 461 875 l 140 875 l 164 986 l 931 986 l 907 875 l 586 875 l 400 0 l 275 0 l 461 875 z "},"Ť":{"ha":814,"x_min":119,"x_max":910,"o":"m 440 875 l 119 875 l 143 986 l 910 986 l 886 875 l 565 875 l 379 0 l 254 0 l 440 875 m 394 1239 l 468 1272 l 561 1185 l 692 1272 l 751 1239 l 590 1114 l 501 1114 l 394 1239 z "},"Ţ":{"ha":814,"x_min":111,"x_max":910,"o":"m 440 875 l 119 875 l 143 986 l 910 986 l 886 875 l 565 875 l 379 0 l 254 0 l 440 875 m 243 -258 q 176 -249 211 -258 q 111 -219 142 -239 l 160 -151 q 198 -174 179 -165 q 242 -182 217 -182 q 310 -160 285 -182 q 336 -96 336 -137 q 322 -45 336 -68 q 282 0 308 -22 l 331 32 q 385 -29 364 4 q 407 -106 407 -62 q 387 -185 407 -151 q 330 -239 367 -219 q 243 -258 293 -258 z "},"Ț":{"ha":814,"x_min":119,"x_max":910,"o":"m 440 875 l 119 875 l 143 986 l 910 986 l 886 875 l 565 875 l 379 0 l 254 0 l 440 875 m 210 -296 l 261 -183 l 226 -183 l 251 -67 l 358 -67 l 333 -183 l 269 -296 l 210 -296 z "},"Ṭ":{"ha":814,"x_min":119,"x_max":910,"o":"m 440 875 l 119 875 l 143 986 l 910 986 l 886 875 l 565 875 l 379 0 l 254 0 l 440 875 m 210 -253 l 242 -106 l 351 -106 l 321 -253 l 210 -253 z "},"Ṯ":{"ha":814,"x_min":88,"x_max":910,"o":"m 440 875 l 119 875 l 143 986 l 910 986 l 886 875 l 565 875 l 379 0 l 254 0 l 440 875 m 88 -199 l 107 -118 l 475 -118 l 456 -199 l 88 -199 z "},"U":{"ha":1007,"x_min":99,"x_max":1024,"o":"m 414 -7 q 229 38 299 -7 q 129 156 160 82 q 99 322 99 231 q 103 403 99 363 q 118 488 108 444 l 224 986 l 349 986 l 243 488 q 231 414 235 450 q 226 343 226 378 q 246 223 226 276 q 312 138 265 169 q 436 106 358 106 q 577 138 517 106 q 680 226 638 171 q 750 349 722 281 q 793 488 778 417 l 899 986 l 1024 986 l 918 488 q 856 298 897 388 q 752 140 814 208 q 606 33 690 72 q 414 -7 522 -7 z "},"Ú":{"ha":1007,"x_min":99,"x_max":1024,"o":"m 414 -7 q 229 38 299 -7 q 129 156 160 82 q 99 322 99 231 q 103 403 99 363 q 118 488 108 444 l 224 986 l 349 986 l 243 488 q 231 414 235 450 q 226 343 226 378 q 246 223 226 276 q 312 138 265 169 q 436 106 358 106 q 577 138 517 106 q 680 226 638 171 q 750 349 722 281 q 793 488 778 417 l 899 986 l 1024 986 l 918 488 q 856 298 897 388 q 752 140 814 208 q 606 33 690 72 q 414 -7 522 -7 m 672 1104 l 597 1132 l 703 1272 l 824 1272 l 672 1104 z "},"Ŭ":{"ha":1007,"x_min":99,"x_max":1024,"o":"m 414 -7 q 229 38 299 -7 q 129 156 160 82 q 99 322 99 231 q 103 403 99 363 q 118 488 108 444 l 224 986 l 349 986 l 243 488 q 231 414 235 450 q 226 343 226 378 q 246 223 226 276 q 312 138 265 169 q 436 106 358 106 q 577 138 517 106 q 680 226 638 171 q 750 349 722 281 q 793 488 778 417 l 899 986 l 1024 986 l 918 488 q 856 298 897 388 q 752 140 814 208 q 606 33 690 72 q 414 -7 522 -7 m 657 1178 q 713 1205 685 1178 q 753 1272 740 1232 l 822 1272 q 787 1194 814 1229 q 723 1138 760 1158 q 644 1118 686 1118 q 558 1151 590 1118 q 526 1236 526 1185 q 528 1254 526 1246 q 531 1272 529 1263 l 601 1272 q 599 1261 600 1267 q 599 1249 599 1256 q 615 1199 599 1219 q 657 1178 631 1178 z "},"Û":{"ha":1007,"x_min":99,"x_max":1024,"o":"m 414 -7 q 229 38 299 -7 q 129 156 160 82 q 99 322 99 231 q 103 403 99 363 q 118 488 108 444 l 224 986 l 349 986 l 243 488 q 231 414 235 450 q 226 343 226 378 q 246 223 226 276 q 312 138 265 169 q 436 106 358 106 q 577 138 517 106 q 680 226 638 171 q 750 349 722 281 q 793 488 778 417 l 899 986 l 1024 986 l 918 488 q 856 298 897 388 q 752 140 814 208 q 606 33 690 72 q 414 -7 522 -7 m 474 1147 l 635 1272 l 724 1272 l 831 1147 l 757 1114 l 664 1201 l 533 1114 l 474 1147 z "},"Ȕ":{"ha":1007,"x_min":99,"x_max":1024,"o":"m 414 -7 q 229 38 299 -7 q 129 156 160 82 q 99 322 99 231 q 103 403 99 363 q 118 488 108 444 l 224 986 l 349 986 l 243 488 q 231 414 235 450 q 226 343 226 378 q 246 223 226 276 q 312 138 265 169 q 436 106 358 106 q 577 138 517 106 q 680 226 638 171 q 750 349 722 281 q 793 488 778 417 l 899 986 l 1024 986 l 918 488 q 856 298 897 388 q 752 140 814 208 q 606 33 690 72 q 414 -7 522 -7 m 622 1274 l 725 1274 l 767 1133 l 697 1106 l 622 1274 m 439 1274 l 543 1274 l 583 1133 l 514 1106 l 439 1274 z "},"Ü":{"ha":1007,"x_min":99,"x_max":1024,"o":"m 414 -7 q 229 38 299 -7 q 129 156 160 82 q 99 322 99 231 q 103 403 99 363 q 118 488 108 444 l 224 986 l 349 986 l 243 488 q 231 414 235 450 q 226 343 226 378 q 246 223 226 276 q 312 138 265 169 q 436 106 358 106 q 577 138 517 106 q 680 226 638 171 q 750 349 722 281 q 793 488 778 417 l 899 986 l 1024 986 l 918 488 q 856 298 897 388 q 752 140 814 208 q 606 33 690 72 q 414 -7 522 -7 m 488 1125 l 518 1267 l 621 1267 l 590 1125 l 488 1125 m 706 1125 l 736 1267 l 838 1267 l 808 1125 l 706 1125 z "},"Ụ":{"ha":1007,"x_min":99,"x_max":1024,"o":"m 414 -7 q 229 38 299 -7 q 129 156 160 82 q 99 322 99 231 q 103 403 99 363 q 118 488 108 444 l 224 986 l 349 986 l 243 488 q 231 414 235 450 q 226 343 226 378 q 246 223 226 276 q 312 138 265 169 q 436 106 358 106 q 577 138 517 106 q 680 226 638 171 q 750 349 722 281 q 793 488 778 417 l 899 986 l 1024 986 l 918 488 q 856 298 897 388 q 752 140 814 208 q 606 33 690 72 q 414 -7 522 -7 m 313 -253 l 344 -106 l 454 -106 l 424 -253 l 313 -253 z "},"Ù":{"ha":1007,"x_min":99,"x_max":1024,"o":"m 414 -7 q 229 38 299 -7 q 129 156 160 82 q 99 322 99 231 q 103 403 99 363 q 118 488 108 444 l 224 986 l 349 986 l 243 488 q 231 414 235 450 q 226 343 226 378 q 246 223 226 276 q 312 138 265 169 q 436 106 358 106 q 577 138 517 106 q 680 226 638 171 q 750 349 722 281 q 793 488 778 417 l 899 986 l 1024 986 l 918 488 q 856 298 897 388 q 752 140 814 208 q 606 33 690 72 q 414 -7 522 -7 m 490 1272 l 610 1272 l 657 1132 l 572 1104 l 490 1272 z "},"Ủ":{"ha":1007,"x_min":99,"x_max":1024,"o":"m 414 -7 q 229 38 299 -7 q 129 156 160 82 q 99 322 99 231 q 103 403 99 363 q 118 488 108 444 l 224 986 l 349 986 l 243 488 q 231 414 235 450 q 226 343 226 378 q 246 223 226 276 q 312 138 265 169 q 436 106 358 106 q 577 138 517 106 q 680 226 638 171 q 750 349 722 281 q 793 488 778 417 l 899 986 l 1024 986 l 918 488 q 856 298 897 388 q 752 140 814 208 q 606 33 690 72 q 414 -7 522 -7 m 586 1225 l 558 1271 q 628 1308 593 1294 q 699 1321 663 1321 q 761 1292 749 1321 q 761 1229 774 1264 q 721 1171 751 1201 q 636 1107 690 1140 l 617 1147 q 665 1185 650 1169 q 685 1218 679 1201 q 685 1244 692 1233 q 663 1256 679 1256 q 629 1249 644 1256 q 586 1225 614 1243 z "},"Ư":{"ha":1007,"x_min":99,"x_max":1218,"o":"m 414 -7 q 229 38 299 -7 q 129 156 160 82 q 99 322 99 231 q 103 403 99 363 q 118 488 108 444 l 224 986 l 349 986 l 243 488 q 231 414 235 450 q 226 343 226 378 q 246 223 226 276 q 312 138 265 169 q 436 106 358 106 q 577 138 517 106 q 680 226 638 171 q 750 349 722 281 q 793 488 778 417 l 899 986 l 1024 986 l 918 488 q 856 298 897 388 q 752 140 814 208 q 606 33 690 72 q 414 -7 522 -7 m 942 896 l 961 985 q 1037 992 1010 985 q 1079 1017 1064 1000 q 1104 1055 1096 1035 q 1118 1101 1113 1075 l 1218 1101 q 1202 1051 1211 1076 q 1179 1003 1193 1026 q 1143 960 1165 981 q 1090 924 1121 939 q 1021 903 1058 910 q 942 896 983 896 z "},"Ứ":{"ha":1007,"x_min":99,"x_max":1218,"o":"m 414 -7 q 229 38 299 -7 q 129 156 160 82 q 99 322 99 231 q 103 403 99 363 q 118 488 108 444 l 224 986 l 349 986 l 243 488 q 231 414 235 450 q 226 343 226 378 q 246 223 226 276 q 312 138 265 169 q 436 106 358 106 q 577 138 517 106 q 680 226 638 171 q 750 349 722 281 q 793 488 778 417 l 899 986 l 1024 986 l 918 488 q 856 298 897 388 q 752 140 814 208 q 606 33 690 72 q 414 -7 522 -7 m 942 896 l 961 985 q 1037 992 1010 985 q 1079 1017 1064 1000 q 1104 1055 1096 1035 q 1118 1101 1113 1075 l 1218 1101 q 1202 1051 1211 1076 q 1179 1003 1193 1026 q 1143 960 1165 981 q 1090 924 1121 939 q 1021 903 1058 910 q 942 896 983 896 m 672 1104 l 597 1132 l 703 1272 l 824 1272 l 672 1104 z "},"Ự":{"ha":1007,"x_min":99,"x_max":1218,"o":"m 414 -7 q 229 38 299 -7 q 129 156 160 82 q 99 322 99 231 q 103 403 99 363 q 118 488 108 444 l 224 986 l 349 986 l 243 488 q 231 414 235 450 q 226 343 226 378 q 246 223 226 276 q 312 138 265 169 q 436 106 358 106 q 577 138 517 106 q 680 226 638 171 q 750 349 722 281 q 793 488 778 417 l 899 986 l 1024 986 l 918 488 q 856 298 897 388 q 752 140 814 208 q 606 33 690 72 q 414 -7 522 -7 m 942 896 l 961 985 q 1037 992 1010 985 q 1079 1017 1064 1000 q 1104 1055 1096 1035 q 1118 1101 1113 1075 l 1218 1101 q 1202 1051 1211 1076 q 1179 1003 1193 1026 q 1143 960 1165 981 q 1090 924 1121 939 q 1021 903 1058 910 q 942 896 983 896 m 313 -253 l 344 -106 l 454 -106 l 424 -253 l 313 -253 z "},"Ừ":{"ha":1007,"x_min":99,"x_max":1218,"o":"m 414 -7 q 229 38 299 -7 q 129 156 160 82 q 99 322 99 231 q 103 403 99 363 q 118 488 108 444 l 224 986 l 349 986 l 243 488 q 231 414 235 450 q 226 343 226 378 q 246 223 226 276 q 312 138 265 169 q 436 106 358 106 q 577 138 517 106 q 680 226 638 171 q 750 349 722 281 q 793 488 778 417 l 899 986 l 1024 986 l 918 488 q 856 298 897 388 q 752 140 814 208 q 606 33 690 72 q 414 -7 522 -7 m 942 896 l 961 985 q 1037 992 1010 985 q 1079 1017 1064 1000 q 1104 1055 1096 1035 q 1118 1101 1113 1075 l 1218 1101 q 1202 1051 1211 1076 q 1179 1003 1193 1026 q 1143 960 1165 981 q 1090 924 1121 939 q 1021 903 1058 910 q 942 896 983 896 m 490 1272 l 610 1272 l 657 1132 l 572 1104 l 490 1272 z "},"Ử":{"ha":1007,"x_min":99,"x_max":1218,"o":"m 414 -7 q 229 38 299 -7 q 129 156 160 82 q 99 322 99 231 q 103 403 99 363 q 118 488 108 444 l 224 986 l 349 986 l 243 488 q 231 414 235 450 q 226 343 226 378 q 246 223 226 276 q 312 138 265 169 q 436 106 358 106 q 577 138 517 106 q 680 226 638 171 q 750 349 722 281 q 793 488 778 417 l 899 986 l 1024 986 l 918 488 q 856 298 897 388 q 752 140 814 208 q 606 33 690 72 q 414 -7 522 -7 m 942 896 l 961 985 q 1037 992 1010 985 q 1079 1017 1064 1000 q 1104 1055 1096 1035 q 1118 1101 1113 1075 l 1218 1101 q 1202 1051 1211 1076 q 1179 1003 1193 1026 q 1143 960 1165 981 q 1090 924 1121 939 q 1021 903 1058 910 q 942 896 983 896 m 586 1225 l 558 1271 q 628 1308 593 1294 q 699 1321 663 1321 q 761 1292 749 1321 q 761 1229 774 1264 q 721 1171 751 1201 q 636 1107 690 1140 l 617 1147 q 665 1185 650 1169 q 685 1218 679 1201 q 685 1244 692 1233 q 663 1256 679 1256 q 629 1249 644 1256 q 586 1225 614 1243 z "},"Ữ":{"ha":1007,"x_min":99,"x_max":1218,"o":"m 414 -7 q 229 38 299 -7 q 129 156 160 82 q 99 322 99 231 q 103 403 99 363 q 118 488 108 444 l 224 986 l 349 986 l 243 488 q 231 414 235 450 q 226 343 226 378 q 246 223 226 276 q 312 138 265 169 q 436 106 358 106 q 577 138 517 106 q 680 226 638 171 q 750 349 722 281 q 793 488 778 417 l 899 986 l 1024 986 l 918 488 q 856 298 897 388 q 752 140 814 208 q 606 33 690 72 q 414 -7 522 -7 m 942 896 l 961 985 q 1037 992 1010 985 q 1079 1017 1064 1000 q 1104 1055 1096 1035 q 1118 1101 1113 1075 l 1218 1101 q 1202 1051 1211 1076 q 1179 1003 1193 1026 q 1143 960 1165 981 q 1090 924 1121 939 q 1021 903 1058 910 q 942 896 983 896 m 731 1129 q 667 1144 692 1129 q 622 1173 642 1158 q 572 1188 601 1188 q 526 1172 543 1188 q 501 1140 508 1157 q 494 1121 494 1124 l 422 1121 q 435 1152 425 1129 q 467 1201 446 1175 q 517 1245 488 1226 q 586 1264 547 1264 q 633 1255 614 1264 q 669 1234 653 1246 q 702 1213 685 1222 q 743 1204 719 1204 q 796 1220 776 1204 q 824 1253 815 1236 q 832 1272 832 1269 l 903 1272 q 890 1242 901 1264 q 858 1193 879 1219 q 805 1148 836 1167 q 731 1129 774 1129 z "},"Ű":{"ha":1007,"x_min":99,"x_max":1024,"o":"m 414 -7 q 229 38 299 -7 q 129 156 160 82 q 99 322 99 231 q 103 403 99 363 q 118 488 108 444 l 224 986 l 349 986 l 243 488 q 231 414 235 450 q 226 343 226 378 q 246 223 226 276 q 312 138 265 169 q 436 106 358 106 q 577 138 517 106 q 680 226 638 171 q 750 349 722 281 q 793 488 778 417 l 899 986 l 1024 986 l 918 488 q 856 298 897 388 q 752 140 814 208 q 606 33 690 72 q 414 -7 522 -7 m 567 1104 l 510 1132 l 610 1272 l 714 1272 l 567 1104 m 750 1104 l 693 1132 l 793 1272 l 897 1272 l 750 1104 z "},"Ȗ":{"ha":1007,"x_min":99,"x_max":1024,"o":"m 414 -7 q 229 38 299 -7 q 129 156 160 82 q 99 322 99 231 q 103 403 99 363 q 118 488 108 444 l 224 986 l 349 986 l 243 488 q 231 414 235 450 q 226 343 226 378 q 246 223 226 276 q 312 138 265 169 q 436 106 358 106 q 577 138 517 106 q 680 226 638 171 q 750 349 722 281 q 793 488 778 417 l 899 986 l 1024 986 l 918 488 q 856 298 897 388 q 752 140 814 208 q 606 33 690 72 q 414 -7 522 -7 m 496 1118 q 532 1197 506 1163 q 595 1252 558 1232 q 672 1272 632 1272 q 758 1237 725 1272 q 790 1151 790 1201 q 790 1135 790 1143 q 786 1118 789 1126 l 718 1118 q 720 1136 719 1128 q 721 1153 721 1144 q 664 1213 721 1213 q 598 1185 621 1213 q 565 1118 575 1158 l 496 1118 z "},"Ū":{"ha":1007,"x_min":99,"x_max":1024,"o":"m 414 -7 q 229 38 299 -7 q 129 156 160 82 q 99 322 99 231 q 103 403 99 363 q 118 488 108 444 l 224 986 l 349 986 l 243 488 q 231 414 235 450 q 226 343 226 378 q 246 223 226 276 q 312 138 265 169 q 436 106 358 106 q 577 138 517 106 q 680 226 638 171 q 750 349 722 281 q 793 488 778 417 l 899 986 l 1024 986 l 918 488 q 856 298 897 388 q 752 140 814 208 q 606 33 690 72 q 414 -7 522 -7 m 461 1164 l 478 1244 l 865 1244 l 847 1164 l 461 1164 z "},"Ṻ":{"ha":1007,"x_min":99,"x_max":1024,"o":"m 414 -7 q 229 38 299 -7 q 129 156 160 82 q 99 322 99 231 q 103 403 99 363 q 118 488 108 444 l 224 986 l 349 986 l 243 488 q 231 414 235 450 q 226 343 226 378 q 246 223 226 276 q 312 138 265 169 q 436 106 358 106 q 577 138 517 106 q 680 226 638 171 q 750 349 722 281 q 793 488 778 417 l 899 986 l 1024 986 l 918 488 q 856 298 897 388 q 752 140 814 208 q 606 33 690 72 q 414 -7 522 -7 m 461 1164 l 478 1244 l 865 1244 l 847 1164 l 461 1164 m 543 1386 l 574 1528 l 676 1528 l 646 1386 l 543 1386 m 761 1386 l 792 1528 l 893 1528 l 864 1386 l 761 1386 z "},"Ų":{"ha":1007,"x_min":99,"x_max":1024,"o":"m 414 -7 q 229 38 299 -7 q 129 156 160 82 q 99 322 99 231 q 103 403 99 363 q 118 488 108 444 l 224 986 l 349 986 l 243 488 q 231 414 235 450 q 226 343 226 378 q 246 223 226 276 q 312 138 265 169 q 436 106 358 106 q 577 138 517 106 q 680 226 638 171 q 750 349 722 281 q 793 488 778 417 l 899 986 l 1024 986 l 918 488 q 856 298 897 388 q 752 140 814 208 q 606 33 690 72 q 414 -7 522 -7 m 292 -171 q 327 -74 292 -121 q 436 25 363 -26 l 471 25 l 482 0 q 399 -83 425 -50 q 372 -143 372 -115 q 389 -173 372 -164 q 435 -185 406 -182 l 389 -262 q 313 -228 333 -256 q 292 -171 292 -201 z "},"Ů":{"ha":1007,"x_min":99,"x_max":1024,"o":"m 414 -7 q 229 38 299 -7 q 129 156 160 82 q 99 322 99 231 q 103 403 99 363 q 118 488 108 444 l 224 986 l 349 986 l 243 488 q 231 414 235 450 q 226 343 226 378 q 246 223 226 276 q 312 138 265 169 q 436 106 358 106 q 577 138 517 106 q 680 226 638 171 q 750 349 722 281 q 793 488 778 417 l 899 986 l 1024 986 l 918 488 q 856 298 897 388 q 752 140 814 208 q 606 33 690 72 q 414 -7 522 -7 m 547 1158 q 586 1241 547 1210 q 679 1272 625 1272 q 746 1251 722 1272 q 769 1194 769 1231 q 732 1113 769 1144 q 638 1081 694 1081 q 572 1102 596 1081 q 547 1158 547 1124 m 669 1229 q 624 1212 644 1229 q 604 1167 604 1194 q 616 1136 604 1149 q 647 1124 628 1124 q 692 1142 671 1124 q 714 1186 714 1160 q 701 1217 714 1206 q 669 1229 689 1229 z "},"Ũ":{"ha":1007,"x_min":99,"x_max":1024,"o":"m 414 -7 q 229 38 299 -7 q 129 156 160 82 q 99 322 99 231 q 103 403 99 363 q 118 488 108 444 l 224 986 l 349 986 l 243 488 q 231 414 235 450 q 226 343 226 378 q 246 223 226 276 q 312 138 265 169 q 436 106 358 106 q 577 138 517 106 q 680 226 638 171 q 750 349 722 281 q 793 488 778 417 l 899 986 l 1024 986 l 918 488 q 856 298 897 388 q 752 140 814 208 q 606 33 690 72 q 414 -7 522 -7 m 731 1129 q 667 1144 692 1129 q 622 1173 642 1158 q 572 1188 601 1188 q 526 1172 543 1188 q 501 1140 508 1157 q 494 1121 494 1124 l 422 1121 q 435 1152 425 1129 q 467 1201 446 1175 q 517 1245 488 1226 q 586 1264 547 1264 q 633 1255 614 1264 q 669 1234 653 1246 q 702 1213 685 1222 q 743 1204 719 1204 q 796 1220 776 1204 q 824 1253 815 1236 q 832 1272 832 1269 l 903 1272 q 890 1242 901 1264 q 858 1193 879 1219 q 805 1148 836 1167 q 731 1129 774 1129 z "},"Ṹ":{"ha":1007,"x_min":99,"x_max":1024,"o":"m 414 -7 q 229 38 299 -7 q 129 156 160 82 q 99 322 99 231 q 103 403 99 363 q 118 488 108 444 l 224 986 l 349 986 l 243 488 q 231 414 235 450 q 226 343 226 378 q 246 223 226 276 q 312 138 265 169 q 436 106 358 106 q 577 138 517 106 q 680 226 638 171 q 750 349 722 281 q 793 488 778 417 l 899 986 l 1024 986 l 918 488 q 856 298 897 388 q 752 140 814 208 q 606 33 690 72 q 414 -7 522 -7 m 731 1129 q 667 1144 692 1129 q 622 1173 642 1158 q 572 1188 601 1188 q 526 1172 543 1188 q 501 1140 508 1157 q 494 1121 494 1124 l 422 1121 q 435 1152 425 1129 q 467 1201 446 1175 q 517 1245 488 1226 q 586 1264 547 1264 q 633 1255 614 1264 q 669 1234 653 1246 q 702 1213 685 1222 q 743 1204 719 1204 q 796 1220 776 1204 q 824 1253 815 1236 q 832 1272 832 1269 l 903 1272 q 890 1242 901 1264 q 858 1193 879 1219 q 805 1148 836 1167 q 731 1129 774 1129 m 735 1393 l 660 1421 l 765 1561 l 886 1561 l 735 1393 z "},"V":{"ha":903,"x_min":132,"x_max":1003,"o":"m 132 986 l 264 986 l 392 157 l 871 986 l 1003 986 l 413 0 l 304 0 l 132 986 z "},"W":{"ha":1392,"x_min":129,"x_max":1494,"o":"m 129 986 l 264 986 l 397 144 l 640 551 l 569 981 l 688 981 l 736 638 l 932 981 l 1050 981 l 797 551 l 867 144 l 1357 986 l 1494 986 l 893 0 l 786 0 l 701 465 l 417 0 l 310 0 l 129 986 z "},"Ẃ":{"ha":1392,"x_min":129,"x_max":1494,"o":"m 129 986 l 264 986 l 397 144 l 640 551 l 569 981 l 688 981 l 736 638 l 932 981 l 1050 981 l 797 551 l 867 144 l 1357 986 l 1494 986 l 893 0 l 786 0 l 701 465 l 417 0 l 310 0 l 129 986 m 864 1104 l 789 1132 l 894 1272 l 1015 1272 l 864 1104 z "},"Ŵ":{"ha":1392,"x_min":129,"x_max":1494,"o":"m 129 986 l 264 986 l 397 144 l 640 551 l 569 981 l 688 981 l 736 638 l 932 981 l 1050 981 l 797 551 l 867 144 l 1357 986 l 1494 986 l 893 0 l 786 0 l 701 465 l 417 0 l 310 0 l 129 986 m 665 1147 l 826 1272 l 915 1272 l 1022 1147 l 949 1114 l 856 1201 l 725 1114 l 665 1147 z "},"Ẅ":{"ha":1392,"x_min":129,"x_max":1494,"o":"m 129 986 l 264 986 l 397 144 l 640 551 l 569 981 l 688 981 l 736 638 l 932 981 l 1050 981 l 797 551 l 867 144 l 1357 986 l 1494 986 l 893 0 l 786 0 l 701 465 l 417 0 l 310 0 l 129 986 m 679 1125 l 710 1267 l 813 1267 l 782 1125 l 679 1125 m 897 1125 l 928 1267 l 1029 1267 l 1000 1125 l 897 1125 z "},"Ẁ":{"ha":1392,"x_min":129,"x_max":1494,"o":"m 129 986 l 264 986 l 397 144 l 640 551 l 569 981 l 688 981 l 736 638 l 932 981 l 1050 981 l 797 551 l 867 144 l 1357 986 l 1494 986 l 893 0 l 786 0 l 701 465 l 417 0 l 310 0 l 129 986 m 682 1272 l 801 1272 l 849 1132 l 764 1104 l 682 1272 z "},"X":{"ha":847,"x_min":-72,"x_max":963,"o":"m 371 486 l 126 986 l 265 986 l 458 575 l 825 986 l 963 986 l 506 486 l 742 0 l 604 0 l 419 397 l 67 0 l -72 0 l 371 486 z "},"Y":{"ha":850,"x_min":124,"x_max":957,"o":"m 344 363 l 124 986 l 261 986 l 431 472 l 821 986 l 957 986 l 468 360 l 392 0 l 267 0 l 344 363 z "},"Ý":{"ha":850,"x_min":124,"x_max":957,"o":"m 344 363 l 124 986 l 261 986 l 431 472 l 821 986 l 957 986 l 468 360 l 392 0 l 267 0 l 344 363 m 572 1104 l 497 1132 l 603 1272 l 724 1272 l 572 1104 z "},"Ŷ":{"ha":850,"x_min":124,"x_max":957,"o":"m 344 363 l 124 986 l 261 986 l 431 472 l 821 986 l 957 986 l 468 360 l 392 0 l 267 0 l 344 363 m 374 1147 l 535 1272 l 624 1272 l 731 1147 l 657 1114 l 564 1201 l 433 1114 l 374 1147 z "},"Ÿ":{"ha":850,"x_min":124,"x_max":957,"o":"m 344 363 l 124 986 l 261 986 l 431 472 l 821 986 l 957 986 l 468 360 l 392 0 l 267 0 l 344 363 m 388 1125 l 418 1267 l 521 1267 l 490 1125 l 388 1125 m 606 1125 l 636 1267 l 738 1267 l 708 1125 l 606 1125 z "},"Ỵ":{"ha":850,"x_min":124,"x_max":957,"o":"m 344 363 l 124 986 l 261 986 l 431 472 l 821 986 l 957 986 l 468 360 l 392 0 l 267 0 l 344 363 m 233 -253 l 265 -106 l 375 -106 l 344 -253 l 233 -253 z "},"Ỳ":{"ha":850,"x_min":124,"x_max":957,"o":"m 344 363 l 124 986 l 261 986 l 431 472 l 821 986 l 957 986 l 468 360 l 392 0 l 267 0 l 344 363 m 390 1272 l 510 1272 l 557 1132 l 472 1104 l 390 1272 z "},"Ỷ":{"ha":850,"x_min":124,"x_max":957,"o":"m 344 363 l 124 986 l 261 986 l 431 472 l 821 986 l 957 986 l 468 360 l 392 0 l 267 0 l 344 363 m 486 1225 l 458 1271 q 528 1308 493 1294 q 599 1321 563 1321 q 661 1292 649 1321 q 661 1229 674 1264 q 621 1171 651 1201 q 536 1107 590 1140 l 517 1147 q 565 1185 550 1169 q 585 1218 579 1201 q 585 1244 592 1233 q 563 1256 579 1256 q 529 1249 544 1256 q 486 1225 514 1243 z "},"Ȳ":{"ha":850,"x_min":124,"x_max":957,"o":"m 344 363 l 124 986 l 261 986 l 431 472 l 821 986 l 957 986 l 468 360 l 392 0 l 267 0 l 344 363 m 361 1164 l 378 1244 l 765 1244 l 747 1164 l 361 1164 z "},"Ỹ":{"ha":850,"x_min":124,"x_max":957,"o":"m 344 363 l 124 986 l 261 986 l 431 472 l 821 986 l 957 986 l 468 360 l 392 0 l 267 0 l 344 363 m 631 1129 q 567 1144 592 1129 q 522 1173 542 1158 q 472 1188 501 1188 q 426 1172 443 1188 q 401 1140 408 1157 q 394 1121 394 1124 l 322 1121 q 335 1152 325 1129 q 367 1201 346 1175 q 417 1245 388 1226 q 486 1264 447 1264 q 533 1255 514 1264 q 569 1234 553 1246 q 602 1213 585 1222 q 643 1204 619 1204 q 696 1220 676 1204 q 724 1253 715 1236 q 732 1272 732 1269 l 803 1272 q 790 1242 801 1264 q 758 1193 779 1219 q 705 1148 736 1167 q 631 1129 674 1129 z "},"Z":{"ha":833,"x_min":-47,"x_max":906,"o":"m -26 97 l 736 875 l 151 875 l 175 986 l 906 986 l 885 889 l 133 111 l 719 111 l 696 0 l -47 0 l -26 97 z "},"Ź":{"ha":833,"x_min":-47,"x_max":906,"o":"m -26 97 l 736 875 l 151 875 l 175 986 l 906 986 l 885 889 l 133 111 l 719 111 l 696 0 l -47 0 l -26 97 m 604 1107 l 529 1135 l 635 1275 l 756 1275 l 604 1107 z "},"Ž":{"ha":833,"x_min":-47,"x_max":906,"o":"m -26 97 l 736 875 l 151 875 l 175 986 l 906 986 l 885 889 l 133 111 l 719 111 l 696 0 l -47 0 l -26 97 m 415 1242 l 489 1275 l 582 1188 l 713 1275 l 772 1242 l 611 1117 l 522 1117 l 415 1242 z "},"Ż":{"ha":833,"x_min":-47,"x_max":906,"o":"m -26 97 l 736 875 l 151 875 l 175 986 l 906 986 l 885 889 l 133 111 l 719 111 l 696 0 l -47 0 l -26 97 m 524 1128 l 556 1275 l 665 1275 l 635 1128 l 524 1128 z "},"Ẓ":{"ha":833,"x_min":-47,"x_max":906,"o":"m -26 97 l 736 875 l 151 875 l 175 986 l 906 986 l 885 889 l 133 111 l 719 111 l 696 0 l -47 0 l -26 97 m 232 -253 l 264 -106 l 374 -106 l 343 -253 l 232 -253 z "},"a":{"ha":842,"x_min":31,"x_max":803,"o":"m 289 -14 q 150 27 208 -14 q 61 137 92 68 q 31 288 31 206 q 63 456 31 375 q 152 599 96 536 q 281 700 208 663 q 432 738 353 738 q 571 692 515 738 q 649 581 626 646 l 681 725 l 803 725 l 681 150 q 678 140 679 144 q 678 132 678 136 q 708 106 678 107 l 686 0 q 659 -3 671 -1 q 638 -6 647 -6 q 578 13 599 -6 q 558 57 558 31 q 560 76 558 65 q 564 103 561 88 q 571 136 567 118 q 440 26 517 67 q 289 -14 363 -14 m 342 92 q 408 104 372 92 q 477 139 443 117 q 539 191 511 161 q 581 254 567 221 l 624 463 q 592 548 618 510 q 527 609 565 586 q 446 632 489 632 q 336 603 388 632 q 245 528 285 575 q 183 423 206 481 q 160 307 160 365 q 182 199 160 247 q 245 121 204 150 q 342 92 286 92 z "},"á":{"ha":842,"x_min":31,"x_max":803,"o":"m 289 -14 q 150 27 208 -14 q 61 137 92 68 q 31 288 31 206 q 63 456 31 375 q 152 599 96 536 q 281 700 208 663 q 432 738 353 738 q 571 692 515 738 q 649 581 626 646 l 681 725 l 803 725 l 681 150 q 678 140 679 144 q 678 132 678 136 q 708 106 678 107 l 686 0 q 659 -3 671 -1 q 638 -6 647 -6 q 578 13 599 -6 q 558 57 558 31 q 560 76 558 65 q 564 103 561 88 q 571 136 567 118 q 440 26 517 67 q 289 -14 363 -14 m 342 92 q 408 104 372 92 q 477 139 443 117 q 539 191 511 161 q 581 254 567 221 l 624 463 q 592 548 618 510 q 527 609 565 586 q 446 632 489 632 q 336 603 388 632 q 245 528 285 575 q 183 423 206 481 q 160 307 160 365 q 182 199 160 247 q 245 121 204 150 q 342 92 286 92 m 553 846 l 478 874 l 583 1014 l 704 1014 l 553 846 z "},"ă":{"ha":842,"x_min":31,"x_max":803,"o":"m 289 -14 q 150 27 208 -14 q 61 137 92 68 q 31 288 31 206 q 63 456 31 375 q 152 599 96 536 q 281 700 208 663 q 432 738 353 738 q 571 692 515 738 q 649 581 626 646 l 681 725 l 803 725 l 681 150 q 678 140 679 144 q 678 132 678 136 q 708 106 678 107 l 686 0 q 659 -3 671 -1 q 638 -6 647 -6 q 578 13 599 -6 q 558 57 558 31 q 560 76 558 65 q 564 103 561 88 q 571 136 567 118 q 440 26 517 67 q 289 -14 363 -14 m 342 92 q 408 104 372 92 q 477 139 443 117 q 539 191 511 161 q 581 254 567 221 l 624 463 q 592 548 618 510 q 527 609 565 586 q 446 632 489 632 q 336 603 388 632 q 245 528 285 575 q 183 423 206 481 q 160 307 160 365 q 182 199 160 247 q 245 121 204 150 q 342 92 286 92 m 538 919 q 593 947 565 919 q 633 1014 621 974 l 703 1014 q 667 935 694 971 q 603 880 640 900 q 525 860 567 860 q 439 893 471 860 q 407 978 407 926 q 408 996 407 988 q 411 1014 410 1004 l 482 1014 q 480 1003 481 1008 q 479 990 479 997 q 495 940 479 961 q 538 919 511 919 z "},"ắ":{"ha":842,"x_min":31,"x_max":803,"o":"m 289 -14 q 150 27 208 -14 q 61 137 92 68 q 31 288 31 206 q 63 456 31 375 q 152 599 96 536 q 281 700 208 663 q 432 738 353 738 q 571 692 515 738 q 649 581 626 646 l 681 725 l 803 725 l 681 150 q 678 140 679 144 q 678 132 678 136 q 708 106 678 107 l 686 0 q 659 -3 671 -1 q 638 -6 647 -6 q 578 13 599 -6 q 558 57 558 31 q 560 76 558 65 q 564 103 561 88 q 571 136 567 118 q 440 26 517 67 q 289 -14 363 -14 m 342 92 q 408 104 372 92 q 477 139 443 117 q 539 191 511 161 q 581 254 567 221 l 624 463 q 592 548 618 510 q 527 609 565 586 q 446 632 489 632 q 336 603 388 632 q 245 528 285 575 q 183 423 206 481 q 160 307 160 365 q 182 199 160 247 q 245 121 204 150 q 342 92 286 92 z "},"ặ":{"ha":842,"x_min":31,"x_max":803,"o":"m 289 -14 q 150 27 208 -14 q 61 137 92 68 q 31 288 31 206 q 63 456 31 375 q 152 599 96 536 q 281 700 208 663 q 432 738 353 738 q 571 692 515 738 q 649 581 626 646 l 681 725 l 803 725 l 681 150 q 678 140 679 144 q 678 132 678 136 q 708 106 678 107 l 686 0 q 659 -3 671 -1 q 638 -6 647 -6 q 578 13 599 -6 q 558 57 558 31 q 560 76 558 65 q 564 103 561 88 q 571 136 567 118 q 440 26 517 67 q 289 -14 363 -14 m 342 92 q 408 104 372 92 q 477 139 443 117 q 539 191 511 161 q 581 254 567 221 l 624 463 q 592 548 618 510 q 527 609 565 586 q 446 632 489 632 q 336 603 388 632 q 245 528 285 575 q 183 423 206 481 q 160 307 160 365 q 182 199 160 247 q 245 121 204 150 q 342 92 286 92 m 236 -253 l 268 -106 l 378 -106 l 347 -253 l 236 -253 m 538 919 q 593 947 565 919 q 633 1014 621 974 l 703 1014 q 667 935 694 971 q 603 880 640 900 q 525 860 567 860 q 439 893 471 860 q 407 978 407 926 q 408 996 407 988 q 411 1014 410 1004 l 482 1014 q 480 1003 481 1008 q 479 990 479 997 q 495 940 479 961 q 538 919 511 919 z "},"ằ":{"ha":842,"x_min":31,"x_max":803,"o":"m 289 -14 q 150 27 208 -14 q 61 137 92 68 q 31 288 31 206 q 63 456 31 375 q 152 599 96 536 q 281 700 208 663 q 432 738 353 738 q 571 692 515 738 q 649 581 626 646 l 681 725 l 803 725 l 681 150 q 678 140 679 144 q 678 132 678 136 q 708 106 678 107 l 686 0 q 659 -3 671 -1 q 638 -6 647 -6 q 578 13 599 -6 q 558 57 558 31 q 560 76 558 65 q 564 103 561 88 q 571 136 567 118 q 440 26 517 67 q 289 -14 363 -14 m 342 92 q 408 104 372 92 q 477 139 443 117 q 539 191 511 161 q 581 254 567 221 l 624 463 q 592 548 618 510 q 527 609 565 586 q 446 632 489 632 q 336 603 388 632 q 245 528 285 575 q 183 423 206 481 q 160 307 160 365 q 182 199 160 247 q 245 121 204 150 q 342 92 286 92 z "},"ẳ":{"ha":842,"x_min":31,"x_max":803,"o":"m 289 -14 q 150 27 208 -14 q 61 137 92 68 q 31 288 31 206 q 63 456 31 375 q 152 599 96 536 q 281 700 208 663 q 432 738 353 738 q 571 692 515 738 q 649 581 626 646 l 681 725 l 803 725 l 681 150 q 678 140 679 144 q 678 132 678 136 q 708 106 678 107 l 686 0 q 659 -3 671 -1 q 638 -6 647 -6 q 578 13 599 -6 q 558 57 558 31 q 560 76 558 65 q 564 103 561 88 q 571 136 567 118 q 440 26 517 67 q 289 -14 363 -14 m 342 92 q 408 104 372 92 q 477 139 443 117 q 539 191 511 161 q 581 254 567 221 l 624 463 q 592 548 618 510 q 527 609 565 586 q 446 632 489 632 q 336 603 388 632 q 245 528 285 575 q 183 423 206 481 q 160 307 160 365 q 182 199 160 247 q 245 121 204 150 q 342 92 286 92 z "},"ẵ":{"ha":842,"x_min":31,"x_max":804,"o":"m 289 -14 q 150 27 208 -14 q 61 137 92 68 q 31 288 31 206 q 63 456 31 375 q 152 599 96 536 q 281 700 208 663 q 432 738 353 738 q 571 692 515 738 q 649 581 626 646 l 681 725 l 803 725 l 681 150 q 678 140 679 144 q 678 132 678 136 q 708 106 678 107 l 686 0 q 659 -3 671 -1 q 638 -6 647 -6 q 578 13 599 -6 q 558 57 558 31 q 560 76 558 65 q 564 103 561 88 q 571 136 567 118 q 440 26 517 67 q 289 -14 363 -14 m 342 92 q 408 104 372 92 q 477 139 443 117 q 539 191 511 161 q 581 254 567 221 l 624 463 q 592 548 618 510 q 527 609 565 586 q 446 632 489 632 q 336 603 388 632 q 245 528 285 575 q 183 423 206 481 q 160 307 160 365 q 182 199 160 247 q 245 121 204 150 q 342 92 286 92 z "},"â":{"ha":842,"x_min":31,"x_max":803,"o":"m 289 -14 q 150 27 208 -14 q 61 137 92 68 q 31 288 31 206 q 63 456 31 375 q 152 599 96 536 q 281 700 208 663 q 432 738 353 738 q 571 692 515 738 q 649 581 626 646 l 681 725 l 803 725 l 681 150 q 678 140 679 144 q 678 132 678 136 q 708 106 678 107 l 686 0 q 659 -3 671 -1 q 638 -6 647 -6 q 578 13 599 -6 q 558 57 558 31 q 560 76 558 65 q 564 103 561 88 q 571 136 567 118 q 440 26 517 67 q 289 -14 363 -14 m 342 92 q 408 104 372 92 q 477 139 443 117 q 539 191 511 161 q 581 254 567 221 l 624 463 q 592 548 618 510 q 527 609 565 586 q 446 632 489 632 q 336 603 388 632 q 245 528 285 575 q 183 423 206 481 q 160 307 160 365 q 182 199 160 247 q 245 121 204 150 q 342 92 286 92 m 354 889 l 515 1014 l 604 1014 l 711 889 l 638 856 l 544 943 l 414 856 l 354 889 z "},"ấ":{"ha":842,"x_min":31,"x_max":907,"o":"m 289 -14 q 150 27 208 -14 q 61 137 92 68 q 31 288 31 206 q 63 456 31 375 q 152 599 96 536 q 281 700 208 663 q 432 738 353 738 q 571 692 515 738 q 649 581 626 646 l 681 725 l 803 725 l 681 150 q 678 140 679 144 q 678 132 678 136 q 708 106 678 107 l 686 0 q 659 -3 671 -1 q 638 -6 647 -6 q 578 13 599 -6 q 558 57 558 31 q 560 76 558 65 q 564 103 561 88 q 571 136 567 118 q 440 26 517 67 q 289 -14 363 -14 m 342 92 q 408 104 372 92 q 477 139 443 117 q 539 191 511 161 q 581 254 567 221 l 624 463 q 592 548 618 510 q 527 609 565 586 q 446 632 489 632 q 336 603 388 632 q 245 528 285 575 q 183 423 206 481 q 160 307 160 365 q 182 199 160 247 q 245 121 204 150 q 342 92 286 92 z "},"ậ":{"ha":842,"x_min":31,"x_max":803,"o":"m 289 -14 q 150 27 208 -14 q 61 137 92 68 q 31 288 31 206 q 63 456 31 375 q 152 599 96 536 q 281 700 208 663 q 432 738 353 738 q 571 692 515 738 q 649 581 626 646 l 681 725 l 803 725 l 681 150 q 678 140 679 144 q 678 132 678 136 q 708 106 678 107 l 686 0 q 659 -3 671 -1 q 638 -6 647 -6 q 578 13 599 -6 q 558 57 558 31 q 560 76 558 65 q 564 103 561 88 q 571 136 567 118 q 440 26 517 67 q 289 -14 363 -14 m 342 92 q 408 104 372 92 q 477 139 443 117 q 539 191 511 161 q 581 254 567 221 l 624 463 q 592 548 618 510 q 527 609 565 586 q 446 632 489 632 q 336 603 388 632 q 245 528 285 575 q 183 423 206 481 q 160 307 160 365 q 182 199 160 247 q 245 121 204 150 q 342 92 286 92 m 236 -253 l 268 -106 l 378 -106 l 347 -253 l 236 -253 m 354 889 l 515 1014 l 604 1014 l 711 889 l 638 856 l 544 943 l 414 856 l 354 889 z "},"ầ":{"ha":842,"x_min":31,"x_max":803,"o":"m 289 -14 q 150 27 208 -14 q 61 137 92 68 q 31 288 31 206 q 63 456 31 375 q 152 599 96 536 q 281 700 208 663 q 432 738 353 738 q 571 692 515 738 q 649 581 626 646 l 681 725 l 803 725 l 681 150 q 678 140 679 144 q 678 132 678 136 q 708 106 678 107 l 686 0 q 659 -3 671 -1 q 638 -6 647 -6 q 578 13 599 -6 q 558 57 558 31 q 560 76 558 65 q 564 103 561 88 q 571 136 567 118 q 440 26 517 67 q 289 -14 363 -14 m 342 92 q 408 104 372 92 q 477 139 443 117 q 539 191 511 161 q 581 254 567 221 l 624 463 q 592 548 618 510 q 527 609 565 586 q 446 632 489 632 q 336 603 388 632 q 245 528 285 575 q 183 423 206 481 q 160 307 160 365 q 182 199 160 247 q 245 121 204 150 q 342 92 286 92 z "},"ẩ":{"ha":842,"x_min":31,"x_max":810,"o":"m 289 -14 q 150 27 208 -14 q 61 137 92 68 q 31 288 31 206 q 63 456 31 375 q 152 599 96 536 q 281 700 208 663 q 432 738 353 738 q 571 692 515 738 q 649 581 626 646 l 681 725 l 803 725 l 681 150 q 678 140 679 144 q 678 132 678 136 q 708 106 678 107 l 686 0 q 659 -3 671 -1 q 638 -6 647 -6 q 578 13 599 -6 q 558 57 558 31 q 560 76 558 65 q 564 103 561 88 q 571 136 567 118 q 440 26 517 67 q 289 -14 363 -14 m 342 92 q 408 104 372 92 q 477 139 443 117 q 539 191 511 161 q 581 254 567 221 l 624 463 q 592 548 618 510 q 527 609 565 586 q 446 632 489 632 q 336 603 388 632 q 245 528 285 575 q 183 423 206 481 q 160 307 160 365 q 182 199 160 247 q 245 121 204 150 q 342 92 286 92 z "},"ẫ":{"ha":842,"x_min":31,"x_max":803,"o":"m 289 -14 q 150 27 208 -14 q 61 137 92 68 q 31 288 31 206 q 63 456 31 375 q 152 599 96 536 q 281 700 208 663 q 432 738 353 738 q 571 692 515 738 q 649 581 626 646 l 681 725 l 803 725 l 681 150 q 678 140 679 144 q 678 132 678 136 q 708 106 678 107 l 686 0 q 659 -3 671 -1 q 638 -6 647 -6 q 578 13 599 -6 q 558 57 558 31 q 560 76 558 65 q 564 103 561 88 q 571 136 567 118 q 440 26 517 67 q 289 -14 363 -14 m 342 92 q 408 104 372 92 q 477 139 443 117 q 539 191 511 161 q 581 254 567 221 l 624 463 q 592 548 618 510 q 527 609 565 586 q 446 632 489 632 q 336 603 388 632 q 245 528 285 575 q 183 423 206 481 q 160 307 160 365 q 182 199 160 247 q 245 121 204 150 q 342 92 286 92 z "},"ȁ":{"ha":842,"x_min":31,"x_max":803,"o":"m 289 -14 q 150 27 208 -14 q 61 137 92 68 q 31 288 31 206 q 63 456 31 375 q 152 599 96 536 q 281 700 208 663 q 432 738 353 738 q 571 692 515 738 q 649 581 626 646 l 681 725 l 803 725 l 681 150 q 678 140 679 144 q 678 132 678 136 q 708 106 678 107 l 686 0 q 659 -3 671 -1 q 638 -6 647 -6 q 578 13 599 -6 q 558 57 558 31 q 560 76 558 65 q 564 103 561 88 q 571 136 567 118 q 440 26 517 67 q 289 -14 363 -14 m 342 92 q 408 104 372 92 q 477 139 443 117 q 539 191 511 161 q 581 254 567 221 l 624 463 q 592 548 618 510 q 527 609 565 586 q 446 632 489 632 q 336 603 388 632 q 245 528 285 575 q 183 423 206 481 q 160 307 160 365 q 182 199 160 247 q 245 121 204 150 q 342 92 286 92 m 503 1015 l 606 1015 l 647 875 l 578 847 l 503 1015 m 319 1015 l 424 1015 l 464 875 l 394 847 l 319 1015 z "},"ä":{"ha":842,"x_min":31,"x_max":803,"o":"m 289 -14 q 150 27 208 -14 q 61 137 92 68 q 31 288 31 206 q 63 456 31 375 q 152 599 96 536 q 281 700 208 663 q 432 738 353 738 q 571 692 515 738 q 649 581 626 646 l 681 725 l 803 725 l 681 150 q 678 140 679 144 q 678 132 678 136 q 708 106 678 107 l 686 0 q 659 -3 671 -1 q 638 -6 647 -6 q 578 13 599 -6 q 558 57 558 31 q 560 76 558 65 q 564 103 561 88 q 571 136 567 118 q 440 26 517 67 q 289 -14 363 -14 m 342 92 q 408 104 372 92 q 477 139 443 117 q 539 191 511 161 q 581 254 567 221 l 624 463 q 592 548 618 510 q 527 609 565 586 q 446 632 489 632 q 336 603 388 632 q 245 528 285 575 q 183 423 206 481 q 160 307 160 365 q 182 199 160 247 q 245 121 204 150 q 342 92 286 92 m 368 867 l 399 1008 l 501 1008 l 471 867 l 368 867 m 586 867 l 617 1008 l 718 1008 l 689 867 l 586 867 z "},"ạ":{"ha":842,"x_min":31,"x_max":803,"o":"m 289 -14 q 150 27 208 -14 q 61 137 92 68 q 31 288 31 206 q 63 456 31 375 q 152 599 96 536 q 281 700 208 663 q 432 738 353 738 q 571 692 515 738 q 649 581 626 646 l 681 725 l 803 725 l 681 150 q 678 140 679 144 q 678 132 678 136 q 708 106 678 107 l 686 0 q 659 -3 671 -1 q 638 -6 647 -6 q 578 13 599 -6 q 558 57 558 31 q 560 76 558 65 q 564 103 561 88 q 571 136 567 118 q 440 26 517 67 q 289 -14 363 -14 m 342 92 q 408 104 372 92 q 477 139 443 117 q 539 191 511 161 q 581 254 567 221 l 624 463 q 592 548 618 510 q 527 609 565 586 q 446 632 489 632 q 336 603 388 632 q 245 528 285 575 q 183 423 206 481 q 160 307 160 365 q 182 199 160 247 q 245 121 204 150 q 342 92 286 92 m 236 -253 l 268 -106 l 378 -106 l 347 -253 l 236 -253 z "},"à":{"ha":842,"x_min":31,"x_max":803,"o":"m 289 -14 q 150 27 208 -14 q 61 137 92 68 q 31 288 31 206 q 63 456 31 375 q 152 599 96 536 q 281 700 208 663 q 432 738 353 738 q 571 692 515 738 q 649 581 626 646 l 681 725 l 803 725 l 681 150 q 678 140 679 144 q 678 132 678 136 q 708 106 678 107 l 686 0 q 659 -3 671 -1 q 638 -6 647 -6 q 578 13 599 -6 q 558 57 558 31 q 560 76 558 65 q 564 103 561 88 q 571 136 567 118 q 440 26 517 67 q 289 -14 363 -14 m 342 92 q 408 104 372 92 q 477 139 443 117 q 539 191 511 161 q 581 254 567 221 l 624 463 q 592 548 618 510 q 527 609 565 586 q 446 632 489 632 q 336 603 388 632 q 245 528 285 575 q 183 423 206 481 q 160 307 160 365 q 182 199 160 247 q 245 121 204 150 q 342 92 286 92 m 371 1014 l 490 1014 l 538 874 l 453 846 l 371 1014 z "},"ả":{"ha":842,"x_min":31,"x_max":803,"o":"m 289 -14 q 150 27 208 -14 q 61 137 92 68 q 31 288 31 206 q 63 456 31 375 q 152 599 96 536 q 281 700 208 663 q 432 738 353 738 q 571 692 515 738 q 649 581 626 646 l 681 725 l 803 725 l 681 150 q 678 140 679 144 q 678 132 678 136 q 708 106 678 107 l 686 0 q 659 -3 671 -1 q 638 -6 647 -6 q 578 13 599 -6 q 558 57 558 31 q 560 76 558 65 q 564 103 561 88 q 571 136 567 118 q 440 26 517 67 q 289 -14 363 -14 m 342 92 q 408 104 372 92 q 477 139 443 117 q 539 191 511 161 q 581 254 567 221 l 624 463 q 592 548 618 510 q 527 609 565 586 q 446 632 489 632 q 336 603 388 632 q 245 528 285 575 q 183 423 206 481 q 160 307 160 365 q 182 199 160 247 q 245 121 204 150 q 342 92 286 92 m 467 967 l 439 1013 q 508 1049 474 1036 q 579 1063 543 1063 q 642 1034 629 1063 q 642 971 654 1006 q 601 913 632 943 q 517 849 571 882 l 497 889 q 545 927 531 911 q 565 960 560 943 q 566 986 572 975 q 543 997 560 997 q 510 991 525 997 q 467 967 494 985 z "},"ȃ":{"ha":842,"x_min":31,"x_max":803,"o":"m 289 -14 q 150 27 208 -14 q 61 137 92 68 q 31 288 31 206 q 63 456 31 375 q 152 599 96 536 q 281 700 208 663 q 432 738 353 738 q 571 692 515 738 q 649 581 626 646 l 681 725 l 803 725 l 681 150 q 678 140 679 144 q 678 132 678 136 q 708 106 678 107 l 686 0 q 659 -3 671 -1 q 638 -6 647 -6 q 578 13 599 -6 q 558 57 558 31 q 560 76 558 65 q 564 103 561 88 q 571 136 567 118 q 440 26 517 67 q 289 -14 363 -14 m 342 92 q 408 104 372 92 q 477 139 443 117 q 539 191 511 161 q 581 254 567 221 l 624 463 q 592 548 618 510 q 527 609 565 586 q 446 632 489 632 q 336 603 388 632 q 245 528 285 575 q 183 423 206 481 q 160 307 160 365 q 182 199 160 247 q 245 121 204 150 q 342 92 286 92 m 376 860 q 413 939 386 904 q 476 994 439 974 q 553 1014 513 1014 q 638 978 606 1014 q 671 893 671 943 q 670 876 671 885 q 667 860 669 868 l 599 860 q 601 878 600 869 q 601 894 601 886 q 544 954 601 954 q 478 927 501 954 q 446 860 456 900 l 376 860 z "},"ā":{"ha":842,"x_min":31,"x_max":803,"o":"m 289 -14 q 150 27 208 -14 q 61 137 92 68 q 31 288 31 206 q 63 456 31 375 q 152 599 96 536 q 281 700 208 663 q 432 738 353 738 q 571 692 515 738 q 649 581 626 646 l 681 725 l 803 725 l 681 150 q 678 140 679 144 q 678 132 678 136 q 708 106 678 107 l 686 0 q 659 -3 671 -1 q 638 -6 647 -6 q 578 13 599 -6 q 558 57 558 31 q 560 76 558 65 q 564 103 561 88 q 571 136 567 118 q 440 26 517 67 q 289 -14 363 -14 m 342 92 q 408 104 372 92 q 477 139 443 117 q 539 191 511 161 q 581 254 567 221 l 624 463 q 592 548 618 510 q 527 609 565 586 q 446 632 489 632 q 336 603 388 632 q 245 528 285 575 q 183 423 206 481 q 160 307 160 365 q 182 199 160 247 q 245 121 204 150 q 342 92 286 92 m 342 906 l 358 986 l 746 986 l 728 906 l 342 906 z "},"ą":{"ha":842,"x_min":31,"x_max":803,"o":"m 289 -14 q 150 27 208 -14 q 61 137 92 68 q 31 288 31 206 q 63 456 31 375 q 152 599 96 536 q 281 700 208 663 q 432 738 353 738 q 571 692 515 738 q 649 581 626 646 l 681 725 l 803 725 l 681 150 q 678 140 679 144 q 678 132 678 136 q 708 106 678 107 l 686 0 q 659 -3 671 -1 q 638 -6 647 -6 q 578 13 599 -6 q 558 57 558 31 q 560 76 558 65 q 564 103 561 88 q 571 136 567 118 q 440 26 517 67 q 289 -14 363 -14 m 342 92 q 408 104 372 92 q 477 139 443 117 q 539 191 511 161 q 581 254 567 221 l 624 463 q 592 548 618 510 q 527 609 565 586 q 446 632 489 632 q 336 603 388 632 q 245 528 285 575 q 183 423 206 481 q 160 307 160 365 q 182 199 160 247 q 245 121 204 150 q 342 92 286 92 m 496 -171 q 531 -74 496 -121 q 640 25 567 -26 l 675 25 l 686 0 q 603 -83 629 -50 q 576 -143 576 -115 q 593 -173 576 -164 q 639 -185 610 -182 l 593 -262 q 517 -228 538 -256 q 496 -171 496 -201 z "},"å":{"ha":842,"x_min":31,"x_max":803,"o":"m 289 -14 q 150 27 208 -14 q 61 137 92 68 q 31 288 31 206 q 63 456 31 375 q 152 599 96 536 q 281 700 208 663 q 432 738 353 738 q 571 692 515 738 q 649 581 626 646 l 681 725 l 803 725 l 681 150 q 678 140 679 144 q 678 132 678 136 q 708 106 678 107 l 686 0 q 659 -3 671 -1 q 638 -6 647 -6 q 578 13 599 -6 q 558 57 558 31 q 560 76 558 65 q 564 103 561 88 q 571 136 567 118 q 440 26 517 67 q 289 -14 363 -14 m 342 92 q 408 104 372 92 q 477 139 443 117 q 539 191 511 161 q 581 254 567 221 l 624 463 q 592 548 618 510 q 527 609 565 586 q 446 632 489 632 q 336 603 388 632 q 245 528 285 575 q 183 423 206 481 q 160 307 160 365 q 182 199 160 247 q 245 121 204 150 q 342 92 286 92 m 428 900 q 467 983 428 951 q 560 1014 506 1014 q 626 993 603 1014 q 650 936 650 972 q 613 854 650 886 q 518 822 575 822 q 452 844 476 822 q 428 900 428 865 m 550 971 q 505 953 525 971 q 485 908 485 936 q 497 878 485 890 q 528 865 508 865 q 573 883 551 865 q 594 928 594 901 q 582 959 594 947 q 550 971 569 971 z "},"ǻ":{"ha":842,"x_min":31,"x_max":803,"o":"m 289 -14 q 150 27 208 -14 q 61 137 92 68 q 31 288 31 206 q 63 456 31 375 q 152 599 96 536 q 281 700 208 663 q 432 738 353 738 q 571 692 515 738 q 649 581 626 646 l 681 725 l 803 725 l 681 150 q 678 140 679 144 q 678 132 678 136 q 708 106 678 107 l 686 0 q 659 -3 671 -1 q 638 -6 647 -6 q 578 13 599 -6 q 558 57 558 31 q 560 76 558 65 q 564 103 561 88 q 571 136 567 118 q 440 26 517 67 q 289 -14 363 -14 m 342 92 q 408 104 372 92 q 477 139 443 117 q 539 191 511 161 q 581 254 567 221 l 624 463 q 592 548 618 510 q 527 609 565 586 q 446 632 489 632 q 336 603 388 632 q 245 528 285 575 q 183 423 206 481 q 160 307 160 365 q 182 199 160 247 q 245 121 204 150 q 342 92 286 92 m 428 900 q 467 983 428 951 q 560 1014 506 1014 q 626 993 603 1014 q 650 936 650 972 q 613 854 650 886 q 518 822 575 822 q 452 844 476 822 q 428 900 428 865 m 550 971 q 505 953 525 971 q 485 908 485 936 q 497 878 485 890 q 528 865 508 865 q 573 883 551 865 q 594 928 594 901 q 582 959 594 947 q 550 971 569 971 m 615 1135 l 540 1163 l 646 1303 l 767 1303 l 615 1135 z "},"ã":{"ha":842,"x_min":31,"x_max":803,"o":"m 289 -14 q 150 27 208 -14 q 61 137 92 68 q 31 288 31 206 q 63 456 31 375 q 152 599 96 536 q 281 700 208 663 q 432 738 353 738 q 571 692 515 738 q 649 581 626 646 l 681 725 l 803 725 l 681 150 q 678 140 679 144 q 678 132 678 136 q 708 106 678 107 l 686 0 q 659 -3 671 -1 q 638 -6 647 -6 q 578 13 599 -6 q 558 57 558 31 q 560 76 558 65 q 564 103 561 88 q 571 136 567 118 q 440 26 517 67 q 289 -14 363 -14 m 342 92 q 408 104 372 92 q 477 139 443 117 q 539 191 511 161 q 581 254 567 221 l 624 463 q 592 548 618 510 q 527 609 565 586 q 446 632 489 632 q 336 603 388 632 q 245 528 285 575 q 183 423 206 481 q 160 307 160 365 q 182 199 160 247 q 245 121 204 150 q 342 92 286 92 m 611 871 q 547 885 572 871 q 502 915 522 900 q 453 929 482 929 q 406 914 424 929 q 382 882 389 899 q 375 863 375 865 l 303 863 q 316 894 306 871 q 347 942 326 917 q 398 987 368 968 q 467 1006 428 1006 q 514 997 494 1006 q 549 976 533 988 q 583 955 565 964 q 624 946 600 946 q 676 962 657 946 q 704 994 696 978 q 713 1014 713 1011 l 783 1014 q 771 983 782 1006 q 738 935 760 961 q 685 890 717 908 q 611 871 654 871 z "},"æ":{"ha":1233,"x_min":-8,"x_max":1196,"o":"m 185 -14 q 43 40 94 -14 q -8 172 -8 93 q 38 309 -8 250 q 161 402 83 368 q 333 436 239 436 q 421 428 378 436 q 497 408 464 421 q 522 470 508 444 q 535 529 535 496 q 497 614 535 579 q 389 649 460 649 q 278 627 338 649 q 153 564 219 606 l 131 643 q 421 738 286 738 q 558 703 504 738 q 631 606 611 668 q 761 701 688 665 q 918 738 835 738 q 1069 697 1007 738 q 1163 587 1131 656 q 1196 432 1196 518 q 1187 355 1196 381 q 1175 321 1178 329 l 594 321 q 592 301 593 311 q 592 279 592 290 q 616 174 592 219 q 683 103 640 129 q 782 78 726 78 q 908 111 846 78 q 1001 199 969 144 l 1101 169 q 1015 75 1068 117 q 896 10 961 33 q 760 -14 831 -14 q 601 29 667 -14 q 504 143 535 72 q 404 51 463 86 q 288 1 346 17 q 185 -14 229 -14 m 235 78 q 307 89 268 78 q 381 119 346 100 q 443 164 417 139 q 479 215 469 189 q 476 236 478 225 q 475 261 475 247 q 477 301 475 281 q 482 336 479 321 q 412 356 450 349 q 338 363 374 363 q 222 342 274 363 q 141 283 171 321 q 111 196 111 246 q 125 137 111 164 q 167 94 139 110 q 235 78 194 78 m 1076 400 q 1079 424 1079 411 q 1079 446 1079 436 q 1057 551 1079 506 q 993 621 1035 596 q 894 646 951 646 q 773 614 831 646 q 672 527 715 582 q 610 400 629 472 l 1076 400 z "},"ǽ":{"ha":1233,"x_min":-8,"x_max":1196,"o":"m 185 -14 q 43 40 94 -14 q -8 172 -8 93 q 38 309 -8 250 q 161 402 83 368 q 333 436 239 436 q 421 428 378 436 q 497 408 464 421 q 522 470 508 444 q 535 529 535 496 q 497 614 535 579 q 389 649 460 649 q 278 627 338 649 q 153 564 219 606 l 131 643 q 421 738 286 738 q 558 703 504 738 q 631 606 611 668 q 761 701 688 665 q 918 738 835 738 q 1069 697 1007 738 q 1163 587 1131 656 q 1196 432 1196 518 q 1187 355 1196 381 q 1175 321 1178 329 l 594 321 q 592 301 593 311 q 592 279 592 290 q 616 174 592 219 q 683 103 640 129 q 782 78 726 78 q 908 111 846 78 q 1001 199 969 144 l 1101 169 q 1015 75 1068 117 q 896 10 961 33 q 760 -14 831 -14 q 601 29 667 -14 q 504 143 535 72 q 404 51 463 86 q 288 1 346 17 q 185 -14 229 -14 m 235 78 q 307 89 268 78 q 381 119 346 100 q 443 164 417 139 q 479 215 469 189 q 476 236 478 225 q 475 261 475 247 q 477 301 475 281 q 482 336 479 321 q 412 356 450 349 q 338 363 374 363 q 222 342 274 363 q 141 283 171 321 q 111 196 111 246 q 125 137 111 164 q 167 94 139 110 q 235 78 194 78 m 1076 400 q 1079 424 1079 411 q 1079 446 1079 436 q 1057 551 1079 506 q 993 621 1035 596 q 894 646 951 646 q 773 614 831 646 q 672 527 715 582 q 610 400 629 472 l 1076 400 m 689 846 l 614 874 l 719 1014 l 840 1014 l 689 846 z "},"b":{"ha":832,"x_min":7,"x_max":778,"o":"m 365 -14 q 224 28 281 -14 q 144 136 168 71 l 115 0 l 7 0 l 222 1014 l 344 1014 l 253 581 q 383 694 310 651 q 536 738 456 738 q 670 696 617 738 q 751 587 724 654 q 778 442 778 519 q 743 268 778 350 q 649 122 708 186 q 517 22 590 58 q 365 -14 443 -14 m 361 92 q 467 119 415 92 q 559 192 518 146 q 624 298 600 239 q 649 419 649 357 q 628 524 649 475 q 571 602 608 572 q 478 632 533 632 q 384 608 431 632 q 298 547 338 585 q 228 463 258 508 l 183 253 q 208 172 183 208 q 272 113 232 135 q 361 92 313 92 z "},"c":{"ha":738,"x_min":31,"x_max":725,"o":"m 315 -14 q 160 28 224 -14 q 64 139 97 69 q 31 293 31 208 q 64 460 31 381 q 156 603 97 540 q 295 701 215 665 q 468 738 375 738 q 640 690 575 738 q 725 561 704 642 l 599 524 q 543 604 582 576 q 447 632 504 632 q 340 607 392 632 q 247 537 288 582 q 181 433 206 492 q 157 308 157 375 q 179 197 157 246 q 241 120 201 149 q 332 92 281 92 q 413 107 372 92 q 485 148 453 122 q 535 204 518 174 l 647 168 q 563 74 615 115 q 447 10 511 33 q 315 -14 383 -14 z "},"ć":{"ha":738,"x_min":31,"x_max":725,"o":"m 315 -14 q 160 28 224 -14 q 64 139 97 69 q 31 293 31 208 q 64 460 31 381 q 156 603 97 540 q 295 701 215 665 q 468 738 375 738 q 640 690 575 738 q 725 561 704 642 l 599 524 q 543 604 582 576 q 447 632 504 632 q 340 607 392 632 q 247 537 288 582 q 181 433 206 492 q 157 308 157 375 q 179 197 157 246 q 241 120 201 149 q 332 92 281 92 q 413 107 372 92 q 485 148 453 122 q 535 204 518 174 l 647 168 q 563 74 615 115 q 447 10 511 33 q 315 -14 383 -14 m 526 846 l 451 874 l 557 1014 l 678 1014 l 526 846 z "},"č":{"ha":738,"x_min":31,"x_max":725,"o":"m 315 -14 q 160 28 224 -14 q 64 139 97 69 q 31 293 31 208 q 64 460 31 381 q 156 603 97 540 q 295 701 215 665 q 468 738 375 738 q 640 690 575 738 q 725 561 704 642 l 599 524 q 543 604 582 576 q 447 632 504 632 q 340 607 392 632 q 247 537 288 582 q 181 433 206 492 q 157 308 157 375 q 179 197 157 246 q 241 120 201 149 q 332 92 281 92 q 413 107 372 92 q 485 148 453 122 q 535 204 518 174 l 647 168 q 563 74 615 115 q 447 10 511 33 q 315 -14 383 -14 m 338 981 l 411 1014 l 504 926 l 635 1014 l 694 981 l 533 856 l 444 856 l 338 981 z "},"ç":{"ha":738,"x_min":31,"x_max":725,"o":"m 315 -14 q 160 28 224 -14 q 64 139 97 69 q 31 293 31 208 q 64 460 31 381 q 156 603 97 540 q 295 701 215 665 q 468 738 375 738 q 640 690 575 738 q 725 561 704 642 l 599 524 q 543 604 582 576 q 447 632 504 632 q 340 607 392 632 q 247 537 288 582 q 181 433 206 492 q 157 308 157 375 q 179 197 157 246 q 241 120 201 149 q 332 92 281 92 q 413 107 372 92 q 485 148 453 122 q 535 204 518 174 l 647 168 q 563 74 615 115 q 447 10 511 33 q 315 -14 383 -14 m 261 -258 q 194 -249 229 -258 q 129 -219 160 -239 l 178 -151 q 216 -174 197 -165 q 260 -182 235 -182 q 328 -160 303 -182 q 354 -96 354 -137 q 340 -45 354 -68 q 300 0 326 -22 l 349 32 q 403 -29 382 4 q 425 -106 425 -62 q 405 -185 425 -151 q 348 -239 385 -219 q 261 -258 311 -258 z "},"ḉ":{"ha":738,"x_min":31,"x_max":725,"o":"m 315 -14 q 160 28 224 -14 q 64 139 97 69 q 31 293 31 208 q 64 460 31 381 q 156 603 97 540 q 295 701 215 665 q 468 738 375 738 q 640 690 575 738 q 725 561 704 642 l 599 524 q 543 604 582 576 q 447 632 504 632 q 340 607 392 632 q 247 537 288 582 q 181 433 206 492 q 157 308 157 375 q 179 197 157 246 q 241 120 201 149 q 332 92 281 92 q 413 107 372 92 q 485 148 453 122 q 535 204 518 174 l 647 168 q 563 74 615 115 q 447 10 511 33 q 315 -14 383 -14 m 261 -258 q 194 -249 229 -258 q 129 -219 160 -239 l 178 -151 q 216 -174 197 -165 q 260 -182 235 -182 q 328 -160 303 -182 q 354 -96 354 -137 q 340 -45 354 -68 q 300 0 326 -22 l 349 32 q 403 -29 382 4 q 425 -106 425 -62 q 405 -185 425 -151 q 348 -239 385 -219 q 261 -258 311 -258 m 526 846 l 451 874 l 557 1014 l 678 1014 l 526 846 z "},"ĉ":{"ha":738,"x_min":31,"x_max":725,"o":"m 315 -14 q 160 28 224 -14 q 64 139 97 69 q 31 293 31 208 q 64 460 31 381 q 156 603 97 540 q 295 701 215 665 q 468 738 375 738 q 640 690 575 738 q 725 561 704 642 l 599 524 q 543 604 582 576 q 447 632 504 632 q 340 607 392 632 q 247 537 288 582 q 181 433 206 492 q 157 308 157 375 q 179 197 157 246 q 241 120 201 149 q 332 92 281 92 q 413 107 372 92 q 485 148 453 122 q 535 204 518 174 l 647 168 q 563 74 615 115 q 447 10 511 33 q 315 -14 383 -14 m 328 889 l 489 1014 l 578 1014 l 685 889 l 611 856 l 518 943 l 388 856 l 328 889 z "},"ċ":{"ha":738,"x_min":31,"x_max":725,"o":"m 315 -14 q 160 28 224 -14 q 64 139 97 69 q 31 293 31 208 q 64 460 31 381 q 156 603 97 540 q 295 701 215 665 q 468 738 375 738 q 640 690 575 738 q 725 561 704 642 l 599 524 q 543 604 582 576 q 447 632 504 632 q 340 607 392 632 q 247 537 288 582 q 181 433 206 492 q 157 308 157 375 q 179 197 157 246 q 241 120 201 149 q 332 92 281 92 q 413 107 372 92 q 485 148 453 122 q 535 204 518 174 l 647 168 q 563 74 615 115 q 447 10 511 33 q 315 -14 383 -14 m 446 867 l 478 1014 l 588 1014 l 557 867 l 446 867 z "},"d":{"ha":842,"x_min":31,"x_max":864,"o":"m 289 -14 q 150 27 208 -14 q 61 137 92 68 q 31 288 31 206 q 63 456 31 375 q 152 599 96 536 q 281 700 208 663 q 432 738 353 738 q 571 692 515 738 q 649 581 626 646 l 742 1014 l 864 1014 l 681 150 q 678 140 679 144 q 678 132 678 136 q 708 106 678 107 l 686 0 q 659 -3 671 -1 q 638 -6 647 -6 q 578 13 599 -6 q 558 57 558 31 q 560 76 558 65 q 564 101 561 86 q 571 136 567 117 q 440 26 517 67 q 289 -14 363 -14 m 342 92 q 408 104 372 92 q 477 139 443 117 q 539 191 511 161 q 581 254 567 221 l 624 463 q 592 548 618 510 q 527 609 565 586 q 446 632 489 632 q 336 603 388 632 q 245 528 285 575 q 183 423 206 481 q 160 307 160 365 q 182 199 160 247 q 245 121 204 150 q 342 92 286 92 z "},"ð":{"ha":810,"x_min":25,"x_max":782,"o":"m 763 517 q 724 297 763 394 q 618 129 685 199 q 470 23 551 60 q 303 -14 389 -14 q 158 23 221 -14 q 60 124 96 60 q 25 265 25 188 q 58 414 25 343 q 149 540 92 485 q 278 626 207 594 q 425 657 350 657 q 565 617 507 657 q 646 511 624 576 q 644 556 646 535 q 640 600 643 578 q 603 742 632 672 q 517 879 575 811 q 358 1014 458 947 l 528 1014 q 667 865 617 951 q 740 688 718 779 q 763 517 763 597 m 151 281 q 174 185 151 228 q 236 117 196 142 q 329 92 276 92 q 434 115 383 92 q 525 178 485 138 q 589 268 565 218 q 613 372 613 318 q 590 467 613 425 q 528 533 568 508 q 433 557 488 557 q 328 535 379 557 q 238 474 278 513 q 175 386 199 436 q 151 281 151 336 m 782 939 l 625 853 l 583 839 l 406 739 l 379 790 l 553 888 l 592 899 l 756 990 l 782 939 z "},"ď":{"ha":842,"x_min":31,"x_max":1086,"o":"m 289 -14 q 150 27 208 -14 q 61 137 92 68 q 31 288 31 206 q 63 456 31 375 q 152 599 96 536 q 281 700 208 663 q 432 738 353 738 q 571 692 515 738 q 649 581 626 646 l 742 1014 l 864 1014 l 681 150 q 678 140 679 144 q 678 132 678 136 q 708 106 678 107 l 686 0 q 659 -3 671 -1 q 638 -6 647 -6 q 578 13 599 -6 q 558 57 558 31 q 560 76 558 65 q 564 101 561 86 q 571 136 567 117 q 440 26 517 67 q 289 -14 363 -14 m 342 92 q 408 104 372 92 q 477 139 443 117 q 539 191 511 161 q 581 254 567 221 l 624 463 q 592 548 618 510 q 527 609 565 586 q 446 632 489 632 q 336 603 388 632 q 245 528 285 575 q 183 423 206 481 q 160 307 160 365 q 182 199 160 247 q 245 121 204 150 q 342 92 286 92 m 860 874 l 965 1014 l 1086 1014 l 935 846 l 860 874 z "},"đ":{"ha":842,"x_min":31,"x_max":949,"o":"m 593 913 l 949 913 l 932 835 l 576 835 l 593 913 m 289 -14 q 150 27 208 -14 q 61 137 92 68 q 31 288 31 206 q 63 456 31 375 q 152 599 96 536 q 281 700 208 663 q 432 738 353 738 q 571 692 515 738 q 649 581 626 646 l 742 1014 l 864 1014 l 681 150 q 678 140 679 144 q 678 132 678 136 q 708 106 678 107 l 686 0 q 659 -3 671 -1 q 638 -6 647 -6 q 578 13 599 -6 q 558 57 558 31 q 560 76 558 65 q 564 101 561 86 q 571 136 567 117 q 440 26 517 67 q 289 -14 363 -14 m 342 92 q 408 104 372 92 q 477 139 443 117 q 539 191 511 161 q 581 254 567 221 l 624 463 q 592 548 618 510 q 527 609 565 586 q 446 632 489 632 q 336 603 388 632 q 245 528 285 575 q 183 423 206 481 q 160 307 160 365 q 182 199 160 247 q 245 121 204 150 q 342 92 286 92 z "},"ḍ":{"ha":842,"x_min":31,"x_max":864,"o":"m 289 -14 q 150 27 208 -14 q 61 137 92 68 q 31 288 31 206 q 63 456 31 375 q 152 599 96 536 q 281 700 208 663 q 432 738 353 738 q 571 692 515 738 q 649 581 626 646 l 742 1014 l 864 1014 l 681 150 q 678 140 679 144 q 678 132 678 136 q 708 106 678 107 l 686 0 q 659 -3 671 -1 q 638 -6 647 -6 q 578 13 599 -6 q 558 57 558 31 q 560 76 558 65 q 564 101 561 86 q 571 136 567 117 q 440 26 517 67 q 289 -14 363 -14 m 342 92 q 408 104 372 92 q 477 139 443 117 q 539 191 511 161 q 581 254 567 221 l 624 463 q 592 548 618 510 q 527 609 565 586 q 446 632 489 632 q 336 603 388 632 q 245 528 285 575 q 183 423 206 481 q 160 307 160 365 q 182 199 160 247 q 245 121 204 150 q 342 92 286 92 m 236 -253 l 268 -106 l 378 -106 l 347 -253 l 236 -253 z "},"ḏ":{"ha":842,"x_min":31,"x_max":864,"o":"m 289 -14 q 150 27 208 -14 q 61 137 92 68 q 31 288 31 206 q 63 456 31 375 q 152 599 96 536 q 281 700 208 663 q 432 738 353 738 q 571 692 515 738 q 649 581 626 646 l 742 1014 l 864 1014 l 681 150 q 678 140 679 144 q 678 132 678 136 q 708 106 678 107 l 686 0 q 659 -3 671 -1 q 638 -6 647 -6 q 578 13 599 -6 q 558 57 558 31 q 560 76 558 65 q 564 101 561 86 q 571 136 567 117 q 440 26 517 67 q 289 -14 363 -14 m 342 92 q 408 104 372 92 q 477 139 443 117 q 539 191 511 161 q 581 254 567 221 l 624 463 q 592 548 618 510 q 527 609 565 586 q 446 632 489 632 q 336 603 388 632 q 245 528 285 575 q 183 423 206 481 q 160 307 160 365 q 182 199 160 247 q 245 121 204 150 q 342 92 286 92 m 114 -199 l 133 -118 l 501 -118 l 482 -199 l 114 -199 z "},"e":{"ha":749,"x_min":32,"x_max":713,"o":"m 317 -14 q 163 27 226 -14 q 65 138 99 68 q 32 293 32 207 q 65 460 32 381 q 157 603 97 540 q 297 701 217 665 q 471 738 376 738 q 597 715 542 738 q 682 650 651 693 q 713 542 713 607 q 615 375 713 432 q 317 318 518 318 q 231 320 279 318 q 118 328 182 322 l 135 411 q 240 406 196 408 q 321 403 283 403 q 488 421 426 403 q 576 471 549 439 q 603 543 603 503 q 585 601 603 579 q 537 635 568 624 q 463 646 506 646 q 337 617 393 646 q 240 538 281 588 q 177 424 199 488 q 156 293 156 361 q 175 187 156 236 q 235 108 194 138 q 336 78 275 78 q 461 110 400 78 q 557 199 522 143 l 656 169 q 568 75 622 117 q 449 10 514 33 q 317 -14 385 -14 z "},"é":{"ha":749,"x_min":32,"x_max":713,"o":"m 317 -14 q 163 27 226 -14 q 65 138 99 68 q 32 293 32 207 q 65 460 32 381 q 157 603 97 540 q 297 701 217 665 q 471 738 376 738 q 597 715 542 738 q 682 650 651 693 q 713 542 713 607 q 615 375 713 432 q 317 318 518 318 q 231 320 279 318 q 118 328 182 322 l 135 411 q 240 406 196 408 q 321 403 283 403 q 488 421 426 403 q 576 471 549 439 q 603 543 603 503 q 585 601 603 579 q 537 635 568 624 q 463 646 506 646 q 337 617 393 646 q 240 538 281 588 q 177 424 199 488 q 156 293 156 361 q 175 187 156 236 q 235 108 194 138 q 336 78 275 78 q 461 110 400 78 q 557 199 522 143 l 656 169 q 568 75 622 117 q 449 10 514 33 q 317 -14 385 -14 m 529 846 l 454 874 l 560 1014 l 681 1014 l 529 846 z "},"ĕ":{"ha":749,"x_min":32,"x_max":713,"o":"m 317 -14 q 163 27 226 -14 q 65 138 99 68 q 32 293 32 207 q 65 460 32 381 q 157 603 97 540 q 297 701 217 665 q 471 738 376 738 q 597 715 542 738 q 682 650 651 693 q 713 542 713 607 q 615 375 713 432 q 317 318 518 318 q 231 320 279 318 q 118 328 182 322 l 135 411 q 240 406 196 408 q 321 403 283 403 q 488 421 426 403 q 576 471 549 439 q 603 543 603 503 q 585 601 603 579 q 537 635 568 624 q 463 646 506 646 q 337 617 393 646 q 240 538 281 588 q 177 424 199 488 q 156 293 156 361 q 175 187 156 236 q 235 108 194 138 q 336 78 275 78 q 461 110 400 78 q 557 199 522 143 l 656 169 q 568 75 622 117 q 449 10 514 33 q 317 -14 385 -14 m 514 919 q 569 947 542 919 q 610 1014 597 974 l 679 1014 q 644 935 671 971 q 580 880 617 900 q 501 860 543 860 q 415 893 447 860 q 383 978 383 926 q 385 996 383 988 q 388 1014 386 1004 l 458 1014 q 456 1003 457 1008 q 456 990 456 997 q 472 940 456 961 q 514 919 488 919 z "},"ě":{"ha":749,"x_min":32,"x_max":713,"o":"m 317 -14 q 163 27 226 -14 q 65 138 99 68 q 32 293 32 207 q 65 460 32 381 q 157 603 97 540 q 297 701 217 665 q 471 738 376 738 q 597 715 542 738 q 682 650 651 693 q 713 542 713 607 q 615 375 713 432 q 317 318 518 318 q 231 320 279 318 q 118 328 182 322 l 135 411 q 240 406 196 408 q 321 403 283 403 q 488 421 426 403 q 576 471 549 439 q 603 543 603 503 q 585 601 603 579 q 537 635 568 624 q 463 646 506 646 q 337 617 393 646 q 240 538 281 588 q 177 424 199 488 q 156 293 156 361 q 175 187 156 236 q 235 108 194 138 q 336 78 275 78 q 461 110 400 78 q 557 199 522 143 l 656 169 q 568 75 622 117 q 449 10 514 33 q 317 -14 385 -14 m 340 981 l 414 1014 l 507 926 l 638 1014 l 697 981 l 536 856 l 447 856 l 340 981 z "},"ḝ":{"ha":749,"x_min":32,"x_max":713,"o":"m 317 -14 q 163 27 226 -14 q 65 138 99 68 q 32 293 32 207 q 65 460 32 381 q 157 603 97 540 q 297 701 217 665 q 471 738 376 738 q 597 715 542 738 q 682 650 651 693 q 713 542 713 607 q 615 375 713 432 q 317 318 518 318 q 231 320 279 318 q 118 328 182 322 l 135 411 q 240 406 196 408 q 321 403 283 403 q 488 421 426 403 q 576 471 549 439 q 603 543 603 503 q 585 601 603 579 q 537 635 568 624 q 463 646 506 646 q 337 617 393 646 q 240 538 281 588 q 177 424 199 488 q 156 293 156 361 q 175 187 156 236 q 235 108 194 138 q 336 78 275 78 q 461 110 400 78 q 557 199 522 143 l 656 169 q 568 75 622 117 q 449 10 514 33 q 317 -14 385 -14 m 244 -258 q 178 -249 213 -258 q 113 -219 143 -239 l 161 -151 q 199 -174 181 -165 q 243 -182 218 -182 q 312 -160 286 -182 q 338 -96 338 -137 q 324 -45 338 -68 q 283 0 310 -22 l 332 32 q 387 -29 365 4 q 408 -106 408 -62 q 388 -185 408 -151 q 331 -239 368 -219 q 244 -258 294 -258 m 514 919 q 569 947 542 919 q 610 1014 597 974 l 679 1014 q 644 935 671 971 q 580 880 617 900 q 501 860 543 860 q 415 893 447 860 q 383 978 383 926 q 385 996 383 988 q 388 1014 386 1004 l 458 1014 q 456 1003 457 1008 q 456 990 456 997 q 472 940 456 961 q 514 919 488 919 z "},"ê":{"ha":749,"x_min":32,"x_max":713,"o":"m 317 -14 q 163 27 226 -14 q 65 138 99 68 q 32 293 32 207 q 65 460 32 381 q 157 603 97 540 q 297 701 217 665 q 471 738 376 738 q 597 715 542 738 q 682 650 651 693 q 713 542 713 607 q 615 375 713 432 q 317 318 518 318 q 231 320 279 318 q 118 328 182 322 l 135 411 q 240 406 196 408 q 321 403 283 403 q 488 421 426 403 q 576 471 549 439 q 603 543 603 503 q 585 601 603 579 q 537 635 568 624 q 463 646 506 646 q 337 617 393 646 q 240 538 281 588 q 177 424 199 488 q 156 293 156 361 q 175 187 156 236 q 235 108 194 138 q 336 78 275 78 q 461 110 400 78 q 557 199 522 143 l 656 169 q 568 75 622 117 q 449 10 514 33 q 317 -14 385 -14 m 331 889 l 492 1014 l 581 1014 l 688 889 l 614 856 l 521 943 l 390 856 l 331 889 z "},"ế":{"ha":749,"x_min":32,"x_max":883,"o":"m 317 -14 q 163 27 226 -14 q 65 138 99 68 q 32 293 32 207 q 65 460 32 381 q 157 603 97 540 q 297 701 217 665 q 471 738 376 738 q 597 715 542 738 q 682 650 651 693 q 713 542 713 607 q 615 375 713 432 q 317 318 518 318 q 231 320 279 318 q 118 328 182 322 l 135 411 q 240 406 196 408 q 321 403 283 403 q 488 421 426 403 q 576 471 549 439 q 603 543 603 503 q 585 601 603 579 q 537 635 568 624 q 463 646 506 646 q 337 617 393 646 q 240 538 281 588 q 177 424 199 488 q 156 293 156 361 q 175 187 156 236 q 235 108 194 138 q 336 78 275 78 q 461 110 400 78 q 557 199 522 143 l 656 169 q 568 75 622 117 q 449 10 514 33 q 317 -14 385 -14 z "},"ệ":{"ha":749,"x_min":32,"x_max":713,"o":"m 317 -14 q 163 27 226 -14 q 65 138 99 68 q 32 293 32 207 q 65 460 32 381 q 157 603 97 540 q 297 701 217 665 q 471 738 376 738 q 597 715 542 738 q 682 650 651 693 q 713 542 713 607 q 615 375 713 432 q 317 318 518 318 q 231 320 279 318 q 118 328 182 322 l 135 411 q 240 406 196 408 q 321 403 283 403 q 488 421 426 403 q 576 471 549 439 q 603 543 603 503 q 585 601 603 579 q 537 635 568 624 q 463 646 506 646 q 337 617 393 646 q 240 538 281 588 q 177 424 199 488 q 156 293 156 361 q 175 187 156 236 q 235 108 194 138 q 336 78 275 78 q 461 110 400 78 q 557 199 522 143 l 656 169 q 568 75 622 117 q 449 10 514 33 q 317 -14 385 -14 m 331 889 l 492 1014 l 581 1014 l 688 889 l 614 856 l 521 943 l 390 856 l 331 889 m 211 -253 l 243 -106 l 353 -106 l 322 -253 l 211 -253 z "},"ề":{"ha":749,"x_min":32,"x_max":713,"o":"m 317 -14 q 163 27 226 -14 q 65 138 99 68 q 32 293 32 207 q 65 460 32 381 q 157 603 97 540 q 297 701 217 665 q 471 738 376 738 q 597 715 542 738 q 682 650 651 693 q 713 542 713 607 q 615 375 713 432 q 317 318 518 318 q 231 320 279 318 q 118 328 182 322 l 135 411 q 240 406 196 408 q 321 403 283 403 q 488 421 426 403 q 576 471 549 439 q 603 543 603 503 q 585 601 603 579 q 537 635 568 624 q 463 646 506 646 q 337 617 393 646 q 240 538 281 588 q 177 424 199 488 q 156 293 156 361 q 175 187 156 236 q 235 108 194 138 q 336 78 275 78 q 461 110 400 78 q 557 199 522 143 l 656 169 q 568 75 622 117 q 449 10 514 33 q 317 -14 385 -14 z "},"ể":{"ha":749,"x_min":32,"x_max":786,"o":"m 317 -14 q 163 27 226 -14 q 65 138 99 68 q 32 293 32 207 q 65 460 32 381 q 157 603 97 540 q 297 701 217 665 q 471 738 376 738 q 597 715 542 738 q 682 650 651 693 q 713 542 713 607 q 615 375 713 432 q 317 318 518 318 q 231 320 279 318 q 118 328 182 322 l 135 411 q 240 406 196 408 q 321 403 283 403 q 488 421 426 403 q 576 471 549 439 q 603 543 603 503 q 585 601 603 579 q 537 635 568 624 q 463 646 506 646 q 337 617 393 646 q 240 538 281 588 q 177 424 199 488 q 156 293 156 361 q 175 187 156 236 q 235 108 194 138 q 336 78 275 78 q 461 110 400 78 q 557 199 522 143 l 656 169 q 568 75 622 117 q 449 10 514 33 q 317 -14 385 -14 z "},"ễ":{"ha":749,"x_min":32,"x_max":776,"o":"m 317 -14 q 163 27 226 -14 q 65 138 99 68 q 32 293 32 207 q 65 460 32 381 q 157 603 97 540 q 297 701 217 665 q 471 738 376 738 q 597 715 542 738 q 682 650 651 693 q 713 542 713 607 q 615 375 713 432 q 317 318 518 318 q 231 320 279 318 q 118 328 182 322 l 135 411 q 240 406 196 408 q 321 403 283 403 q 488 421 426 403 q 576 471 549 439 q 603 543 603 503 q 585 601 603 579 q 537 635 568 624 q 463 646 506 646 q 337 617 393 646 q 240 538 281 588 q 177 424 199 488 q 156 293 156 361 q 175 187 156 236 q 235 108 194 138 q 336 78 275 78 q 461 110 400 78 q 557 199 522 143 l 656 169 q 568 75 622 117 q 449 10 514 33 q 317 -14 385 -14 z "},"ȅ":{"ha":749,"x_min":32,"x_max":713,"o":"m 317 -14 q 163 27 226 -14 q 65 138 99 68 q 32 293 32 207 q 65 460 32 381 q 157 603 97 540 q 297 701 217 665 q 471 738 376 738 q 597 715 542 738 q 682 650 651 693 q 713 542 713 607 q 615 375 713 432 q 317 318 518 318 q 231 320 279 318 q 118 328 182 322 l 135 411 q 240 406 196 408 q 321 403 283 403 q 488 421 426 403 q 576 471 549 439 q 603 543 603 503 q 585 601 603 579 q 537 635 568 624 q 463 646 506 646 q 337 617 393 646 q 240 538 281 588 q 177 424 199 488 q 156 293 156 361 q 175 187 156 236 q 235 108 194 138 q 336 78 275 78 q 461 110 400 78 q 557 199 522 143 l 656 169 q 568 75 622 117 q 449 10 514 33 q 317 -14 385 -14 m 479 1015 l 582 1015 l 624 875 l 554 847 l 479 1015 m 296 1015 l 400 1015 l 440 875 l 371 847 l 296 1015 z "},"ë":{"ha":749,"x_min":32,"x_max":713,"o":"m 317 -14 q 163 27 226 -14 q 65 138 99 68 q 32 293 32 207 q 65 460 32 381 q 157 603 97 540 q 297 701 217 665 q 471 738 376 738 q 597 715 542 738 q 682 650 651 693 q 713 542 713 607 q 615 375 713 432 q 317 318 518 318 q 231 320 279 318 q 118 328 182 322 l 135 411 q 240 406 196 408 q 321 403 283 403 q 488 421 426 403 q 576 471 549 439 q 603 543 603 503 q 585 601 603 579 q 537 635 568 624 q 463 646 506 646 q 337 617 393 646 q 240 538 281 588 q 177 424 199 488 q 156 293 156 361 q 175 187 156 236 q 235 108 194 138 q 336 78 275 78 q 461 110 400 78 q 557 199 522 143 l 656 169 q 568 75 622 117 q 449 10 514 33 q 317 -14 385 -14 m 344 867 l 375 1008 l 478 1008 l 447 867 l 344 867 m 563 867 l 593 1008 l 694 1008 l 665 867 l 563 867 z "},"ė":{"ha":749,"x_min":32,"x_max":713,"o":"m 317 -14 q 163 27 226 -14 q 65 138 99 68 q 32 293 32 207 q 65 460 32 381 q 157 603 97 540 q 297 701 217 665 q 471 738 376 738 q 597 715 542 738 q 682 650 651 693 q 713 542 713 607 q 615 375 713 432 q 317 318 518 318 q 231 320 279 318 q 118 328 182 322 l 135 411 q 240 406 196 408 q 321 403 283 403 q 488 421 426 403 q 576 471 549 439 q 603 543 603 503 q 585 601 603 579 q 537 635 568 624 q 463 646 506 646 q 337 617 393 646 q 240 538 281 588 q 177 424 199 488 q 156 293 156 361 q 175 187 156 236 q 235 108 194 138 q 336 78 275 78 q 461 110 400 78 q 557 199 522 143 l 656 169 q 568 75 622 117 q 449 10 514 33 q 317 -14 385 -14 m 449 867 l 481 1014 l 590 1014 l 560 867 l 449 867 z "},"ẹ":{"ha":749,"x_min":32,"x_max":713,"o":"m 317 -14 q 163 27 226 -14 q 65 138 99 68 q 32 293 32 207 q 65 460 32 381 q 157 603 97 540 q 297 701 217 665 q 471 738 376 738 q 597 715 542 738 q 682 650 651 693 q 713 542 713 607 q 615 375 713 432 q 317 318 518 318 q 231 320 279 318 q 118 328 182 322 l 135 411 q 240 406 196 408 q 321 403 283 403 q 488 421 426 403 q 576 471 549 439 q 603 543 603 503 q 585 601 603 579 q 537 635 568 624 q 463 646 506 646 q 337 617 393 646 q 240 538 281 588 q 177 424 199 488 q 156 293 156 361 q 175 187 156 236 q 235 108 194 138 q 336 78 275 78 q 461 110 400 78 q 557 199 522 143 l 656 169 q 568 75 622 117 q 449 10 514 33 q 317 -14 385 -14 m 211 -253 l 243 -106 l 353 -106 l 322 -253 l 211 -253 z "},"è":{"ha":749,"x_min":32,"x_max":713,"o":"m 317 -14 q 163 27 226 -14 q 65 138 99 68 q 32 293 32 207 q 65 460 32 381 q 157 603 97 540 q 297 701 217 665 q 471 738 376 738 q 597 715 542 738 q 682 650 651 693 q 713 542 713 607 q 615 375 713 432 q 317 318 518 318 q 231 320 279 318 q 118 328 182 322 l 135 411 q 240 406 196 408 q 321 403 283 403 q 488 421 426 403 q 576 471 549 439 q 603 543 603 503 q 585 601 603 579 q 537 635 568 624 q 463 646 506 646 q 337 617 393 646 q 240 538 281 588 q 177 424 199 488 q 156 293 156 361 q 175 187 156 236 q 235 108 194 138 q 336 78 275 78 q 461 110 400 78 q 557 199 522 143 l 656 169 q 568 75 622 117 q 449 10 514 33 q 317 -14 385 -14 m 347 1014 l 467 1014 l 514 874 l 429 846 l 347 1014 z "},"ẻ":{"ha":749,"x_min":32,"x_max":713,"o":"m 317 -14 q 163 27 226 -14 q 65 138 99 68 q 32 293 32 207 q 65 460 32 381 q 157 603 97 540 q 297 701 217 665 q 471 738 376 738 q 597 715 542 738 q 682 650 651 693 q 713 542 713 607 q 615 375 713 432 q 317 318 518 318 q 231 320 279 318 q 118 328 182 322 l 135 411 q 240 406 196 408 q 321 403 283 403 q 488 421 426 403 q 576 471 549 439 q 603 543 603 503 q 585 601 603 579 q 537 635 568 624 q 463 646 506 646 q 337 617 393 646 q 240 538 281 588 q 177 424 199 488 q 156 293 156 361 q 175 187 156 236 q 235 108 194 138 q 336 78 275 78 q 461 110 400 78 q 557 199 522 143 l 656 169 q 568 75 622 117 q 449 10 514 33 q 317 -14 385 -14 m 443 967 l 415 1013 q 485 1049 450 1036 q 556 1063 519 1063 q 618 1034 606 1063 q 618 971 631 1006 q 578 913 608 943 q 493 849 547 882 l 474 889 q 522 927 507 911 q 542 960 536 943 q 542 986 549 975 q 519 997 536 997 q 486 991 501 997 q 443 967 471 985 z "},"ȇ":{"ha":749,"x_min":32,"x_max":713,"o":"m 317 -14 q 163 27 226 -14 q 65 138 99 68 q 32 293 32 207 q 65 460 32 381 q 157 603 97 540 q 297 701 217 665 q 471 738 376 738 q 597 715 542 738 q 682 650 651 693 q 713 542 713 607 q 615 375 713 432 q 317 318 518 318 q 231 320 279 318 q 118 328 182 322 l 135 411 q 240 406 196 408 q 321 403 283 403 q 488 421 426 403 q 576 471 549 439 q 603 543 603 503 q 585 601 603 579 q 537 635 568 624 q 463 646 506 646 q 337 617 393 646 q 240 538 281 588 q 177 424 199 488 q 156 293 156 361 q 175 187 156 236 q 235 108 194 138 q 336 78 275 78 q 461 110 400 78 q 557 199 522 143 l 656 169 q 568 75 622 117 q 449 10 514 33 q 317 -14 385 -14 m 353 860 q 389 939 363 904 q 452 994 415 974 q 529 1014 489 1014 q 615 978 582 1014 q 647 893 647 943 q 647 876 647 885 q 643 860 646 868 l 575 860 q 577 878 576 869 q 578 894 578 886 q 521 954 578 954 q 455 927 478 954 q 422 860 432 900 l 353 860 z "},"ē":{"ha":749,"x_min":32,"x_max":722,"o":"m 317 -14 q 163 27 226 -14 q 65 138 99 68 q 32 293 32 207 q 65 460 32 381 q 157 603 97 540 q 297 701 217 665 q 471 738 376 738 q 597 715 542 738 q 682 650 651 693 q 713 542 713 607 q 615 375 713 432 q 317 318 518 318 q 231 320 279 318 q 118 328 182 322 l 135 411 q 240 406 196 408 q 321 403 283 403 q 488 421 426 403 q 576 471 549 439 q 603 543 603 503 q 585 601 603 579 q 537 635 568 624 q 463 646 506 646 q 337 617 393 646 q 240 538 281 588 q 177 424 199 488 q 156 293 156 361 q 175 187 156 236 q 235 108 194 138 q 336 78 275 78 q 461 110 400 78 q 557 199 522 143 l 656 169 q 568 75 622 117 q 449 10 514 33 q 317 -14 385 -14 m 318 906 l 335 986 l 722 986 l 704 906 l 318 906 z "},"ḗ":{"ha":749,"x_min":32,"x_max":736,"o":"m 317 -14 q 163 27 226 -14 q 65 138 99 68 q 32 293 32 207 q 65 460 32 381 q 157 603 97 540 q 297 701 217 665 q 471 738 376 738 q 597 715 542 738 q 682 650 651 693 q 713 542 713 607 q 615 375 713 432 q 317 318 518 318 q 231 320 279 318 q 118 328 182 322 l 135 411 q 240 406 196 408 q 321 403 283 403 q 488 421 426 403 q 576 471 549 439 q 603 543 603 503 q 585 601 603 579 q 537 635 568 624 q 463 646 506 646 q 337 617 393 646 q 240 538 281 588 q 177 424 199 488 q 156 293 156 361 q 175 187 156 236 q 235 108 194 138 q 336 78 275 78 q 461 110 400 78 q 557 199 522 143 l 656 169 q 568 75 622 117 q 449 10 514 33 q 317 -14 385 -14 m 318 906 l 335 986 l 722 986 l 704 906 l 318 906 m 585 1107 l 510 1135 l 615 1275 l 736 1275 l 585 1107 z "},"ḕ":{"ha":749,"x_min":32,"x_max":722,"o":"m 317 -14 q 163 27 226 -14 q 65 138 99 68 q 32 293 32 207 q 65 460 32 381 q 157 603 97 540 q 297 701 217 665 q 471 738 376 738 q 597 715 542 738 q 682 650 651 693 q 713 542 713 607 q 615 375 713 432 q 317 318 518 318 q 231 320 279 318 q 118 328 182 322 l 135 411 q 240 406 196 408 q 321 403 283 403 q 488 421 426 403 q 576 471 549 439 q 603 543 603 503 q 585 601 603 579 q 537 635 568 624 q 463 646 506 646 q 337 617 393 646 q 240 538 281 588 q 177 424 199 488 q 156 293 156 361 q 175 187 156 236 q 235 108 194 138 q 336 78 275 78 q 461 110 400 78 q 557 199 522 143 l 656 169 q 568 75 622 117 q 449 10 514 33 q 317 -14 385 -14 m 318 906 l 335 986 l 722 986 l 704 906 l 318 906 m 403 1275 l 522 1275 l 569 1135 l 485 1107 l 403 1275 z "},"ę":{"ha":749,"x_min":32,"x_max":713,"o":"m 317 -14 q 163 27 226 -14 q 65 138 99 68 q 32 293 32 207 q 65 460 32 381 q 157 603 97 540 q 297 701 217 665 q 471 738 376 738 q 597 715 542 738 q 682 650 651 693 q 713 542 713 607 q 615 375 713 432 q 317 318 518 318 q 231 320 279 318 q 118 328 182 322 l 135 411 q 240 406 196 408 q 321 403 283 403 q 488 421 426 403 q 576 471 549 439 q 603 543 603 503 q 585 601 603 579 q 537 635 568 624 q 463 646 506 646 q 337 617 393 646 q 240 538 281 588 q 177 424 199 488 q 156 293 156 361 q 175 187 156 236 q 235 108 194 138 q 336 78 275 78 q 461 110 400 78 q 557 199 522 143 l 656 169 q 568 75 622 117 q 449 10 514 33 q 317 -14 385 -14 m 226 -171 q 262 -74 226 -121 q 371 25 297 -26 l 406 25 l 417 0 q 333 -83 360 -50 q 307 -143 307 -115 q 324 -173 307 -164 q 369 -185 340 -182 l 324 -262 q 247 -228 268 -256 q 226 -171 226 -201 z "},"ẽ":{"ha":749,"x_min":32,"x_max":760,"o":"m 317 -14 q 163 27 226 -14 q 65 138 99 68 q 32 293 32 207 q 65 460 32 381 q 157 603 97 540 q 297 701 217 665 q 471 738 376 738 q 597 715 542 738 q 682 650 651 693 q 713 542 713 607 q 615 375 713 432 q 317 318 518 318 q 231 320 279 318 q 118 328 182 322 l 135 411 q 240 406 196 408 q 321 403 283 403 q 488 421 426 403 q 576 471 549 439 q 603 543 603 503 q 585 601 603 579 q 537 635 568 624 q 463 646 506 646 q 337 617 393 646 q 240 538 281 588 q 177 424 199 488 q 156 293 156 361 q 175 187 156 236 q 235 108 194 138 q 336 78 275 78 q 461 110 400 78 q 557 199 522 143 l 656 169 q 568 75 622 117 q 449 10 514 33 q 317 -14 385 -14 m 588 871 q 524 885 549 871 q 478 915 499 900 q 429 929 458 929 q 383 914 400 929 q 358 882 365 899 q 351 863 351 865 l 279 863 q 292 894 282 871 q 324 942 303 917 q 374 987 344 968 q 443 1006 404 1006 q 490 997 471 1006 q 526 976 510 988 q 559 955 542 964 q 600 946 576 946 q 653 962 633 946 q 681 994 672 978 q 689 1014 689 1011 l 760 1014 q 747 983 758 1006 q 715 935 736 961 q 662 890 693 908 q 588 871 631 871 z "},"ə":{"ha":788,"x_min":14,"x_max":733,"o":"m 296 -14 q 144 24 207 -14 q 47 128 81 63 q 14 274 14 193 q 19 339 14 304 q 36 403 24 374 l 603 403 q 605 426 604 414 q 606 447 606 438 q 583 551 606 507 q 520 619 560 594 q 428 644 481 644 q 344 629 386 644 q 266 588 301 614 q 208 525 231 561 l 110 554 q 197 649 144 607 q 316 714 250 690 q 453 738 382 738 q 604 697 542 738 q 700 586 667 656 q 733 432 733 517 q 699 265 733 344 q 605 122 665 185 q 465 22 544 58 q 296 -14 386 -14 m 317 78 q 431 110 376 78 q 528 197 486 142 q 589 322 569 251 l 135 322 q 133 300 133 311 q 132 278 132 289 q 184 133 132 189 q 317 78 236 78 z "},"f":{"ha":464,"x_min":-21,"x_max":618,"o":"m 175 629 l 82 629 l 103 725 l 196 725 l 199 740 q 256 894 217 831 q 352 993 296 958 q 474 1028 408 1028 q 551 1016 514 1028 q 618 983 589 1004 l 568 893 q 527 915 553 907 q 476 924 501 924 q 381 877 421 924 q 322 744 342 831 l 318 725 l 500 725 l 479 629 l 297 629 l 101 -294 l -21 -294 l 175 629 z "},"g":{"ha":832,"x_min":-53,"x_max":801,"o":"m 228 -310 q 46 -267 111 -310 q -53 -150 -19 -224 l 31 -87 q 116 -183 58 -151 q 247 -215 174 -215 q 367 -191 310 -215 q 468 -117 425 -167 q 526 8 511 -67 l 553 136 q 427 31 501 69 q 279 -8 353 -8 q 145 33 201 -8 q 60 141 89 74 q 31 288 31 208 q 63 456 31 375 q 153 599 96 536 q 284 700 210 663 q 440 738 358 738 q 580 693 526 738 q 663 581 633 649 l 693 725 l 801 725 l 649 8 q 565 -165 628 -94 q 415 -273 503 -236 q 228 -310 326 -310 m 339 92 q 412 106 375 92 q 481 142 449 119 q 540 194 514 165 q 579 254 565 224 l 624 463 q 590 551 617 513 q 526 610 564 589 q 443 632 488 632 q 332 603 383 632 q 241 526 281 574 q 179 421 201 478 q 157 307 157 364 q 180 199 157 249 q 244 121 203 150 q 339 92 285 92 z "},"ğ":{"ha":832,"x_min":-53,"x_max":801,"o":"m 228 -310 q 46 -267 111 -310 q -53 -150 -19 -224 l 31 -87 q 116 -183 58 -151 q 247 -215 174 -215 q 367 -191 310 -215 q 468 -117 425 -167 q 526 8 511 -67 l 553 136 q 427 31 501 69 q 279 -8 353 -8 q 145 33 201 -8 q 60 141 89 74 q 31 288 31 208 q 63 456 31 375 q 153 599 96 536 q 284 700 210 663 q 440 738 358 738 q 580 693 526 738 q 663 581 633 649 l 693 725 l 801 725 l 649 8 q 565 -165 628 -94 q 415 -273 503 -236 q 228 -310 326 -310 m 339 92 q 412 106 375 92 q 481 142 449 119 q 540 194 514 165 q 579 254 565 224 l 624 463 q 590 551 617 513 q 526 610 564 589 q 443 632 488 632 q 332 603 383 632 q 241 526 281 574 q 179 421 201 478 q 157 307 157 364 q 180 199 157 249 q 244 121 203 150 q 339 92 285 92 m 503 919 q 558 947 531 919 q 599 1014 586 974 l 668 1014 q 633 935 660 971 q 569 880 606 900 q 490 860 532 860 q 404 893 436 860 q 372 978 372 926 q 374 996 372 988 q 376 1014 375 1004 l 447 1014 q 445 1003 446 1008 q 444 990 444 997 q 460 940 444 961 q 503 919 476 919 z "},"ǧ":{"ha":832,"x_min":-53,"x_max":801,"o":"m 228 -310 q 46 -267 111 -310 q -53 -150 -19 -224 l 31 -87 q 116 -183 58 -151 q 247 -215 174 -215 q 367 -191 310 -215 q 468 -117 425 -167 q 526 8 511 -67 l 553 136 q 427 31 501 69 q 279 -8 353 -8 q 145 33 201 -8 q 60 141 89 74 q 31 288 31 208 q 63 456 31 375 q 153 599 96 536 q 284 700 210 663 q 440 738 358 738 q 580 693 526 738 q 663 581 633 649 l 693 725 l 801 725 l 649 8 q 565 -165 628 -94 q 415 -273 503 -236 q 228 -310 326 -310 m 339 92 q 412 106 375 92 q 481 142 449 119 q 540 194 514 165 q 579 254 565 224 l 624 463 q 590 551 617 513 q 526 610 564 589 q 443 632 488 632 q 332 603 383 632 q 241 526 281 574 q 179 421 201 478 q 157 307 157 364 q 180 199 157 249 q 244 121 203 150 q 339 92 285 92 m 329 981 l 403 1014 l 496 926 l 626 1014 l 686 981 l 525 856 l 436 856 l 329 981 z "},"ĝ":{"ha":832,"x_min":-53,"x_max":801,"o":"m 228 -310 q 46 -267 111 -310 q -53 -150 -19 -224 l 31 -87 q 116 -183 58 -151 q 247 -215 174 -215 q 367 -191 310 -215 q 468 -117 425 -167 q 526 8 511 -67 l 553 136 q 427 31 501 69 q 279 -8 353 -8 q 145 33 201 -8 q 60 141 89 74 q 31 288 31 208 q 63 456 31 375 q 153 599 96 536 q 284 700 210 663 q 440 738 358 738 q 580 693 526 738 q 663 581 633 649 l 693 725 l 801 725 l 649 8 q 565 -165 628 -94 q 415 -273 503 -236 q 228 -310 326 -310 m 339 92 q 412 106 375 92 q 481 142 449 119 q 540 194 514 165 q 579 254 565 224 l 624 463 q 590 551 617 513 q 526 610 564 589 q 443 632 488 632 q 332 603 383 632 q 241 526 281 574 q 179 421 201 478 q 157 307 157 364 q 180 199 157 249 q 244 121 203 150 q 339 92 285 92 m 319 889 l 481 1014 l 569 1014 l 676 889 l 603 856 l 510 943 l 379 856 l 319 889 z "},"ģ":{"ha":832,"x_min":-53,"x_max":801,"o":"m 228 -310 q 46 -267 111 -310 q -53 -150 -19 -224 l 31 -87 q 116 -183 58 -151 q 247 -215 174 -215 q 367 -191 310 -215 q 468 -117 425 -167 q 526 8 511 -67 l 553 136 q 427 31 501 69 q 279 -8 353 -8 q 145 33 201 -8 q 60 141 89 74 q 31 288 31 208 q 63 456 31 375 q 153 599 96 536 q 284 700 210 663 q 440 738 358 738 q 580 693 526 738 q 663 581 633 649 l 693 725 l 801 725 l 649 8 q 565 -165 628 -94 q 415 -273 503 -236 q 228 -310 326 -310 m 339 92 q 412 106 375 92 q 481 142 449 119 q 540 194 514 165 q 579 254 565 224 l 624 463 q 590 551 617 513 q 526 610 564 589 q 443 632 488 632 q 332 603 383 632 q 241 526 281 574 q 179 421 201 478 q 157 307 157 364 q 180 199 157 249 q 244 121 203 150 q 339 92 285 92 m 578 1014 l 531 922 l 564 922 l 533 818 l 440 818 l 471 922 l 529 1014 l 578 1014 z "},"ġ":{"ha":832,"x_min":-53,"x_max":801,"o":"m 228 -310 q 46 -267 111 -310 q -53 -150 -19 -224 l 31 -87 q 116 -183 58 -151 q 247 -215 174 -215 q 367 -191 310 -215 q 468 -117 425 -167 q 526 8 511 -67 l 553 136 q 427 31 501 69 q 279 -8 353 -8 q 145 33 201 -8 q 60 141 89 74 q 31 288 31 208 q 63 456 31 375 q 153 599 96 536 q 284 700 210 663 q 440 738 358 738 q 580 693 526 738 q 663 581 633 649 l 693 725 l 801 725 l 649 8 q 565 -165 628 -94 q 415 -273 503 -236 q 228 -310 326 -310 m 339 92 q 412 106 375 92 q 481 142 449 119 q 540 194 514 165 q 579 254 565 224 l 624 463 q 590 551 617 513 q 526 610 564 589 q 443 632 488 632 q 332 603 383 632 q 241 526 281 574 q 179 421 201 478 q 157 307 157 364 q 180 199 157 249 q 244 121 203 150 q 339 92 285 92 m 438 867 l 469 1014 l 579 1014 l 549 867 l 438 867 z "},"ḡ":{"ha":832,"x_min":-53,"x_max":801,"o":"m 228 -310 q 46 -267 111 -310 q -53 -150 -19 -224 l 31 -87 q 116 -183 58 -151 q 247 -215 174 -215 q 367 -191 310 -215 q 468 -117 425 -167 q 526 8 511 -67 l 553 136 q 427 31 501 69 q 279 -8 353 -8 q 145 33 201 -8 q 60 141 89 74 q 31 288 31 208 q 63 456 31 375 q 153 599 96 536 q 284 700 210 663 q 440 738 358 738 q 580 693 526 738 q 663 581 633 649 l 693 725 l 801 725 l 649 8 q 565 -165 628 -94 q 415 -273 503 -236 q 228 -310 326 -310 m 339 92 q 412 106 375 92 q 481 142 449 119 q 540 194 514 165 q 579 254 565 224 l 624 463 q 590 551 617 513 q 526 610 564 589 q 443 632 488 632 q 332 603 383 632 q 241 526 281 574 q 179 421 201 478 q 157 307 157 364 q 180 199 157 249 q 244 121 203 150 q 339 92 285 92 m 307 906 l 324 986 l 711 986 l 693 906 l 307 906 z "},"h":{"ha":788,"x_min":7,"x_max":715,"o":"m 222 1014 l 344 1014 l 250 569 q 387 692 307 647 q 549 738 467 738 q 647 715 610 738 q 699 651 683 692 q 715 557 715 611 q 712 498 715 529 q 701 433 708 467 l 610 0 l 488 0 l 574 406 q 582 456 579 433 q 585 500 585 479 q 558 596 585 564 q 478 628 531 628 q 385 603 435 628 q 292 535 336 578 q 222 438 249 493 l 129 0 l 7 0 l 222 1014 z "},"ħ":{"ha":788,"x_min":7,"x_max":715,"o":"m 104 913 l 460 913 l 443 835 l 88 835 l 104 913 m 222 1014 l 344 1014 l 250 569 q 387 692 307 647 q 549 738 467 738 q 647 715 610 738 q 699 651 683 692 q 715 557 715 611 q 712 498 715 529 q 701 433 708 467 l 610 0 l 488 0 l 574 406 q 582 456 579 433 q 585 500 585 479 q 558 596 585 564 q 478 628 531 628 q 385 603 435 628 q 292 535 336 578 q 222 438 249 493 l 129 0 l 7 0 l 222 1014 z "},"ḫ":{"ha":788,"x_min":7,"x_max":715,"o":"m 222 1014 l 344 1014 l 250 569 q 387 692 307 647 q 549 738 467 738 q 647 715 610 738 q 699 651 683 692 q 715 557 715 611 q 712 498 715 529 q 701 433 708 467 l 610 0 l 488 0 l 574 406 q 582 456 579 433 q 585 500 585 479 q 558 596 585 564 q 478 628 531 628 q 385 603 435 628 q 292 535 336 578 q 222 438 249 493 l 129 0 l 7 0 l 222 1014 m 263 -231 q 179 -186 207 -231 q 168 -76 151 -142 l 235 -76 q 238 -142 225 -114 q 278 -171 251 -171 q 328 -144 303 -171 q 368 -76 354 -117 l 433 -76 q 396 -155 422 -119 q 335 -210 369 -190 q 263 -231 300 -231 z "},"ĥ":{"ha":788,"x_min":7,"x_max":729,"o":"m 397 1149 l 547 1272 l 629 1272 l 729 1149 l 661 1115 l 574 1201 l 453 1115 l 397 1149 m 222 1014 l 344 1014 l 250 569 q 387 692 307 647 q 549 738 467 738 q 647 715 610 738 q 699 651 683 692 q 715 557 715 611 q 712 498 715 529 q 701 433 708 467 l 610 0 l 488 0 l 574 406 q 582 456 579 433 q 585 500 585 479 q 558 596 585 564 q 478 628 531 628 q 385 603 435 628 q 292 535 336 578 q 222 438 249 493 l 129 0 l 7 0 l 222 1014 z "},"ḥ":{"ha":788,"x_min":7,"x_max":715,"o":"m 222 1014 l 344 1014 l 250 569 q 387 692 307 647 q 549 738 467 738 q 647 715 610 738 q 699 651 683 692 q 715 557 715 611 q 712 498 715 529 q 701 433 708 467 l 610 0 l 488 0 l 574 406 q 582 456 579 433 q 585 500 585 479 q 558 596 585 564 q 478 628 531 628 q 385 603 435 628 q 292 535 336 578 q 222 438 249 493 l 129 0 l 7 0 l 222 1014 m 210 -253 l 242 -106 l 351 -106 l 321 -253 l 210 -253 z "},"i":{"ha":314,"x_min":7,"x_max":344,"o":"m 161 725 l 283 725 l 129 0 l 7 0 l 161 725 m 222 1014 l 344 1014 l 313 861 l 190 861 l 222 1014 z "},"ı":{"ha":314,"x_min":7,"x_max":283,"o":"m 161 725 l 283 725 l 129 0 l 7 0 l 161 725 z "},"í":{"ha":314,"x_min":7,"x_max":435,"o":"m 161 725 l 283 725 l 129 0 l 7 0 l 161 725 m 283 846 l 208 874 l 314 1014 l 435 1014 l 283 846 z "},"ĭ":{"ha":314,"x_min":7,"x_max":425,"o":"m 161 725 l 283 725 l 129 0 l 7 0 l 161 725 m 260 919 q 315 947 288 919 q 356 1014 343 974 l 425 1014 q 390 935 417 971 q 326 880 363 900 q 247 860 289 860 q 161 893 193 860 q 129 978 129 926 q 131 996 129 988 q 133 1014 132 1004 l 204 1014 q 202 1003 203 1008 q 201 990 201 997 q 217 940 201 961 q 260 919 233 919 z "},"î":{"ha":314,"x_min":7,"x_max":433,"o":"m 161 725 l 283 725 l 129 0 l 7 0 l 161 725 m 76 889 l 238 1014 l 326 1014 l 433 889 l 360 856 l 267 943 l 136 856 l 76 889 z "},"ȉ":{"ha":314,"x_min":7,"x_max":372,"o":"m 161 725 l 283 725 l 129 0 l 7 0 l 161 725 m 228 1014 l 331 1014 l 372 874 l 303 846 l 228 1014 m 44 1014 l 149 1014 l 189 874 l 119 846 l 44 1014 z "},"ï":{"ha":314,"x_min":7,"x_max":438,"o":"m 161 725 l 283 725 l 129 0 l 7 0 l 161 725 m 88 872 l 118 1014 l 221 1014 l 190 872 l 88 872 m 306 872 l 336 1014 l 438 1014 l 408 872 l 306 872 z "},"ḯ":{"ha":314,"x_min":7,"x_max":496,"o":"m 161 725 l 283 725 l 129 0 l 7 0 l 161 725 m 90 867 l 121 1008 l 224 1008 l 193 867 l 90 867 m 308 867 l 339 1008 l 440 1008 l 411 867 l 308 867 m 344 1129 l 269 1157 l 375 1297 l 496 1297 l 344 1129 z "},"ị":{"ha":314,"x_min":-42,"x_max":344,"o":"m 161 725 l 283 725 l 129 0 l 7 0 l 161 725 m 222 1014 l 344 1014 l 313 861 l 190 861 l 222 1014 m -42 -253 l -10 -106 l 100 -106 l 69 -253 l -42 -253 z "},"ì":{"ha":314,"x_min":7,"x_max":307,"o":"m 161 725 l 283 725 l 129 0 l 7 0 l 161 725 m 140 1014 l 260 1014 l 307 874 l 222 846 l 140 1014 z "},"ỉ":{"ha":314,"x_min":7,"x_max":360,"o":"m 161 725 l 283 725 l 129 0 l 7 0 l 161 725 m 172 919 l 144 965 q 214 1002 179 989 q 285 1015 249 1015 q 347 987 335 1015 q 347 924 360 958 q 307 865 338 896 q 222 801 276 835 l 203 842 q 251 880 236 864 q 271 913 265 896 q 272 939 278 928 q 249 950 265 950 q 215 944 231 950 q 172 919 200 938 z "},"ȋ":{"ha":314,"x_min":7,"x_max":393,"o":"m 161 725 l 283 725 l 129 0 l 7 0 l 161 725 m 99 860 q 135 939 108 904 q 198 994 161 974 q 275 1014 235 1014 q 360 978 328 1014 q 393 893 393 943 q 392 876 393 885 q 389 860 392 868 l 321 860 q 323 878 322 869 q 324 894 324 886 q 267 954 324 954 q 201 927 224 954 q 168 860 178 900 l 99 860 z "},"ī":{"ha":314,"x_min":7,"x_max":468,"o":"m 161 725 l 283 725 l 129 0 l 7 0 l 161 725 m 64 906 l 81 986 l 468 986 l 450 906 l 64 906 z "},"į":{"ha":314,"x_min":-61,"x_max":344,"o":"m 161 725 l 283 725 l 129 0 l 7 0 l 161 725 m 222 1014 l 344 1014 l 313 861 l 190 861 l 222 1014 m -61 -171 q -26 -74 -61 -121 q 83 25 10 -26 l 118 25 l 129 0 q 46 -83 72 -50 q 19 -143 19 -115 q 36 -173 19 -164 q 82 -185 53 -182 l 36 -262 q -40 -228 -19 -256 q -61 -171 -61 -201 z "},"ĩ":{"ha":314,"x_min":7,"x_max":493,"o":"m 161 725 l 283 725 l 129 0 l 7 0 l 161 725 m 321 871 q 257 885 282 871 q 212 915 232 900 q 163 929 192 929 q 116 914 133 929 q 92 882 99 899 q 85 863 85 865 l 13 863 q 26 894 15 871 q 57 942 36 917 q 108 987 78 968 q 176 1006 138 1006 q 224 997 204 1006 q 259 976 243 988 q 292 955 275 964 q 333 946 310 946 q 386 962 367 946 q 414 994 406 978 q 422 1014 422 1011 l 493 1014 q 481 983 492 1006 q 448 935 469 961 q 395 890 426 908 q 321 871 364 871 z "},"j":{"ha":322,"x_min":-282,"x_max":353,"o":"m -135 -258 q -218 -244 -181 -258 q -282 -200 -256 -231 l -208 -118 q -171 -143 -193 -136 q -125 -150 -149 -150 q -69 -135 -97 -150 q -19 -92 -40 -119 q 8 -32 1 -65 l 169 725 l 292 725 l 132 -24 q 76 -145 118 -92 q -21 -228 35 -199 q -135 -258 -76 -258 m 231 1014 l 353 1014 l 319 861 l 197 861 l 231 1014 z "},"ȷ":{"ha":314,"x_min":-290,"x_max":283,"o":"m -143 -258 q -226 -244 -189 -258 q -290 -200 -264 -231 l -217 -118 q -179 -143 -201 -136 q -133 -150 -157 -150 q -77 -135 -106 -150 q -28 -92 -49 -119 q 0 -32 -7 -65 l 161 725 l 283 725 l 124 -24 q 68 -145 110 -92 q -29 -228 26 -199 q -143 -258 -85 -258 z "},"ĵ":{"ha":314,"x_min":-290,"x_max":447,"o":"m -143 -258 q -226 -244 -189 -258 q -290 -200 -264 -231 l -217 -118 q -179 -143 -201 -136 q -133 -150 -157 -150 q -77 -135 -106 -150 q -28 -92 -49 -119 q 0 -32 -7 -65 l 161 725 l 283 725 l 124 -24 q 68 -145 110 -92 q -29 -228 26 -199 q -143 -258 -85 -258 m 90 889 l 251 1014 l 340 1014 l 447 889 l 374 856 l 281 943 l 150 856 l 90 889 z "},"k":{"ha":753,"x_min":7,"x_max":713,"o":"m 335 354 q 534 447 467 383 q 601 575 601 510 q 583 624 601 611 q 536 638 565 638 q 406 594 474 638 q 282 477 339 550 q 194 315 225 404 l 222 507 q 320 622 267 569 q 435 706 374 674 q 568 738 497 738 q 678 697 643 738 q 713 592 713 657 q 653 428 713 503 q 479 304 594 353 l 639 0 l 507 0 l 335 354 m 222 1014 l 344 1014 l 129 0 l 7 0 l 222 1014 z "},"ķ":{"ha":753,"x_min":7,"x_max":713,"o":"m 335 354 q 534 447 467 383 q 601 575 601 510 q 583 624 601 611 q 536 638 565 638 q 406 594 474 638 q 282 477 339 550 q 194 315 225 404 l 222 507 q 320 622 267 569 q 435 706 374 674 q 568 738 497 738 q 678 697 643 738 q 713 592 713 657 q 653 428 713 503 q 479 304 594 353 l 639 0 l 507 0 l 335 354 m 222 1014 l 344 1014 l 129 0 l 7 0 l 222 1014 m 194 -296 l 246 -183 l 211 -183 l 236 -67 l 343 -67 l 318 -183 l 254 -296 l 194 -296 z "},"ĸ":{"ha":719,"x_min":7,"x_max":763,"o":"m 161 725 l 283 725 l 203 347 l 629 724 l 763 724 l 426 424 l 624 0 l 492 0 l 333 354 l 176 224 l 129 0 l 7 0 l 161 725 z "},"l":{"ha":389,"x_min":35,"x_max":346,"o":"m 156 -10 q 67 19 99 -10 q 35 99 35 47 q 37 121 35 110 q 40 143 39 132 l 225 1014 l 346 1014 l 171 188 q 169 174 169 181 q 168 161 168 168 q 231 101 168 101 q 267 106 246 101 q 307 118 289 111 l 303 19 q 230 -1 272 7 q 156 -10 188 -10 z "},"ĺ":{"ha":389,"x_min":35,"x_max":499,"o":"m 156 -10 q 67 19 99 -10 q 35 99 35 47 q 37 121 35 110 q 40 143 39 132 l 225 1014 l 346 1014 l 171 188 q 169 174 169 181 q 168 161 168 168 q 231 101 168 101 q 267 106 246 101 q 307 118 289 111 l 303 19 q 230 -1 272 7 q 156 -10 188 -10 m 347 1135 l 272 1163 l 378 1303 l 499 1303 l 347 1135 z "},"ľ":{"ha":389,"x_min":35,"x_max":574,"o":"m 156 -10 q 67 19 99 -10 q 35 99 35 47 q 37 121 35 110 q 40 143 39 132 l 225 1014 l 346 1014 l 171 188 q 169 174 169 181 q 168 161 168 168 q 231 101 168 101 q 267 106 246 101 q 307 118 289 111 l 303 19 q 230 -1 272 7 q 156 -10 188 -10 m 347 874 l 453 1014 l 574 1014 l 422 846 l 347 874 z "},"ļ":{"ha":389,"x_min":35,"x_max":346,"o":"m 156 -10 q 67 19 99 -10 q 35 99 35 47 q 37 121 35 110 q 40 143 39 132 l 225 1014 l 346 1014 l 171 188 q 169 174 169 181 q 168 161 168 168 q 231 101 168 101 q 267 106 246 101 q 307 118 289 111 l 303 19 q 230 -1 272 7 q 156 -10 188 -10 m 64 -296 l 115 -183 l 81 -183 l 106 -67 l 213 -67 l 188 -183 l 124 -296 l 64 -296 z "},"ŀ":{"ha":451,"x_min":35,"x_max":460,"o":"m 156 -10 q 67 19 99 -10 q 35 99 35 47 q 37 121 35 110 q 40 143 39 132 l 225 1014 l 346 1014 l 171 188 q 169 174 169 181 q 168 161 168 168 q 231 101 168 101 q 267 106 246 101 q 307 118 289 111 l 303 19 q 230 -1 272 7 q 156 -10 188 -10 m 321 374 l 357 546 l 460 546 l 424 374 l 321 374 z "},"ḷ":{"ha":389,"x_min":35,"x_max":346,"o":"m 156 -10 q 67 19 99 -10 q 35 99 35 47 q 37 121 35 110 q 40 143 39 132 l 225 1014 l 346 1014 l 171 188 q 169 174 169 181 q 168 161 168 168 q 231 101 168 101 q 267 106 246 101 q 307 118 289 111 l 303 19 q 230 -1 272 7 q 156 -10 188 -10 m 64 -253 l 96 -106 l 206 -106 l 175 -253 l 64 -253 z "},"ḻ":{"ha":389,"x_min":-58,"x_max":346,"o":"m 156 -10 q 67 19 99 -10 q 35 99 35 47 q 37 121 35 110 q 40 143 39 132 l 225 1014 l 346 1014 l 171 188 q 169 174 169 181 q 168 161 168 168 q 231 101 168 101 q 267 106 246 101 q 307 118 289 111 l 303 19 q 230 -1 272 7 q 156 -10 188 -10 m -58 -199 l -39 -118 l 329 -118 l 310 -199 l -58 -199 z "},"ł":{"ha":418,"x_min":21,"x_max":450,"o":"m 21 461 l 428 725 l 450 657 l 42 393 l 21 461 m 182 -10 q 93 19 125 -10 q 61 99 61 47 q 63 121 61 110 q 67 143 65 132 l 251 1014 l 374 1014 l 204 215 q 198 185 200 197 q 196 161 196 172 q 257 101 196 101 q 294 106 272 101 q 335 118 317 111 l 331 19 q 256 -1 299 7 q 182 -10 214 -10 z "},"m":{"ha":1226,"x_min":7,"x_max":1157,"o":"m 161 725 l 272 725 l 239 569 q 372 692 294 647 q 531 738 450 738 q 622 717 585 738 q 678 657 658 696 q 699 561 697 618 q 789 658 742 619 q 889 717 836 697 q 996 738 942 738 q 1090 715 1056 738 q 1141 653 1125 693 q 1157 561 1157 614 q 1153 500 1157 532 q 1142 433 1149 468 l 1049 0 l 926 0 l 1013 406 q 1025 507 1025 464 q 999 598 1025 568 q 925 628 974 628 q 833 603 879 628 q 748 536 788 579 q 681 436 708 493 l 589 0 l 467 0 l 553 406 q 563 461 560 436 q 565 508 565 486 q 540 599 565 569 q 467 628 515 628 q 331 576 399 628 q 222 438 264 524 l 129 0 l 7 0 l 161 725 z "},"ṃ":{"ha":1226,"x_min":7,"x_max":1157,"o":"m 161 725 l 272 725 l 239 569 q 372 692 294 647 q 531 738 450 738 q 622 717 585 738 q 678 657 658 696 q 699 561 697 618 q 789 658 742 619 q 889 717 836 697 q 996 738 942 738 q 1090 715 1056 738 q 1141 653 1125 693 q 1157 561 1157 614 q 1153 500 1157 532 q 1142 433 1149 468 l 1049 0 l 926 0 l 1013 406 q 1025 507 1025 464 q 999 598 1025 568 q 925 628 974 628 q 833 603 879 628 q 748 536 788 579 q 681 436 708 493 l 589 0 l 467 0 l 553 406 q 563 461 560 436 q 565 508 565 486 q 540 599 565 569 q 467 628 515 628 q 331 576 399 628 q 222 438 264 524 l 129 0 l 7 0 l 161 725 m 429 -253 l 461 -106 l 571 -106 l 540 -253 l 429 -253 z "},"n":{"ha":788,"x_min":7,"x_max":718,"o":"m 161 725 l 272 725 l 239 569 q 328 658 276 621 q 440 717 381 696 q 560 738 500 738 q 653 716 618 738 q 703 656 688 694 q 718 567 718 618 q 713 503 718 536 q 701 433 708 469 l 610 0 l 488 0 l 574 406 q 583 462 581 436 q 586 510 586 488 q 561 599 586 571 q 488 628 536 628 q 390 603 442 628 q 294 535 339 578 q 222 438 250 493 l 129 0 l 7 0 l 161 725 z "},"ń":{"ha":788,"x_min":7,"x_max":718,"o":"m 161 725 l 272 725 l 239 569 q 328 658 276 621 q 440 717 381 696 q 560 738 500 738 q 653 716 618 738 q 703 656 688 694 q 718 567 718 618 q 713 503 718 536 q 701 433 708 469 l 610 0 l 488 0 l 574 406 q 583 462 581 436 q 586 510 586 488 q 561 599 586 571 q 488 628 536 628 q 390 603 442 628 q 294 535 339 578 q 222 438 250 493 l 129 0 l 7 0 l 161 725 m 521 846 l 446 874 l 551 1014 l 672 1014 l 521 846 z "},"ň":{"ha":788,"x_min":7,"x_max":768,"o":"m 161 725 l 272 725 l 239 569 q 328 658 276 621 q 440 717 381 696 q 560 738 500 738 q 653 716 618 738 q 703 656 688 694 q 718 567 718 618 q 713 503 718 536 q 701 433 708 469 l 610 0 l 488 0 l 574 406 q 583 462 581 436 q 586 510 586 488 q 561 599 586 571 q 488 628 536 628 q 390 603 442 628 q 294 535 339 578 q 222 438 250 493 l 129 0 l 7 0 l 161 725 m 411 982 l 485 1015 l 578 928 l 708 1015 l 768 982 l 607 857 l 518 857 l 411 982 z "},"ņ":{"ha":788,"x_min":7,"x_max":718,"o":"m 161 725 l 272 725 l 239 569 q 328 658 276 621 q 440 717 381 696 q 560 738 500 738 q 653 716 618 738 q 703 656 688 694 q 718 567 718 618 q 713 503 718 536 q 701 433 708 469 l 610 0 l 488 0 l 574 406 q 583 462 581 436 q 586 510 586 488 q 561 599 586 571 q 488 628 536 628 q 390 603 442 628 q 294 535 339 578 q 222 438 250 493 l 129 0 l 7 0 l 161 725 m 214 -296 l 265 -183 l 231 -183 l 256 -67 l 363 -67 l 338 -183 l 274 -296 l 214 -296 z "},"ṅ":{"ha":788,"x_min":7,"x_max":718,"o":"m 161 725 l 272 725 l 239 569 q 328 658 276 621 q 440 717 381 696 q 560 738 500 738 q 653 716 618 738 q 703 656 688 694 q 718 567 718 618 q 713 503 718 536 q 701 433 708 469 l 610 0 l 488 0 l 574 406 q 583 462 581 436 q 586 510 586 488 q 561 599 586 571 q 488 628 536 628 q 390 603 442 628 q 294 535 339 578 q 222 438 250 493 l 129 0 l 7 0 l 161 725 m 522 867 l 554 1014 l 664 1014 l 633 867 l 522 867 z "},"ṇ":{"ha":788,"x_min":7,"x_max":718,"o":"m 161 725 l 272 725 l 239 569 q 328 658 276 621 q 440 717 381 696 q 560 738 500 738 q 653 716 618 738 q 703 656 688 694 q 718 567 718 618 q 713 503 718 536 q 701 433 708 469 l 610 0 l 488 0 l 574 406 q 583 462 581 436 q 586 510 586 488 q 561 599 586 571 q 488 628 536 628 q 390 603 442 628 q 294 535 339 578 q 222 438 250 493 l 129 0 l 7 0 l 161 725 m 214 -253 l 246 -106 l 356 -106 l 325 -253 l 214 -253 z "},"ŋ":{"ha":788,"x_min":7,"x_max":718,"o":"m 338 -258 q 254 -244 292 -258 q 190 -200 217 -231 l 264 -118 q 301 -143 279 -136 q 347 -150 324 -150 q 403 -135 375 -150 q 452 -92 431 -119 q 481 -32 474 -65 l 574 406 q 583 462 581 436 q 586 510 586 488 q 561 599 586 571 q 488 628 536 628 q 390 603 442 628 q 294 535 339 578 q 222 438 250 493 l 129 0 l 7 0 l 161 725 l 272 725 l 239 569 q 328 658 276 621 q 440 717 381 696 q 560 738 500 738 q 653 716 618 738 q 703 656 688 694 q 718 567 718 618 q 713 503 718 536 q 701 433 708 469 l 604 -24 q 548 -145 590 -92 q 450 -228 506 -199 q 338 -258 394 -258 z "},"ṉ":{"ha":788,"x_min":7,"x_max":718,"o":"m 161 725 l 272 725 l 239 569 q 328 658 276 621 q 440 717 381 696 q 560 738 500 738 q 653 716 618 738 q 703 656 688 694 q 718 567 718 618 q 713 503 718 536 q 701 433 708 469 l 610 0 l 488 0 l 574 406 q 583 462 581 436 q 586 510 586 488 q 561 599 586 571 q 488 628 536 628 q 390 603 442 628 q 294 535 339 578 q 222 438 250 493 l 129 0 l 7 0 l 161 725 m 92 -199 l 111 -118 l 479 -118 l 460 -199 l 92 -199 z "},"ñ":{"ha":788,"x_min":7,"x_max":799,"o":"m 161 725 l 272 725 l 239 569 q 328 658 276 621 q 440 717 381 696 q 560 738 500 738 q 653 716 618 738 q 703 656 688 694 q 718 567 718 618 q 713 503 718 536 q 701 433 708 469 l 610 0 l 488 0 l 574 406 q 583 462 581 436 q 586 510 586 488 q 561 599 586 571 q 488 628 536 628 q 390 603 442 628 q 294 535 339 578 q 222 438 250 493 l 129 0 l 7 0 l 161 725 m 626 871 q 563 885 588 871 q 517 915 538 900 q 468 929 497 929 q 422 914 439 929 q 397 882 404 899 q 390 863 390 865 l 318 863 q 331 894 321 871 q 363 942 342 917 q 413 987 383 968 q 482 1006 443 1006 q 529 997 510 1006 q 565 976 549 988 q 598 955 581 964 q 639 946 615 946 q 692 962 672 946 q 719 994 711 978 q 728 1014 728 1011 l 799 1014 q 786 983 797 1006 q 753 935 775 961 q 701 890 732 908 q 626 871 669 871 z "},"o":{"ha":803,"x_min":31,"x_max":749,"o":"m 318 -14 q 157 28 221 -14 q 62 139 93 69 q 31 292 31 208 q 64 464 31 383 q 156 606 97 544 q 293 703 215 668 q 458 738 371 738 q 620 696 556 738 q 717 585 685 654 q 749 431 749 515 q 715 260 749 340 q 622 117 682 179 q 485 21 563 56 q 318 -14 407 -14 m 339 92 q 444 115 393 92 q 534 183 494 139 q 597 285 574 226 q 621 413 621 343 q 600 526 621 476 q 539 603 579 575 q 439 632 499 632 q 335 608 385 632 q 244 540 285 583 q 181 437 204 496 q 157 308 157 378 q 178 197 157 246 q 240 119 199 147 q 339 92 281 92 z "},"ó":{"ha":803,"x_min":31,"x_max":749,"o":"m 318 -14 q 157 28 221 -14 q 62 139 93 69 q 31 292 31 208 q 64 464 31 383 q 156 606 97 544 q 293 703 215 668 q 458 738 371 738 q 620 696 556 738 q 717 585 685 654 q 749 431 749 515 q 715 260 749 340 q 622 117 682 179 q 485 21 563 56 q 318 -14 407 -14 m 339 92 q 444 115 393 92 q 534 183 494 139 q 597 285 574 226 q 621 413 621 343 q 600 526 621 476 q 539 603 579 575 q 439 632 499 632 q 335 608 385 632 q 244 540 285 583 q 181 437 204 496 q 157 308 157 378 q 178 197 157 246 q 240 119 199 147 q 339 92 281 92 m 524 846 l 449 874 l 554 1014 l 675 1014 l 524 846 z "},"ŏ":{"ha":803,"x_min":31,"x_max":749,"o":"m 318 -14 q 157 28 221 -14 q 62 139 93 69 q 31 292 31 208 q 64 464 31 383 q 156 606 97 544 q 293 703 215 668 q 458 738 371 738 q 620 696 556 738 q 717 585 685 654 q 749 431 749 515 q 715 260 749 340 q 622 117 682 179 q 485 21 563 56 q 318 -14 407 -14 m 339 92 q 444 115 393 92 q 534 183 494 139 q 597 285 574 226 q 621 413 621 343 q 600 526 621 476 q 539 603 579 575 q 439 632 499 632 q 335 608 385 632 q 244 540 285 583 q 181 437 204 496 q 157 308 157 378 q 178 197 157 246 q 240 119 199 147 q 339 92 281 92 m 508 919 q 564 947 536 919 q 604 1014 592 974 l 674 1014 q 638 935 665 971 q 574 880 611 900 q 496 860 538 860 q 410 893 442 860 q 378 978 378 926 q 379 996 378 988 q 382 1014 381 1004 l 453 1014 q 451 1003 451 1008 q 450 990 450 997 q 466 940 450 961 q 508 919 482 919 z "},"ô":{"ha":803,"x_min":31,"x_max":749,"o":"m 318 -14 q 157 28 221 -14 q 62 139 93 69 q 31 292 31 208 q 64 464 31 383 q 156 606 97 544 q 293 703 215 668 q 458 738 371 738 q 620 696 556 738 q 717 585 685 654 q 749 431 749 515 q 715 260 749 340 q 622 117 682 179 q 485 21 563 56 q 318 -14 407 -14 m 339 92 q 444 115 393 92 q 534 183 494 139 q 597 285 574 226 q 621 413 621 343 q 600 526 621 476 q 539 603 579 575 q 439 632 499 632 q 335 608 385 632 q 244 540 285 583 q 181 437 204 496 q 157 308 157 378 q 178 197 157 246 q 240 119 199 147 q 339 92 281 92 m 325 889 l 486 1014 l 575 1014 l 682 889 l 608 856 l 515 943 l 385 856 l 325 889 z "},"ố":{"ha":803,"x_min":31,"x_max":878,"o":"m 318 -14 q 157 28 221 -14 q 62 139 93 69 q 31 292 31 208 q 64 464 31 383 q 156 606 97 544 q 293 703 215 668 q 458 738 371 738 q 620 696 556 738 q 717 585 685 654 q 749 431 749 515 q 715 260 749 340 q 622 117 682 179 q 485 21 563 56 q 318 -14 407 -14 m 339 92 q 444 115 393 92 q 534 183 494 139 q 597 285 574 226 q 621 413 621 343 q 600 526 621 476 q 539 603 579 575 q 439 632 499 632 q 335 608 385 632 q 244 540 285 583 q 181 437 204 496 q 157 308 157 378 q 178 197 157 246 q 240 119 199 147 q 339 92 281 92 z "},"ộ":{"ha":803,"x_min":31,"x_max":749,"o":"m 318 -14 q 157 28 221 -14 q 62 139 93 69 q 31 292 31 208 q 64 464 31 383 q 156 606 97 544 q 293 703 215 668 q 458 738 371 738 q 620 696 556 738 q 717 585 685 654 q 749 431 749 515 q 715 260 749 340 q 622 117 682 179 q 485 21 563 56 q 318 -14 407 -14 m 339 92 q 444 115 393 92 q 534 183 494 139 q 597 285 574 226 q 621 413 621 343 q 600 526 621 476 q 539 603 579 575 q 439 632 499 632 q 335 608 385 632 q 244 540 285 583 q 181 437 204 496 q 157 308 157 378 q 178 197 157 246 q 240 119 199 147 q 339 92 281 92 m 224 -253 l 256 -106 l 365 -106 l 335 -253 l 224 -253 m 325 889 l 486 1014 l 575 1014 l 682 889 l 608 856 l 515 943 l 385 856 l 325 889 z "},"ồ":{"ha":803,"x_min":31,"x_max":749,"o":"m 318 -14 q 157 28 221 -14 q 62 139 93 69 q 31 292 31 208 q 64 464 31 383 q 156 606 97 544 q 293 703 215 668 q 458 738 371 738 q 620 696 556 738 q 717 585 685 654 q 749 431 749 515 q 715 260 749 340 q 622 117 682 179 q 485 21 563 56 q 318 -14 407 -14 m 339 92 q 444 115 393 92 q 534 183 494 139 q 597 285 574 226 q 621 413 621 343 q 600 526 621 476 q 539 603 579 575 q 439 632 499 632 q 335 608 385 632 q 244 540 285 583 q 181 437 204 496 q 157 308 157 378 q 178 197 157 246 q 240 119 199 147 q 339 92 281 92 z "},"ổ":{"ha":803,"x_min":31,"x_max":781,"o":"m 318 -14 q 157 28 221 -14 q 62 139 93 69 q 31 292 31 208 q 64 464 31 383 q 156 606 97 544 q 293 703 215 668 q 458 738 371 738 q 620 696 556 738 q 717 585 685 654 q 749 431 749 515 q 715 260 749 340 q 622 117 682 179 q 485 21 563 56 q 318 -14 407 -14 m 339 92 q 444 115 393 92 q 534 183 494 139 q 597 285 574 226 q 621 413 621 343 q 600 526 621 476 q 539 603 579 575 q 439 632 499 632 q 335 608 385 632 q 244 540 285 583 q 181 437 204 496 q 157 308 157 378 q 178 197 157 246 q 240 119 199 147 q 339 92 281 92 z "},"ỗ":{"ha":803,"x_min":31,"x_max":771,"o":"m 318 -14 q 157 28 221 -14 q 62 139 93 69 q 31 292 31 208 q 64 464 31 383 q 156 606 97 544 q 293 703 215 668 q 458 738 371 738 q 620 696 556 738 q 717 585 685 654 q 749 431 749 515 q 715 260 749 340 q 622 117 682 179 q 485 21 563 56 q 318 -14 407 -14 m 339 92 q 444 115 393 92 q 534 183 494 139 q 597 285 574 226 q 621 413 621 343 q 600 526 621 476 q 539 603 579 575 q 439 632 499 632 q 335 608 385 632 q 244 540 285 583 q 181 437 204 496 q 157 308 157 378 q 178 197 157 246 q 240 119 199 147 q 339 92 281 92 z "},"ȍ":{"ha":803,"x_min":31,"x_max":749,"o":"m 318 -14 q 157 28 221 -14 q 62 139 93 69 q 31 292 31 208 q 64 464 31 383 q 156 606 97 544 q 293 703 215 668 q 458 738 371 738 q 620 696 556 738 q 717 585 685 654 q 749 431 749 515 q 715 260 749 340 q 622 117 682 179 q 485 21 563 56 q 318 -14 407 -14 m 339 92 q 444 115 393 92 q 534 183 494 139 q 597 285 574 226 q 621 413 621 343 q 600 526 621 476 q 539 603 579 575 q 439 632 499 632 q 335 608 385 632 q 244 540 285 583 q 181 437 204 496 q 157 308 157 378 q 178 197 157 246 q 240 119 199 147 q 339 92 281 92 m 474 1014 l 576 1014 l 618 874 l 549 846 l 474 1014 m 290 1014 l 394 1014 l 435 874 l 365 846 l 290 1014 z "},"ö":{"ha":803,"x_min":31,"x_max":749,"o":"m 318 -14 q 157 28 221 -14 q 62 139 93 69 q 31 292 31 208 q 64 464 31 383 q 156 606 97 544 q 293 703 215 668 q 458 738 371 738 q 620 696 556 738 q 717 585 685 654 q 749 431 749 515 q 715 260 749 340 q 622 117 682 179 q 485 21 563 56 q 318 -14 407 -14 m 339 92 q 444 115 393 92 q 534 183 494 139 q 597 285 574 226 q 621 413 621 343 q 600 526 621 476 q 539 603 579 575 q 439 632 499 632 q 335 608 385 632 q 244 540 285 583 q 181 437 204 496 q 157 308 157 378 q 178 197 157 246 q 240 119 199 147 q 339 92 281 92 m 339 867 l 369 1008 l 472 1008 l 442 867 l 339 867 m 557 867 l 588 1008 l 689 1008 l 660 867 l 557 867 z "},"ȫ":{"ha":803,"x_min":31,"x_max":778,"o":"m 318 -14 q 157 28 221 -14 q 62 139 93 69 q 31 292 31 208 q 64 464 31 383 q 156 606 97 544 q 293 703 215 668 q 458 738 371 738 q 620 696 556 738 q 717 585 685 654 q 749 431 749 515 q 715 260 749 340 q 622 117 682 179 q 485 21 563 56 q 318 -14 407 -14 m 339 92 q 444 115 393 92 q 534 183 494 139 q 597 285 574 226 q 621 413 621 343 q 600 526 621 476 q 539 603 579 575 q 439 632 499 632 q 335 608 385 632 q 244 540 285 583 q 181 437 204 496 q 157 308 157 378 q 178 197 157 246 q 240 119 199 147 q 339 92 281 92 m 339 867 l 369 1008 l 472 1008 l 442 867 l 339 867 m 557 867 l 588 1008 l 689 1008 l 660 867 l 557 867 m 374 1189 l 390 1269 l 778 1269 l 760 1189 l 374 1189 z "},"ọ":{"ha":803,"x_min":31,"x_max":749,"o":"m 318 -14 q 157 28 221 -14 q 62 139 93 69 q 31 292 31 208 q 64 464 31 383 q 156 606 97 544 q 293 703 215 668 q 458 738 371 738 q 620 696 556 738 q 717 585 685 654 q 749 431 749 515 q 715 260 749 340 q 622 117 682 179 q 485 21 563 56 q 318 -14 407 -14 m 339 92 q 444 115 393 92 q 534 183 494 139 q 597 285 574 226 q 621 413 621 343 q 600 526 621 476 q 539 603 579 575 q 439 632 499 632 q 335 608 385 632 q 244 540 285 583 q 181 437 204 496 q 157 308 157 378 q 178 197 157 246 q 240 119 199 147 q 339 92 281 92 m 224 -253 l 256 -106 l 365 -106 l 335 -253 l 224 -253 z "},"ò":{"ha":803,"x_min":31,"x_max":749,"o":"m 318 -14 q 157 28 221 -14 q 62 139 93 69 q 31 292 31 208 q 64 464 31 383 q 156 606 97 544 q 293 703 215 668 q 458 738 371 738 q 620 696 556 738 q 717 585 685 654 q 749 431 749 515 q 715 260 749 340 q 622 117 682 179 q 485 21 563 56 q 318 -14 407 -14 m 339 92 q 444 115 393 92 q 534 183 494 139 q 597 285 574 226 q 621 413 621 343 q 600 526 621 476 q 539 603 579 575 q 439 632 499 632 q 335 608 385 632 q 244 540 285 583 q 181 437 204 496 q 157 308 157 378 q 178 197 157 246 q 240 119 199 147 q 339 92 281 92 m 342 1014 l 461 1014 l 508 874 l 424 846 l 342 1014 z "},"ỏ":{"ha":803,"x_min":31,"x_max":749,"o":"m 318 -14 q 157 28 221 -14 q 62 139 93 69 q 31 292 31 208 q 64 464 31 383 q 156 606 97 544 q 293 703 215 668 q 458 738 371 738 q 620 696 556 738 q 717 585 685 654 q 749 431 749 515 q 715 260 749 340 q 622 117 682 179 q 485 21 563 56 q 318 -14 407 -14 m 339 92 q 444 115 393 92 q 534 183 494 139 q 597 285 574 226 q 621 413 621 343 q 600 526 621 476 q 539 603 579 575 q 439 632 499 632 q 335 608 385 632 q 244 540 285 583 q 181 437 204 496 q 157 308 157 378 q 178 197 157 246 q 240 119 199 147 q 339 92 281 92 m 438 967 l 410 1013 q 479 1049 444 1036 q 550 1063 514 1063 q 613 1034 600 1063 q 613 971 625 1006 q 572 913 603 943 q 488 849 542 882 l 468 889 q 516 927 501 911 q 536 960 531 943 q 537 986 543 975 q 514 997 531 997 q 481 991 496 997 q 438 967 465 985 z "},"ơ":{"ha":803,"x_min":31,"x_max":813,"o":"m 318 -14 q 157 28 221 -14 q 62 139 93 69 q 31 292 31 208 q 64 464 31 383 q 156 606 97 544 q 293 703 215 668 q 458 738 371 738 q 620 696 556 738 q 717 585 685 654 q 749 431 749 515 q 715 260 749 340 q 622 117 682 179 q 485 21 563 56 q 318 -14 407 -14 m 339 92 q 444 115 393 92 q 534 183 494 139 q 597 285 574 226 q 621 413 621 343 q 600 526 621 476 q 539 603 579 575 q 439 632 499 632 q 335 608 385 632 q 244 540 285 583 q 181 437 204 496 q 157 308 157 378 q 178 197 157 246 q 240 119 199 147 q 339 92 281 92 m 536 638 l 556 726 q 631 734 604 726 q 674 758 658 742 q 699 797 690 776 q 713 843 707 817 l 813 843 q 797 793 806 818 q 774 745 788 768 q 738 701 760 722 q 684 666 715 681 q 615 644 653 651 q 536 638 578 638 z "},"ớ":{"ha":803,"x_min":31,"x_max":813,"o":"m 318 -14 q 157 28 221 -14 q 62 139 93 69 q 31 292 31 208 q 64 464 31 383 q 156 606 97 544 q 293 703 215 668 q 458 738 371 738 q 620 696 556 738 q 717 585 685 654 q 749 431 749 515 q 715 260 749 340 q 622 117 682 179 q 485 21 563 56 q 318 -14 407 -14 m 339 92 q 444 115 393 92 q 534 183 494 139 q 597 285 574 226 q 621 413 621 343 q 600 526 621 476 q 539 603 579 575 q 439 632 499 632 q 335 608 385 632 q 244 540 285 583 q 181 437 204 496 q 157 308 157 378 q 178 197 157 246 q 240 119 199 147 q 339 92 281 92 m 536 638 l 556 726 q 631 734 604 726 q 674 758 658 742 q 699 797 690 776 q 713 843 707 817 l 813 843 q 797 793 806 818 q 774 745 788 768 q 738 701 760 722 q 684 666 715 681 q 615 644 653 651 q 536 638 578 638 m 524 846 l 449 874 l 554 1014 l 675 1014 l 524 846 z "},"ợ":{"ha":803,"x_min":31,"x_max":813,"o":"m 318 -14 q 157 28 221 -14 q 62 139 93 69 q 31 292 31 208 q 64 464 31 383 q 156 606 97 544 q 293 703 215 668 q 458 738 371 738 q 620 696 556 738 q 717 585 685 654 q 749 431 749 515 q 715 260 749 340 q 622 117 682 179 q 485 21 563 56 q 318 -14 407 -14 m 339 92 q 444 115 393 92 q 534 183 494 139 q 597 285 574 226 q 621 413 621 343 q 600 526 621 476 q 539 603 579 575 q 439 632 499 632 q 335 608 385 632 q 244 540 285 583 q 181 437 204 496 q 157 308 157 378 q 178 197 157 246 q 240 119 199 147 q 339 92 281 92 m 536 638 l 556 726 q 631 734 604 726 q 674 758 658 742 q 699 797 690 776 q 713 843 707 817 l 813 843 q 797 793 806 818 q 774 745 788 768 q 738 701 760 722 q 684 666 715 681 q 615 644 653 651 q 536 638 578 638 m 224 -253 l 256 -106 l 365 -106 l 335 -253 l 224 -253 z "},"ờ":{"ha":803,"x_min":31,"x_max":813,"o":"m 318 -14 q 157 28 221 -14 q 62 139 93 69 q 31 292 31 208 q 64 464 31 383 q 156 606 97 544 q 293 703 215 668 q 458 738 371 738 q 620 696 556 738 q 717 585 685 654 q 749 431 749 515 q 715 260 749 340 q 622 117 682 179 q 485 21 563 56 q 318 -14 407 -14 m 339 92 q 444 115 393 92 q 534 183 494 139 q 597 285 574 226 q 621 413 621 343 q 600 526 621 476 q 539 603 579 575 q 439 632 499 632 q 335 608 385 632 q 244 540 285 583 q 181 437 204 496 q 157 308 157 378 q 178 197 157 246 q 240 119 199 147 q 339 92 281 92 m 536 638 l 556 726 q 631 734 604 726 q 674 758 658 742 q 699 797 690 776 q 713 843 707 817 l 813 843 q 797 793 806 818 q 774 745 788 768 q 738 701 760 722 q 684 666 715 681 q 615 644 653 651 q 536 638 578 638 m 342 1014 l 461 1014 l 508 874 l 424 846 l 342 1014 z "},"ở":{"ha":803,"x_min":31,"x_max":813,"o":"m 318 -14 q 157 28 221 -14 q 62 139 93 69 q 31 292 31 208 q 64 464 31 383 q 156 606 97 544 q 293 703 215 668 q 458 738 371 738 q 620 696 556 738 q 717 585 685 654 q 749 431 749 515 q 715 260 749 340 q 622 117 682 179 q 485 21 563 56 q 318 -14 407 -14 m 339 92 q 444 115 393 92 q 534 183 494 139 q 597 285 574 226 q 621 413 621 343 q 600 526 621 476 q 539 603 579 575 q 439 632 499 632 q 335 608 385 632 q 244 540 285 583 q 181 437 204 496 q 157 308 157 378 q 178 197 157 246 q 240 119 199 147 q 339 92 281 92 m 536 638 l 556 726 q 631 734 604 726 q 674 758 658 742 q 699 797 690 776 q 713 843 707 817 l 813 843 q 797 793 806 818 q 774 745 788 768 q 738 701 760 722 q 684 666 715 681 q 615 644 653 651 q 536 638 578 638 m 438 967 l 410 1013 q 479 1049 444 1036 q 550 1063 514 1063 q 613 1034 600 1063 q 613 971 625 1006 q 572 913 603 943 q 488 849 542 882 l 468 889 q 516 927 501 911 q 536 960 531 943 q 537 986 543 975 q 514 997 531 997 q 481 991 496 997 q 438 967 465 985 z "},"ỡ":{"ha":803,"x_min":31,"x_max":813,"o":"m 318 -14 q 157 28 221 -14 q 62 139 93 69 q 31 292 31 208 q 64 464 31 383 q 156 606 97 544 q 293 703 215 668 q 458 738 371 738 q 620 696 556 738 q 717 585 685 654 q 749 431 749 515 q 715 260 749 340 q 622 117 682 179 q 485 21 563 56 q 318 -14 407 -14 m 339 92 q 444 115 393 92 q 534 183 494 139 q 597 285 574 226 q 621 413 621 343 q 600 526 621 476 q 539 603 579 575 q 439 632 499 632 q 335 608 385 632 q 244 540 285 583 q 181 437 204 496 q 157 308 157 378 q 178 197 157 246 q 240 119 199 147 q 339 92 281 92 m 536 638 l 556 726 q 631 734 604 726 q 674 758 658 742 q 699 797 690 776 q 713 843 707 817 l 813 843 q 797 793 806 818 q 774 745 788 768 q 738 701 760 722 q 684 666 715 681 q 615 644 653 651 q 536 638 578 638 m 582 871 q 518 885 543 871 q 473 915 493 900 q 424 929 453 929 q 377 914 394 929 q 353 882 360 899 q 346 863 346 865 l 274 863 q 287 894 276 871 q 318 942 297 917 q 369 987 339 968 q 438 1006 399 1006 q 485 997 465 1006 q 520 976 504 988 q 553 955 536 964 q 594 946 571 946 q 647 962 628 946 q 675 994 667 978 q 683 1014 683 1011 l 754 1014 q 742 983 753 1006 q 709 935 731 961 q 656 890 688 908 q 582 871 625 871 z "},"ő":{"ha":803,"x_min":31,"x_max":749,"o":"m 318 -14 q 157 28 221 -14 q 62 139 93 69 q 31 292 31 208 q 64 464 31 383 q 156 606 97 544 q 293 703 215 668 q 458 738 371 738 q 620 696 556 738 q 717 585 685 654 q 749 431 749 515 q 715 260 749 340 q 622 117 682 179 q 485 21 563 56 q 318 -14 407 -14 m 339 92 q 444 115 393 92 q 534 183 494 139 q 597 285 574 226 q 621 413 621 343 q 600 526 621 476 q 539 603 579 575 q 439 632 499 632 q 335 608 385 632 q 244 540 285 583 q 181 437 204 496 q 157 308 157 378 q 178 197 157 246 q 240 119 199 147 q 339 92 281 92 m 418 846 l 361 874 l 461 1014 l 565 1014 l 418 846 m 601 846 l 544 874 l 644 1014 l 749 1014 l 601 846 z "},"ȏ":{"ha":803,"x_min":31,"x_max":749,"o":"m 318 -14 q 157 28 221 -14 q 62 139 93 69 q 31 292 31 208 q 64 464 31 383 q 156 606 97 544 q 293 703 215 668 q 458 738 371 738 q 620 696 556 738 q 717 585 685 654 q 749 431 749 515 q 715 260 749 340 q 622 117 682 179 q 485 21 563 56 q 318 -14 407 -14 m 339 92 q 444 115 393 92 q 534 183 494 139 q 597 285 574 226 q 621 413 621 343 q 600 526 621 476 q 539 603 579 575 q 439 632 499 632 q 335 608 385 632 q 244 540 285 583 q 181 437 204 496 q 157 308 157 378 q 178 197 157 246 q 240 119 199 147 q 339 92 281 92 m 347 860 q 383 939 357 904 q 447 994 410 974 q 524 1014 483 1014 q 609 978 576 1014 q 642 893 642 943 q 641 876 642 885 q 638 860 640 868 l 569 860 q 572 878 571 869 q 572 894 572 886 q 515 954 572 954 q 449 927 472 954 q 417 860 426 900 l 347 860 z "},"ō":{"ha":803,"x_min":31,"x_max":749,"o":"m 318 -14 q 157 28 221 -14 q 62 139 93 69 q 31 292 31 208 q 64 464 31 383 q 156 606 97 544 q 293 703 215 668 q 458 738 371 738 q 620 696 556 738 q 717 585 685 654 q 749 431 749 515 q 715 260 749 340 q 622 117 682 179 q 485 21 563 56 q 318 -14 407 -14 m 339 92 q 444 115 393 92 q 534 183 494 139 q 597 285 574 226 q 621 413 621 343 q 600 526 621 476 q 539 603 579 575 q 439 632 499 632 q 335 608 385 632 q 244 540 285 583 q 181 437 204 496 q 157 308 157 378 q 178 197 157 246 q 240 119 199 147 q 339 92 281 92 m 313 906 l 329 986 l 717 986 l 699 906 l 313 906 z "},"ṓ":{"ha":803,"x_min":31,"x_max":749,"o":"m 318 -14 q 157 28 221 -14 q 62 139 93 69 q 31 292 31 208 q 64 464 31 383 q 156 606 97 544 q 293 703 215 668 q 458 738 371 738 q 620 696 556 738 q 717 585 685 654 q 749 431 749 515 q 715 260 749 340 q 622 117 682 179 q 485 21 563 56 q 318 -14 407 -14 m 339 92 q 444 115 393 92 q 534 183 494 139 q 597 285 574 226 q 621 413 621 343 q 600 526 621 476 q 539 603 579 575 q 439 632 499 632 q 335 608 385 632 q 244 540 285 583 q 181 437 204 496 q 157 308 157 378 q 178 197 157 246 q 240 119 199 147 q 339 92 281 92 m 313 906 l 329 986 l 717 986 l 699 906 l 313 906 m 579 1107 l 504 1135 l 610 1275 l 731 1275 l 579 1107 z "}}}
